<svg width="360" height="240" viewBox="0 0 360 240" fill="none" xmlns="http://www.w3.org/2000/svg">
<mask id="mask0_257_99755" style="mask-type:luminance" maskUnits="userSpaceOnUse" x="0" y="0" width="360" height="240">
<rect width="360" height="240" fill="white"/>
</mask>
<g mask="url(#mask0_257_99755)">
<circle cx="-9.5" cy="94.5" r="94.5" fill="#BBF0D3"/>
<circle cx="341.5" cy="87.5" r="87.5" fill="#E5EFAC"/>
<circle cx="180" cy="120" r="120" fill="#EDFFF5"/>
<mask id="mask1_257_99755" style="mask-type:luminance" maskUnits="userSpaceOnUse" x="60" y="0" width="240" height="240">
<circle cx="180" cy="120" r="120" fill="white"/>
</mask>
<g mask="url(#mask1_257_99755)">
<path fill-rule="evenodd" clip-rule="evenodd" d="M293.041 160.367C297.546 147.752 300 134.163 300 120C300 88.8181 288.107 60.4141 268.609 39.0766C259.379 52.943 254 69.5933 254 87.5C254 117.903 269.506 144.684 293.041 160.367Z" fill="#00AB4E" fill-opacity="0.3"/>
<path fill-rule="evenodd" clip-rule="evenodd" d="M330.224 85.4944C329.696 83.7252 327.869 82.6589 326.052 83.0964L301.924 88.9064L301.738 88.9563C299.969 89.4849 298.903 91.3118 299.341 93.1285L299.391 93.314C299.919 95.0831 301.746 96.1493 303.563 95.7118L319.316 91.9175L262.85 184.262L262.697 184.503C261.285 186.642 258.955 188.009 256.388 188.188L225.592 190.35L225.219 190.381C220.508 190.827 216.261 193.438 213.739 197.459L196.53 224.889L196.369 225.134C194.838 227.394 192.282 228.756 189.539 228.756H146.289L145.894 228.761C142.215 228.856 138.688 230.28 135.97 232.776L115 251.5L122.5 255L140.705 237.931L140.95 237.715C142.438 236.453 144.33 235.756 146.289 235.756H189.539L189.897 235.752C195.01 235.632 199.734 232.955 202.46 228.608L219.669 201.179L219.829 200.934C221.246 198.842 223.55 197.51 226.082 197.333L256.877 195.171L257.245 195.141C262.018 194.691 266.311 192.018 268.822 187.914L325.407 95.3731L329.278 111.446L329.328 111.632C329.856 113.401 331.683 114.467 333.5 114.03C335.379 113.577 336.536 111.687 336.083 109.808L330.274 85.6799L330.224 85.4944Z" fill="#BBF0D3"/>
<path fill-rule="evenodd" clip-rule="evenodd" d="M20 37H335.253V36H20V37ZM20 82.473H335.253V81.473H20V82.473ZM335.253 127.947H20V126.946H335.253V127.947ZM20 173.42H335.253V172.42H20V173.42ZM335.253 218.893H20V217.893H335.253V218.893Z" fill="#BBF0D3"/>
<path fill-rule="evenodd" clip-rule="evenodd" d="M142.906 186.593L140.894 196.888C140.894 196.888 141.245 199.235 144.53 199.986C147.815 200.737 149.222 199.516 149.222 199.516L152.894 188.959L142.906 186.593Z" fill="#C9C9C9"/>
<path fill-rule="evenodd" clip-rule="evenodd" d="M140.786 196.029C140.786 196.029 142.276 197.371 145.506 197.865C148.735 198.358 150.678 196.029 150.678 196.029C150.678 196.029 151.298 196.942 151.617 198.487C151.617 198.487 162.497 203.397 164.268 205.504C166.041 207.609 165.598 209.573 165.598 209.573L137.537 205.883C137.537 205.883 137.647 199.155 140.786 196.029Z" fill="#58585B"/>
<path d="M155.714 199.853C155.714 199.853 152.451 198.166 149.876 201.762" stroke="white" stroke-linecap="round"/>
<path d="M158.512 201.553C158.512 201.553 155.248 199.866 152.674 203.462" stroke="white" stroke-linecap="round"/>
<path fill-rule="evenodd" clip-rule="evenodd" d="M137.537 205.884L137.086 209.944L141.2 210.401L141.576 208.694L143.038 210.605L165.217 213.071L165.605 209.574L137.537 205.884Z" fill="#252528"/>
<path fill-rule="evenodd" clip-rule="evenodd" d="M111.617 122.854L101.165 172.638L87.612 218.855L98.765 221.129C98.765 221.129 117.201 179.074 118.728 174.329C120.256 169.583 140.58 120.689 140.58 120.689L111.617 122.854Z" fill="#252528"/>
<path fill-rule="evenodd" clip-rule="evenodd" d="M143.809 119.347C143.809 119.347 171.181 138.614 173.007 145.73C176.14 157.941 152.507 192.516 152.507 192.516L140.665 190.592C140.665 190.592 154.644 157.46 154.508 155.922C154.424 154.957 139.543 145.095 131.657 139.758C126.966 136.584 119.173 132.013 120.363 126.497C123.098 113.813 143.809 119.347 143.809 119.347Z" fill="#252528"/>
<path d="M89.4217 124.411L87.9657 126.474L92.2947 130.388L94.6427 127.882L89.4217 124.411Z" fill="#F2CBA8"/>
<path d="M170.063 96.6112L173.063 92.5262L177.843 94.2632L174.667 99.6062L170.063 96.6112Z" fill="#F2CBA8"/>
<path d="M173.446 93.4931C173.446 93.4931 176.663 97.2141 179.646 95.0521C182.63 92.8891 175.174 91.0781 175.174 91.0781L173.446 93.4931Z" fill="#F2CBA8"/>
<path fill-rule="evenodd" clip-rule="evenodd" d="M173.53 91.5771L179.717 83.6621C179.917 83.4071 180.259 83.3131 180.559 83.4301L184.872 84.2461C185.323 84.4211 185.558 85.8581 185.27 86.2471L179.012 94.6911C178.675 95.1481 178.037 95.2601 177.563 94.9441L173.651 92.3321C173.398 92.1641 173.343 91.8161 173.53 91.5771Z" fill="#2E3135"/>
<path fill-rule="evenodd" clip-rule="evenodd" d="M173.291 90.6054L179.478 82.6904C179.678 82.4354 180.02 82.3414 180.32 82.4584L184.707 84.1564C185.158 84.3314 185.319 84.8864 185.031 85.2764L178.773 93.7204C178.436 94.1764 177.798 94.2884 177.324 93.9724L173.412 91.3614C173.159 91.1924 173.104 90.8444 173.291 90.6054Z" fill="#656B72"/>
<path fill-rule="evenodd" clip-rule="evenodd" d="M173.974 90.4277L179.62 83.0847C179.751 82.9117 179.981 82.8467 180.183 82.9237L184.216 84.4767C184.516 84.5917 184.624 84.9607 184.435 85.2207L178.446 93.3497C178.294 93.5577 178.008 93.6127 177.791 93.4747L174.101 91.1367C173.86 90.9837 173.8 90.6557 173.974 90.4277Z" fill="white"/>
<path d="M172.859 91.3564C172.964 89.3364 173.295 88.0704 173.855 87.4644C174.417 86.8594 176.613 87.3224 177.068 87.6524C177.504 87.9684 177.522 88.4094 176.963 89.0004C176.404 89.5914 175.098 89.5804 175.098 89.5804C175.098 89.5804 175.637 90.5724 175.424 91.9354C175.183 93.4784 174.16 93.6354 173.756 93.6624C173.352 93.6874 172.778 92.8934 172.859 91.3564Z" fill="#F2CBA8"/>
<path d="M179.198 94.8066C179.152 94.6296 178.651 93.5156 179.219 92.5526C179.788 91.5906 181.461 88.4986 182.285 88.6096C183.109 88.7196 183.69 89.5966 183.54 90.5756C183.388 91.5536 179.565 96.2346 179.198 94.8066Z" fill="#F2CBA8"/>
<path fill-rule="evenodd" clip-rule="evenodd" d="M170.053 95.83L172.102 93.446L176.571 97.556L174.693 101.028L170.053 95.83Z" fill="#C9C9C9"/>
<path fill-rule="evenodd" clip-rule="evenodd" d="M153.303 88.9726C155.977 90.7556 159.574 104.691 159.574 104.691L170.112 95.3896L175.2 101.096C175.2 101.096 164.065 118.281 157.283 117.251C150.502 116.221 146.594 98.8246 145.468 94.5456C144.341 90.2676 150.367 87.0146 153.303 88.9726Z" fill="#58585B"/>
<path fill-rule="evenodd" clip-rule="evenodd" d="M136.554 80.4433C136.554 80.4433 121.886 83.3603 119.316 84.4193C116.746 85.4783 115.893 116.318 115.893 116.318L111.318 126.088C111.318 126.088 127.135 131.062 132.189 130.14C140.219 128.674 142.578 124.628 142.578 124.628C142.578 124.628 144.191 114.404 144.159 112.822C144.129 111.24 152.163 91.0593 151.829 89.0183C151.495 86.9783 145.341 82.1633 145.341 82.1633L136.554 80.4433Z" fill="#C9C9C9"/>
<path fill-rule="evenodd" clip-rule="evenodd" d="M123.684 121.209C123.684 121.209 131.867 114.698 136.003 107.93C127.995 112.881 124.288 116.654 124.288 116.654L123.684 121.209Z" fill="#9B9B9B"/>
<path fill-rule="evenodd" clip-rule="evenodd" d="M120.934 81.9667C116.952 83.2457 101.02 100.479 99.8104 102.259C98.6014 104.039 89.8934 122.153 89.8934 122.153L96.7044 126.512C96.7044 126.512 106.866 109.396 108.45 107.544C110.033 105.692 118.322 98.1837 121.758 96.0947C125.194 94.0047 125.327 80.5547 120.934 81.9667Z" fill="#58585B"/>
<path fill-rule="evenodd" clip-rule="evenodd" d="M122.571 123.468C116.272 135.377 109.5 142 109.5 142C109.5 142 103.601 134.268 102.193 129.993C102.193 129.993 113.904 112.03 114.23 109.597C115.356 101.197 120.633 82.1716 121.105 81.7866C121.577 81.4026 136.174 79.8066 136.174 79.8066C136.174 79.8066 130.775 107.962 122.571 123.468Z" fill="#58585B"/>
<path fill-rule="evenodd" clip-rule="evenodd" d="M115.5 117L120.241 122.835L123.684 121.209L126.5 115L115.5 117Z" fill="#252528"/>
<path fill-rule="evenodd" clip-rule="evenodd" d="M139.305 85.3193L143.962 86.0873L141.765 89.4293L139.27 88.8763L139.305 85.3193Z" fill="#DB4D51"/>
<path d="M145.409 79.0741L144.755 82.6991L141.734 85.4611L136.555 80.4431L139.038 73.7241L145.409 79.0741Z" fill="#E79E5C"/>
<path d="M138.498 75.1864C138.498 75.1864 138.105 81.5984 142.326 83.2834C143.881 83.9034 144.755 82.6994 144.755 82.6994L145.256 79.9234L138.498 75.1864Z" fill="#E07E26"/>
<path fill-rule="evenodd" clip-rule="evenodd" d="M136.554 80.4433L136.433 87.3383L141.734 85.4613L136.554 80.4433Z" fill="white"/>
<path fill-rule="evenodd" clip-rule="evenodd" d="M141.734 85.4609L144.854 87.8409L145.341 82.1629L141.734 85.4609Z" fill="white"/>
<path fill-rule="evenodd" clip-rule="evenodd" d="M147.843 63.5439C147.843 63.5439 149.226 64.2789 149.181 66.2329C149.136 68.1879 146.735 69.5869 146.735 69.5869L144.919 64.6379L147.843 63.5439Z" fill="#252528"/>
<path d="M147.942 67.0204C147.942 67.0204 148.853 72.0484 148.989 73.5504C149.298 76.9604 148.086 79.2654 146.859 79.8934C145.632 80.5224 143.118 80.4204 139.79 78.2184C136.461 76.0154 136.157 67.5584 137.724 65.8814C139.292 64.2054 144.065 63.3704 145.655 64.1244C146.714 64.6264 147.663 65.9764 147.942 67.0204Z" fill="#F2CBA8"/>
<path d="M138.142 65.6796C138.142 65.6796 141.781 68.2686 147.738 66.4526C147.738 66.4526 147.392 65.5436 146.805 65.0256C146.217 64.5076 138.142 65.6796 138.142 65.6796Z" fill="#E79E5C"/>
<path fill-rule="evenodd" clip-rule="evenodd" d="M136.788 71.3232L137.173 72.4322L137.51 71.9622C137.51 71.9622 137.055 68.9822 137.137 68.7572C137.219 68.5302 138.697 67.3472 138.142 65.6792C138.142 65.6792 140.996 67.1882 145.69 65.6662C149.851 64.3172 148.979 58.5652 147.568 58.2652C147.12 58.1702 146.594 58.8992 145.231 59.0072C143.271 59.1612 141.552 57.4142 137.935 59.2002C135.551 60.3772 135.649 63.1192 135.649 63.1192C135.649 63.1192 133.973 64.6602 133.027 66.6362C132.147 68.4782 134.968 72.2752 135.725 73.0542L136.788 71.3232Z" fill="#58585B"/>
<path d="M136.788 71.3232C136.788 71.3232 135.113 70.9572 135.086 73.3192C135.059 75.6802 137.509 76.1852 138.374 75.8862L136.788 71.3232Z" fill="#F2CBA8"/>
<path fill-rule="evenodd" clip-rule="evenodd" d="M130.025 60.8632L127.716 59.0132H117.749C117.041 59.0132 116.467 58.4392 116.467 57.7312V47.2822C116.467 46.5742 117.041 46.0002 117.749 46.0002H130.826C131.534 46.0002 132.108 46.5742 132.108 47.2822V59.8622C132.108 60.9372 130.864 61.5352 130.025 60.8632Z" fill="#00AB4E"/>
<path fill-rule="evenodd" clip-rule="evenodd" d="M123.365 55.1278C123.146 55.1278 122.927 55.0538 122.747 54.9028L120.801 53.2698C120.393 52.9278 120.341 52.3208 120.681 51.9148C121.023 51.5078 121.631 51.4558 122.036 51.7958L123.316 52.8698L126.485 49.7758C126.866 49.4048 127.474 49.4128 127.844 49.7928C128.217 50.1718 128.209 50.7808 127.829 51.1518L124.037 54.8548C123.85 55.0358 123.608 55.1278 123.365 55.1278Z" fill="white"/>
<path fill-rule="evenodd" clip-rule="evenodd" d="M139.269 88.8759C139.269 88.8759 135.095 99.3319 132.359 102.38C129.057 106.058 118.208 112.387 118.199 112.016L115.561 117.124L119.983 120.447C119.983 120.447 132.988 114.174 136.71 106.695C140.62 98.8429 141.764 89.4299 141.764 89.4299L139.269 88.8759Z" fill="#DB4D51"/>
<path fill-rule="evenodd" clip-rule="evenodd" d="M90.3543 122.447L88.6563 124.692L94.6493 128.323L96.2943 126.25L90.3543 122.447Z" fill="#C9C9C9"/>
<path fill-rule="evenodd" clip-rule="evenodd" d="M139.954 113.46C139.954 113.46 136.442 123.117 136.462 124.306C136.481 125.494 136.47 128.958 136.47 128.958C136.47 128.958 141.202 126.929 143.328 124.571C145.455 122.214 139.954 113.46 139.954 113.46Z" fill="#9B9B9B"/>
<path fill-rule="evenodd" clip-rule="evenodd" d="M139.355 118.217C139.333 120.852 144.57 133.708 143.758 139.767C143.758 139.767 153.837 132.025 155.5 127.5L147.542 114.567C147.542 114.567 153.84 89.5775 153.258 88.5055C152.675 87.4345 145.137 81.5605 145.137 81.5605C145.137 81.5605 139.376 115.582 139.355 118.217Z" fill="#58585B"/>
<path d="M92.0379 133.673C92.0379 133.673 91.4979 135.493 90.8199 136.049C90.1419 136.606 88.4919 134.513 88.7659 132.646C89.0389 130.777 92.0379 133.673 92.0379 133.673Z" fill="#FFB490"/>
<path fill-rule="evenodd" clip-rule="evenodd" d="M58.5867 145.82L81.0527 165.511C81.6317 166.019 82.5117 165.961 83.0197 165.382L97.1497 149.259C97.6577 148.68 97.5997 147.8 97.0217 147.294L74.5557 127.601C73.9767 127.094 73.0967 127.152 72.5887 127.731L58.4567 143.853C57.9497 144.432 58.0077 145.313 58.5867 145.82Z" fill="#946F25"/>
<path fill-rule="evenodd" clip-rule="evenodd" d="M88.5476 139.866L91.0096 137.057C91.5846 136.401 91.5186 135.399 90.8626 134.823L83.5016 128.371C82.8466 127.803 81.8436 127.862 81.2676 128.517L78.8056 131.327L80.2346 132.579L82.4876 130.009L89.3726 136.043L87.1186 138.615L88.5476 139.866Z" fill="#BBBDC0"/>
<path fill-rule="evenodd" clip-rule="evenodd" d="M56.4754 143.97L78.9414 163.661C79.5194 164.168 80.4004 164.111 80.9074 163.532L95.0384 147.409C95.5454 146.83 95.4884 145.95 94.9094 145.443L72.4434 125.751C71.8654 125.244 70.9844 125.302 70.4774 125.881L56.3454 142.003C55.8384 142.582 55.8964 143.462 56.4754 143.97Z" fill="#D8B56D"/>
<path fill-rule="evenodd" clip-rule="evenodd" d="M57.6785 143.224L79.5675 162.41C79.8295 162.64 80.2305 162.614 80.4605 162.351L89.0525 152.549L66.2115 132.529L57.6195 142.33C57.3895 142.593 57.4155 142.994 57.6785 143.224Z" fill="#C69C45"/>
<path fill-rule="evenodd" clip-rule="evenodd" d="M90.4842 152.545L89.8062 153.425C89.5722 153.691 89.1862 153.764 88.8722 153.6L74.8202 145.641L65.3032 132.797C65.0852 132.502 65.0722 132.076 65.3142 131.8L66.1962 130.762L76.1452 144.075L90.4842 152.545Z" fill="#946F25"/>
<path fill-rule="evenodd" clip-rule="evenodd" d="M70.4773 125.881C70.9843 125.302 71.8653 125.244 72.4433 125.751L95.9563 146.361L97.2093 147.349C97.6933 147.731 97.7753 148.431 97.3943 148.914L96.8633 149.588L95.8173 148.67C95.2293 148.154 94.3343 148.213 93.8193 148.801L90.5963 152.477C90.2553 152.865 89.6873 152.957 89.2423 152.694L75.6923 144.706L65.9433 132.251C65.6563 131.884 65.6703 131.364 65.9773 131.014L70.4773 125.881Z" fill="#CC9D3F"/>
<path fill-rule="evenodd" clip-rule="evenodd" d="M68.5789 140.638L68.8659 140.89C69.2899 141.261 69.9339 141.219 70.3069 140.795L71.6839 139.223C72.0559 138.799 72.0129 138.155 71.5899 137.784L71.3019 137.532C70.8789 137.16 70.2339 137.202 69.8619 137.626L68.4839 139.199C68.1129 139.622 68.1549 140.267 68.5789 140.638Z" fill="#946F25"/>
<path fill-rule="evenodd" clip-rule="evenodd" d="M69.1287 140.011L69.4157 140.263C69.8397 140.634 70.4837 140.592 70.8557 140.168L72.2327 138.596C72.6057 138.172 72.5627 137.528 72.1387 137.157L71.8517 136.905C71.4277 136.533 70.7827 136.575 70.4117 136.999L69.0337 138.572C68.6627 138.995 68.7047 139.64 69.1287 140.011Z" fill="#E1E1E2"/>
<path fill-rule="evenodd" clip-rule="evenodd" d="M81.156 151.647L81.443 151.899C81.866 152.27 82.511 152.228 82.883 151.804L84.26 150.232C84.632 149.808 84.59 149.164 84.166 148.793L83.879 148.541C83.455 148.169 82.81 148.211 82.438 148.635L81.061 150.208C80.689 150.631 80.732 151.276 81.156 151.647Z" fill="#946F25"/>
<path fill-rule="evenodd" clip-rule="evenodd" d="M81.7049 151.02L81.9919 151.272C82.4159 151.643 83.0599 151.601 83.4329 151.177L84.8099 149.605C85.1819 149.181 85.1389 148.537 84.7149 148.166L84.4279 147.914C84.0049 147.542 83.3589 147.584 82.9879 148.008L81.6099 149.581C81.2389 150.004 81.2809 150.649 81.7049 151.02Z" fill="#E1E1E2"/>
<path fill-rule="evenodd" clip-rule="evenodd" d="M88.5476 139.866L89.0366 139.309L87.6946 137.957L87.1186 138.615L88.5476 139.866Z" fill="#939597"/>
<path fill-rule="evenodd" clip-rule="evenodd" d="M80.2342 132.579L80.8172 131.914L79.7052 130.3L78.8052 131.327L80.2342 132.579Z" fill="#939597"/>
<path d="M92.8084 129.901C92.8084 129.901 92.5384 132.57 92.0374 133.672C92.0374 133.672 89.9164 133.64 89.4704 134.148C89.0254 134.657 88.3294 135.629 88.0154 136.766C87.7014 137.903 82.9264 135.861 82.1584 133.167C81.3904 130.473 88.0564 126.474 88.0564 126.474L92.8084 129.901Z" fill="#F2CBA8"/>
<path fill-rule="evenodd" clip-rule="evenodd" d="M152.264 92.6112C152.264 92.6112 151.111 108.649 156.124 116.907C156.124 116.907 152.094 116.078 149.248 107.076L152.264 92.6112Z" fill="#252528"/>
<path opacity="0.3" fill-rule="evenodd" clip-rule="evenodd" d="M249.514 67.0292C249.514 84.7022 235.187 99.0292 217.515 99.0292C199.841 99.0292 185.515 84.7022 185.515 67.0292C185.515 49.3561 199.841 35.0292 217.515 35.0292C235.187 35.0292 249.514 49.3561 249.514 67.0292Z" fill="#99DDB8"/>
<path fill-rule="evenodd" clip-rule="evenodd" d="M257.094 57.614C257.094 77.2281 241.194 93.1286 221.581 93.1286C201.967 93.1286 186.066 77.2281 186.066 57.614C186.066 37.9999 201.967 22.0994 221.581 22.0994C241.194 22.0994 257.094 37.9999 257.094 57.614Z" fill="white"/>
<path fill-rule="evenodd" clip-rule="evenodd" d="M234.155 59.4982C234.155 59.4982 236.179 54.6263 241.492 51.0986L238.492 49.3419C238.492 49.3419 237.156 52.159 234.155 59.4982Z" fill="#00662E"/>
<path fill-rule="evenodd" clip-rule="evenodd" d="M239.168 47.8983L236.187 43.0869L220.367 39.6472L218.824 43.0088C214.184 53.1244 210.655 63.7152 208.301 74.5931L207.62 77.7446L227.653 82.1006C227.653 82.1006 229.991 71.5021 232.835 63.1619C235.68 54.8217 239.168 47.8983 239.168 47.8983Z" fill="#00883E"/>
<path fill-rule="evenodd" clip-rule="evenodd" d="M231.762 66.4801L228.062 63.1801L230.242 56.7374L233.802 60.4411L231.762 66.4801Z" fill="#37D880"/>
<path fill-rule="evenodd" clip-rule="evenodd" d="M236.185 43.0863L234.644 46.4501C230.001 56.5668 226.476 67.1521 224.12 78.0311L223.438 81.1826L203.355 76.8156L204.037 73.663C206.008 64.5616 208.795 55.667 212.376 47.0804C213.069 45.4018 213.803 43.7397 214.56 42.0831L216.102 38.7182L221.001 39.7852L236.185 43.0863Z" fill="#00AB4E"/>
<path fill-rule="evenodd" clip-rule="evenodd" d="M224.745 59.1904C223.881 63.1647 220.486 65.8014 217.162 65.0787C213.838 64.3549 211.844 60.5478 212.709 56.5735C213.574 52.5981 216.968 49.9625 220.292 50.6852C223.617 51.4079 225.61 55.2161 224.745 59.1904Z" fill="#37D880"/>
<path fill-rule="evenodd" clip-rule="evenodd" d="M229.398 49.9388C228.775 49.6825 228.477 48.9686 228.733 48.3449L230.138 44.9294C230.394 44.3057 231.108 44.0076 231.732 44.2639C232.355 44.5213 232.653 45.2341 232.398 45.8589L230.992 49.2744C230.735 49.897 230.022 50.1951 229.398 49.9388Z" fill="#37D880"/>
<path fill-rule="evenodd" clip-rule="evenodd" d="M207.384 75.2736C206.724 75.1306 206.307 74.4794 206.449 73.8216L207.234 70.2114C207.377 69.5536 208.029 69.1345 208.687 69.2786C209.346 69.4216 209.764 70.0717 209.621 70.7306L208.836 74.3397C208.693 74.9986 208.043 75.4166 207.384 75.2736Z" fill="#37D880"/>
<path fill-rule="evenodd" clip-rule="evenodd" d="M208.036 58.8247L228.062 63.1796L230.242 56.7369L210.276 52.3952L208.036 58.8247Z" fill="#BBF0D3"/>
<mask id="mask2_257_99755" style="mask-type:luminance" maskUnits="userSpaceOnUse" x="183" y="35" width="18" height="24">
<path fill-rule="evenodd" clip-rule="evenodd" d="M183 35.6535H200.009V58.5544H183V35.6535Z" fill="white"/>
</mask>
<g mask="url(#mask2_257_99755)">
<path fill-rule="evenodd" clip-rule="evenodd" d="M200.009 55.3732L188.408 58.5544C188.408 58.5544 186.092 54.7803 184.513 49.0218C182.934 43.2611 183 38.8347 183 38.8347L194.603 35.6535C194.603 35.6535 194.177 38.7753 196.115 45.8395C198.052 52.9037 200.009 55.3732 200.009 55.3732Z" fill="#00AB4E"/>
</g>
<path fill-rule="evenodd" clip-rule="evenodd" d="M193.964 47.4718C193.964 49.4155 192.387 50.9907 190.445 50.9907C188.5 50.9907 186.925 49.4155 186.925 47.4718C186.925 45.5281 188.5 43.9529 190.445 43.9529C192.387 43.9529 193.964 45.5281 193.964 47.4718Z" fill="#37D880"/>
<path fill-rule="evenodd" clip-rule="evenodd" d="M237.046 78.2342L246.328 80.7785C246.328 80.7785 248.181 77.7601 249.444 73.1533C250.707 68.5443 250.653 65.0045 250.653 65.0045L241.372 62.4591C241.372 62.4591 241.711 64.9572 240.162 70.6079C238.613 76.2597 237.046 78.2342 237.046 78.2342Z" fill="#00AB4E"/>
<path fill-rule="evenodd" clip-rule="evenodd" d="M241.884 71.9135C241.884 73.4678 243.144 74.7295 244.7 74.7295C246.254 74.7295 247.513 73.4678 247.513 71.9135C247.513 70.3592 246.254 69.0975 244.7 69.0975C243.144 69.0975 241.884 70.3592 241.884 71.9135Z" fill="#37D880"/>
<path fill-rule="evenodd" clip-rule="evenodd" d="M221.002 39.7846C220.607 43.8942 217.151 47.1041 212.939 47.1041C212.749 47.1041 212.559 47.0975 212.377 47.0809C213.07 45.4012 213.803 43.7392 214.56 42.0826L216.102 38.7188L221.002 39.7846Z" fill="#00883E"/>
<path fill-rule="evenodd" clip-rule="evenodd" d="M219.557 37.1018C219.557 41.5755 215.93 45.2022 211.457 45.2022C206.983 45.2022 203.355 41.5755 203.355 37.1018C203.355 32.6281 206.983 29.0014 211.457 29.0014C215.93 29.0014 219.557 32.6281 219.557 37.1018Z" fill="#FFC54F"/>
<path d="M211.456 32.4966V37.1023L214.42 36.0936" stroke="white" stroke-width="1.65" stroke-linecap="round" stroke-linejoin="round"/>
</g>
<path fill-rule="evenodd" clip-rule="evenodd" d="M332.224 68.4944C331.696 66.7252 329.869 65.6589 328.052 66.0964L303.924 71.9064L303.738 71.9563C301.969 72.4849 300.903 74.3118 301.341 76.1285L301.391 76.314C301.919 78.0831 303.746 79.1493 305.563 78.7118L321.316 74.9175L264.85 167.262L264.697 167.503C263.285 169.642 260.955 171.009 258.388 171.188L227.592 173.35L227.219 173.381C222.508 173.827 218.261 176.438 215.739 180.459L198.53 207.889L198.369 208.134C196.838 210.394 194.282 211.756 191.539 211.756H148.289L147.894 211.761C144.215 211.856 140.688 213.28 137.97 215.776L117 234.5L124.5 238L142.705 220.931L142.95 220.715C144.438 219.453 146.33 218.756 148.289 218.756H191.539L191.897 218.752C197.01 218.632 201.734 215.955 204.46 211.608L221.669 184.179L221.829 183.934C223.246 181.842 225.55 180.51 228.082 180.333L258.877 178.171L259.245 178.141C264.018 177.691 268.311 175.018 270.822 170.914L327.407 78.3731L331.278 94.4463L331.328 94.6318C331.856 96.401 333.683 97.4672 335.5 97.0299C337.379 96.5774 338.536 94.6871 338.083 92.8079L332.274 68.6799L332.224 68.4944Z" fill="#00AB4E"/>
</g>
</svg>
