<svg width="360" height="240" viewBox="0 0 360 240" fill="none" xmlns="http://www.w3.org/2000/svg">
<mask id="mask0_257_99738" style="mask-type:luminance" maskUnits="userSpaceOnUse" x="0" y="0" width="360" height="240">
<rect width="360" height="240" fill="white"/>
</mask>
<g mask="url(#mask0_257_99738)">
<circle cx="-18.5" cy="87.5" r="87.5" fill="#E5EFAC"/>
<circle cx="169" cy="120" r="120" fill="#EDFFF5"/>
<mask id="mask1_257_99738" style="mask-type:luminance" maskUnits="userSpaceOnUse" x="49" y="0" width="240" height="240">
<circle cx="169" cy="120" r="120" fill="white"/>
</mask>
<g mask="url(#mask1_257_99738)">
<circle cx="174" cy="125" r="95.5" stroke="#BBF0D3"/>
<path d="M193.515 182.538C193.515 182.538 193.515 205.799 174.392 221.277L166.415 247.261C166.415 247.261 154.574 260.141 134.582 257.324C114.592 254.509 113.077 238.712 113.077 238.712L135.709 167.625L193.515 182.538Z" fill="#F2CBA8"/>
<path d="M149.509 193.315C149.509 193.315 165.956 198.752 186.447 195.867L150.13 187.92L149.509 193.315Z" fill="#E79E5C"/>
<path d="M207.368 94.7958C207.368 94.7958 212.71 90.3488 215.701 87.6378C221.708 82.1938 231.072 88.3128 222.928 98.1498C215.701 106.878 202.937 121.976 202.937 121.976L207.368 94.7958Z" fill="#F2CBA8"/>
<path fill-rule="evenodd" clip-rule="evenodd" d="M186.448 195.867L138.497 188.645C133.036 187.823 129.275 182.728 130.098 177.267L147.682 60.5121C148.505 55.0511 153.598 51.2901 159.059 52.1121L207.011 59.3341C212.472 60.1571 216.233 65.2511 215.41 70.7121L197.826 187.468C197.004 192.929 191.91 196.689 186.448 195.867Z" fill="#58585B"/>
<path fill-rule="evenodd" clip-rule="evenodd" d="M206.168 63.6044L198.235 62.4094C197.218 62.2564 196.222 62.8504 195.821 63.8494L195.375 64.9614C194.974 65.9604 193.978 66.5554 192.961 66.4024L170.403 63.0044C169.387 62.8514 168.61 61.9904 168.522 60.9164L168.422 59.7234C168.333 58.6504 167.557 57.7894 166.539 57.6354L158.606 56.4414C154.939 55.8884 151.496 58.5624 150.916 62.4134L133.749 176.403C133.169 180.253 135.672 183.823 139.339 184.375L186.9 191.538C190.567 192.09 194.011 189.417 194.591 185.566L211.758 71.5764C212.338 67.7254 209.835 64.1564 206.168 63.6044Z" fill="white"/>
<path fill-rule="evenodd" clip-rule="evenodd" d="M174.84 108.03C180.259 108.599 184.167 113.422 183.602 118.84C183.039 124.23 178.198 128.165 172.822 127.603C167.384 127.034 163.475 122.206 164.05 116.768C164.621 111.368 169.443 107.463 174.84 108.03ZM178.521 115.147C178.727 115.295 178.843 115.374 178.955 115.459C179.137 115.598 179.308 115.67 179.483 115.444C179.67 115.204 179.521 115.084 179.337 114.953C177.495 113.636 175.475 112.847 173.181 112.854C171.733 112.859 170.361 113.188 169.058 113.811C168.867 113.902 168.623 113.977 168.776 114.286C168.93 114.599 169.137 114.477 169.351 114.37C169.47 114.31 169.595 114.265 169.792 114.182C169.699 114.356 169.648 114.455 169.593 114.552C168.565 116.371 167.537 118.191 166.508 120.009C166.155 120.632 166.224 120.996 166.803 121.431C166.976 121.561 167.165 121.676 167.362 121.765C168.579 122.315 169.852 122.438 171.163 122.238C171.468 122.191 171.76 122.092 172.037 121.955C172.635 121.661 172.776 121.308 172.575 120.671C171.899 118.532 171.233 116.39 170.546 114.255C170.452 113.962 170.536 113.89 170.8 113.818C173.153 113.182 175.395 113.472 177.555 114.573C177.851 114.724 177.859 114.851 177.704 115.121C176.633 116.988 175.577 118.865 174.516 120.739C174.081 121.507 174.178 121.929 174.933 122.394C175.869 122.971 176.914 123.146 177.992 123.16C178.676 123.17 179.352 123.104 179.978 122.794C180.578 122.496 180.725 122.143 180.525 121.513C180.203 120.499 179.884 119.484 179.564 118.469C179.227 117.397 178.89 116.324 178.521 115.147Z" fill="#02A750"/>
<path fill-rule="evenodd" clip-rule="evenodd" d="M171.999 134.839C167.117 134.259 163.14 132.041 160.159 128.134C157.76 124.989 156.62 121.4 156.704 117.435C156.711 117.076 156.748 116.718 156.754 116.359C156.757 116.167 156.826 116.125 157.011 116.149C157.506 116.214 158.004 116.266 158.502 116.305C158.74 116.324 158.677 116.471 158.667 116.605C158.568 117.955 158.621 119.3 158.88 120.628C159.36 123.101 160.378 125.332 161.958 127.3C163.691 129.458 165.844 131.053 168.437 132.022C171.205 133.057 174.047 133.297 176.947 132.677C180.493 131.918 183.413 130.122 185.682 127.301C187.685 124.811 188.778 121.954 188.977 118.757C189.214 114.974 188.166 111.564 185.877 108.571C183.604 105.6 180.602 103.708 176.921 102.942C173.871 102.308 170.9 102.581 168.02 103.774C167.798 103.866 167.671 103.853 167.568 103.622C167.392 103.224 167.21 102.826 167.006 102.442C166.882 102.209 166.949 102.115 167.172 102.02C168.537 101.438 169.957 101.046 171.424 100.845C174.139 100.472 176.804 100.719 179.396 101.612C182.622 102.724 185.297 104.632 187.372 107.341C189.952 110.709 191.148 114.525 190.911 118.77C190.68 122.915 189.143 126.526 186.299 129.537C183.24 132.776 179.456 134.561 175.001 134.898C173.999 134.973 173.001 134.944 171.999 134.839Z" fill="#BAD333"/>
<path fill-rule="evenodd" clip-rule="evenodd" d="M175.25 104.585C180.095 105.261 183.653 107.748 185.863 112.141C185.986 112.385 185.949 112.494 185.699 112.598C185.345 112.747 184.996 112.916 184.668 113.114C184.372 113.293 184.23 113.263 184.074 112.928C183.307 111.283 182.184 109.916 180.754 108.798C176.824 105.729 171.136 105.652 167.126 108.637C164.259 110.772 162.705 113.64 162.472 117.204C162.122 122.555 165.818 127.613 171.048 128.817C175.803 129.911 179.744 128.477 182.84 124.716C182.986 124.537 183.071 124.497 183.257 124.662C183.591 124.96 183.942 125.244 184.303 125.509C184.518 125.668 184.485 125.785 184.338 125.968C181.884 129.012 178.724 130.775 174.819 131.065C168.776 131.515 163.371 127.972 161.28 122.269C158.869 115.692 162.27 108.096 168.789 105.495C170.866 104.666 173.011 104.341 175.25 104.585Z" fill="#74BC46"/>
<path fill-rule="evenodd" clip-rule="evenodd" d="M178.521 115.147C178.89 116.324 179.227 117.397 179.564 118.469C179.884 119.484 180.203 120.499 180.525 121.513C180.725 122.143 180.578 122.496 179.978 122.793C179.352 123.104 178.676 123.17 177.992 123.16C176.914 123.145 175.869 122.971 174.933 122.394C174.178 121.929 174.081 121.507 174.516 120.739C175.577 118.865 176.633 116.988 177.704 115.121C177.859 114.851 177.851 114.724 177.555 114.573C175.395 113.471 173.153 113.182 170.8 113.818C170.536 113.89 170.452 113.962 170.546 114.254C171.233 116.39 171.899 118.532 172.575 120.671C172.776 121.308 172.635 121.661 172.037 121.955C171.76 122.092 171.468 122.191 171.163 122.238C169.852 122.438 168.579 122.315 167.362 121.765C167.165 121.676 166.976 121.561 166.803 121.431C166.224 120.996 166.155 120.632 166.508 120.009C167.537 118.19 168.565 116.371 169.594 114.552C169.648 114.455 169.699 114.356 169.792 114.181C169.595 114.265 169.47 114.31 169.351 114.37C169.137 114.477 168.93 114.599 168.776 114.286C168.623 113.977 168.867 113.902 169.058 113.811C170.361 113.188 171.733 112.859 173.181 112.854C175.475 112.846 177.495 113.636 179.337 114.953C179.521 115.084 179.67 115.203 179.483 115.444C179.308 115.67 179.137 115.598 178.955 115.459C178.843 115.374 178.727 115.295 178.521 115.147ZM170.143 114.851C170.086 114.895 170.059 114.906 170.047 114.926C169.132 116.54 168.22 118.157 167.301 119.769C167.163 120.01 167.301 120.013 167.476 120.031C168.725 120.159 169.974 120.292 171.223 120.423C171.436 120.445 171.649 120.467 171.919 120.496C171.317 118.582 170.732 116.725 170.143 114.851ZM178.091 115.693C178.034 115.736 177.994 115.751 177.977 115.78C177.07 117.384 176.168 118.991 175.258 120.593C175.134 120.813 175.225 120.847 175.423 120.867C176.8 121.007 178.176 121.148 179.552 121.303C179.85 121.336 179.835 121.227 179.762 121.006C179.57 120.423 179.396 119.834 179.212 119.248C178.841 118.069 178.468 116.89 178.091 115.693Z" fill="#F3FAF6"/>
<path fill-rule="evenodd" clip-rule="evenodd" d="M170.143 114.851C170.732 116.725 171.317 118.582 171.919 120.496C171.649 120.467 171.436 120.445 171.223 120.423C169.974 120.292 168.725 120.159 167.476 120.031C167.301 120.013 167.163 120.01 167.301 119.769C168.22 118.157 169.132 116.54 170.047 114.926C170.058 114.906 170.086 114.895 170.143 114.851Z" fill="#04A650"/>
<path fill-rule="evenodd" clip-rule="evenodd" d="M178.091 115.693C178.468 116.89 178.841 118.069 179.212 119.248C179.396 119.834 179.57 120.423 179.762 121.007C179.835 121.227 179.85 121.336 179.552 121.303C178.176 121.148 176.8 121.007 175.423 120.867C175.225 120.847 175.134 120.813 175.258 120.593C176.168 118.991 177.07 117.384 177.977 115.78C177.994 115.751 178.034 115.736 178.091 115.693Z" fill="#04A650"/>
<path fill-rule="evenodd" clip-rule="evenodd" d="M176.65 61.0083C176.223 60.9443 175.928 60.5453 175.992 60.1183L176.016 59.9643C176.08 59.5373 176.479 59.2433 176.906 59.3073L183.925 60.3643C184.353 60.4283 184.648 60.8283 184.583 61.2553L184.56 61.4083C184.495 61.8363 184.097 62.1293 183.669 62.0653L176.65 61.0083Z" fill="#252528"/>
<path fill-rule="evenodd" clip-rule="evenodd" d="M188.474 61.8299C188.383 62.4339 187.82 62.8509 187.215 62.7589C186.612 62.6679 186.196 62.1039 186.286 61.5009C186.377 60.8959 186.941 60.4799 187.544 60.5719C188.149 60.6629 188.565 61.2259 188.474 61.8299Z" fill="#252528"/>
<path fill-rule="evenodd" clip-rule="evenodd" d="M143.498 88.036L142.478 87.883C142.102 87.826 141.844 87.475 141.9 87.099L143.31 77.742C143.366 77.366 143.717 77.106 144.094 77.163L145.112 77.316L143.498 88.036Z" fill="#252528"/>
<path fill-rule="evenodd" clip-rule="evenodd" d="M141.618 100.516L140.599 100.363C140.223 100.306 139.965 99.9545 140.021 99.5795L141.431 90.2215C141.487 89.8455 141.838 89.5865 142.214 89.6435L143.232 89.7965L141.618 100.516Z" fill="#252528"/>
<path d="M112 242.651L121.916 206.362C121.916 206.362 112 168.506 114.729 157.807C116.087 152.482 137.153 129.652 139.405 129.276C141.658 128.901 164.3 126.273 166.869 128.15C169.438 130.027 172.16 139.177 161.133 143.026C153.964 145.527 150.293 144.856 149.354 145.795C148.415 146.733 141.471 157.995 141.471 157.995C141.471 157.995 154.047 168.882 149.166 195.348" fill="#F2CBA8"/>
<path d="M201.164 162.127C201.164 162.127 194.195 165.6 193.116 167.993C189.647 175.685 193.68 179.537 197.763 180.523C201.845 181.508 201.445 179.39 205.784 176.843C212.26 173.042 218.448 167.551 215.462 160.867C213.553 156.595 207.24 154.142 203.008 152.939L201.164 162.127Z" fill="#F2CBA8"/>
<path d="M201.164 162.127C201.164 162.127 204.204 159.618 205.003 158.703C206.269 157.254 209.015 155.209 207.325 154.425C205.637 153.641 201.906 158.432 201.906 158.432L201.164 162.127Z" fill="#FFB490"/>
<path d="M213.42 148.447C214.738 146.161 214.843 141.723 212.274 139.183C208.978 135.923 201.656 137.91 197.278 141.574C191.446 146.455 190.072 153.976 196.45 158.01C200.389 160.501 204.89 155.538 206.7 154.722C210.144 153.173 212.031 150.855 213.42 148.447Z" fill="#F2CBA8"/>
<path d="M202.937 138.398C202.937 138.398 206.633 142.597 213.42 140.74C213.42 140.74 212.346 138.441 209.671 137.535C206.997 136.628 202.937 138.398 202.937 138.398Z" fill="#FFB490"/>
<path d="M202.368 128.444C203.562 121.678 207.553 119.159 211.855 119.406C216.159 119.653 220.39 124.798 219.544 129.807C218.696 134.815 214.178 140.529 207.87 138.516C203.102 136.996 201.799 131.665 202.368 128.444Z" fill="#F2CBA8"/>
<path d="M212.428 90.5116L211.842 111.409L208.722 115.117L212.428 90.5116Z" fill="#E79E5C"/>
<path fill-rule="evenodd" clip-rule="evenodd" d="M105 237L111.991 215.948C112.565 214.219 114.535 213.397 116.168 214.205L169.771 240.721C171.5 241.576 172.372 243.543 171.846 245.399L166 266L105 237Z" fill="#014F43"/>
<path d="M119.464 215.829L121.163 209.921L169.164 240.412L119.464 215.829Z" fill="#E79E5C"/>
</g>
<path opacity="0.5" fill-rule="evenodd" clip-rule="evenodd" d="M262 68C262 77.3886 254.389 85 245 85C235.611 85 228 77.3886 228 68C228 58.6106 235.611 51 245 51C254.389 51 262 58.6106 262 68Z" fill="#BBF0D3"/>
<path fill-rule="evenodd" clip-rule="evenodd" d="M261.917 57.2091C261.917 68.6461 252.646 77.9181 241.208 77.9181C229.771 77.9181 220.5 68.6461 220.5 57.2091C220.5 45.7711 229.771 36.5001 241.208 36.5001C252.646 36.5001 261.917 45.7711 261.917 57.2091Z" fill="white"/>
<path fill-rule="evenodd" clip-rule="evenodd" d="M249.291 60.6642C249.291 64.5752 246.12 67.7462 242.208 67.7462C238.297 67.7462 235.126 64.5752 235.126 60.6642C235.126 56.7522 241.498 46.2022 242.208 46.2022C242.919 46.2022 249.291 56.7522 249.291 60.6642Z" fill="#1868AB"/>
<path fill-rule="evenodd" clip-rule="evenodd" d="M242.208 64.3627C238.911 64.3627 235.992 61.6897 235.992 58.3927C235.992 55.0947 241.61 46.2027 242.208 46.2027C242.808 46.2027 248.428 55.0947 248.428 58.3927C248.428 61.6897 245.506 64.3627 242.208 64.3627Z" fill="#518DC0"/>
<path fill-rule="evenodd" clip-rule="evenodd" d="M237.287 49.3927C237.287 50.4037 236.468 51.2237 235.457 51.2237C234.446 51.2237 233.627 50.4037 233.627 49.3927C233.627 48.3817 234.446 47.5627 235.457 47.5627C236.468 47.5627 237.287 48.3817 237.287 49.3927Z" fill="#3393E3"/>
<path opacity="0.5" fill-rule="evenodd" clip-rule="evenodd" d="M286 132.417C286 142.911 277.494 151.417 267 151.417C256.507 151.417 248 142.911 248 132.417C248 121.923 256.507 113.417 267 113.417C277.494 113.417 286 121.923 286 132.417Z" fill="#BBF0D3"/>
<path fill-rule="evenodd" clip-rule="evenodd" d="M285.918 127.208C285.918 138.646 276.647 147.917 265.209 147.917C253.772 147.917 244.5 138.646 244.5 127.208C244.5 115.771 253.772 106.5 265.209 106.5C276.647 106.5 285.918 115.771 285.918 127.208Z" fill="white"/>
<path fill-rule="evenodd" clip-rule="evenodd" d="M273.062 136.726H257.356C255.699 136.726 254.356 135.383 254.356 133.726V120.692C254.356 119.035 255.699 117.692 257.356 117.692H273.062C274.718 117.692 276.062 119.035 276.062 120.692V133.726C276.062 135.383 274.718 136.726 273.062 136.726Z" fill="#518DC0"/>
<path fill-rule="evenodd" clip-rule="evenodd" d="M275.756 132.511H269.858C268.225 132.511 266.902 131.188 266.902 129.555V127.549C266.902 126.759 267.541 126.119 268.331 126.119H275.756V132.511Z" fill="#1868AB"/>
<path fill-rule="evenodd" clip-rule="evenodd" d="M277.472 130.711H270.652C268.854 130.711 267.397 129.253 267.397 127.455C267.397 125.657 268.854 124.2 270.652 124.2H277.472V130.711Z" fill="#FFC54F"/>
<path opacity="0.5" fill-rule="evenodd" clip-rule="evenodd" d="M231.894 210.539C232.934 219.869 226.212 228.275 216.883 229.315C207.552 230.355 199.146 223.634 198.106 214.304C197.066 204.975 203.787 196.568 213.117 195.528C222.447 194.488 230.854 201.209 231.894 210.539Z" fill="#BBF0D3"/>
<path fill-rule="evenodd" clip-rule="evenodd" d="M240.792 202.917C242.059 214.284 233.87 224.525 222.504 225.792C211.137 227.059 200.896 218.871 199.629 207.504C198.362 196.138 206.55 185.896 217.917 184.629C229.283 183.362 239.525 191.551 240.792 202.917Z" fill="white"/>
<path fill-rule="evenodd" clip-rule="evenodd" d="M229.981 198.45L221.67 194.037C221.52 193.957 221.345 193.933 221.177 193.971L211.999 196.033C211.706 196.098 211.486 196.339 211.447 196.636L210.43 204.2C209.273 212.805 218.115 216.565 218.204 216.602C218.261 216.627 218.322 216.642 218.381 216.65C218.443 216.659 218.505 216.66 218.566 216.651C218.663 216.639 228.182 215.346 229.338 206.741L230.355 199.177C230.395 198.88 230.247 198.591 229.981 198.45Z" fill="#1868AB"/>
<path fill-rule="evenodd" clip-rule="evenodd" d="M228.74 198.113L221.052 194.031C220.914 193.957 220.752 193.935 220.596 193.97L212.107 195.877C211.836 195.937 211.633 196.16 211.597 196.435L210.656 203.431C209.586 211.39 217.764 214.868 217.846 214.902C217.899 214.926 217.956 214.939 218.01 214.947C218.068 214.955 218.125 214.956 218.181 214.948C218.271 214.937 227.076 213.741 228.145 205.782L229.086 198.785C229.123 198.511 228.986 198.243 228.74 198.113Z" fill="#518DC0"/>
<path fill-rule="evenodd" clip-rule="evenodd" d="M218.528 208.069C218.261 208.033 218.007 207.906 217.813 207.691L215.693 205.329C215.261 204.847 215.301 204.107 215.783 203.676C216.263 203.244 217.003 203.285 217.435 203.765L218.825 205.314L222.962 202.077C223.47 201.677 224.206 201.768 224.604 202.276C225.003 202.785 224.913 203.521 224.404 203.919L219.406 207.831C219.148 208.033 218.831 208.11 218.528 208.069Z" fill="#EDF6FF"/>
<path opacity="0.5" fill-rule="evenodd" clip-rule="evenodd" d="M129 64.0004C129 73.9416 120.941 82 111 82C101.059 82 93 73.9416 93 64.0004C93 54.0584 101.059 46 111 46C120.941 46 129 54.0584 129 64.0004Z" fill="#BBF0D3"/>
<path fill-rule="evenodd" clip-rule="evenodd" d="M128.918 57.2091C128.918 68.6461 119.646 77.9171 108.209 77.9171C96.7718 77.9171 87.4998 68.6461 87.4998 57.2091C87.4998 45.7711 96.7718 36.5001 108.209 36.5001C119.646 36.5001 128.918 45.7711 128.918 57.2091Z" fill="white"/>
<path fill-rule="evenodd" clip-rule="evenodd" d="M104.361 46.2708H111.529C112.252 46.2708 112.736 47.0128 112.444 47.6728L109.551 54.2428C109.26 54.9038 109.744 55.6458 110.466 55.6458H113.955C114.775 55.6458 115.247 56.5788 114.76 57.2388L105.085 70.3808L106.297 61.9498C106.383 61.3468 105.916 60.8078 105.307 60.8078H101.695C101.06 60.8078 100.585 60.2218 100.717 59.5998L103.382 47.0628C103.481 46.6008 103.889 46.2708 104.361 46.2708Z" fill="#E07E26"/>
<path fill-rule="evenodd" clip-rule="evenodd" d="M103.337 47.0668C103.434 46.6031 103.843 46.2708 104.316 46.2708H111.541C112.262 46.2708 112.746 47.0096 112.458 47.6701L109.585 54.2664C109.297 54.9269 109.781 55.6658 110.502 55.6658H114.059L105.44 67.8229L106.395 60.3528C106.479 59.7708 106.028 59.2498 105.44 59.2498H100.799L103.337 47.0668Z" fill="#FFC54F"/>
<path opacity="0.5" fill-rule="evenodd" clip-rule="evenodd" d="M103.813 153.015C107.356 162.301 102.7 172.7 93.4142 176.242C84.1285 179.785 73.7288 175.128 70.187 165.844C66.6442 156.558 71.3001 146.158 80.5858 142.615C89.8715 139.074 100.27 143.729 103.813 153.015Z" fill="#BBF0D3"/>
<path fill-rule="evenodd" clip-rule="evenodd" d="M106.563 143.833C110.64 154.519 105.282 166.486 94.5962 170.562C83.9102 174.64 71.9422 169.281 67.8662 158.596C63.7892 147.91 69.1472 135.942 79.8332 131.865C90.5192 127.789 102.486 133.146 106.563 143.833Z" fill="white"/>
<path fill-rule="evenodd" clip-rule="evenodd" d="M94.581 149.11C93.831 148.332 92.729 148.034 91.708 148.334L82.213 151.117C81.192 151.417 80.426 152.261 80.214 153.322L78.663 161.119C78.57 161.589 78.592 162.08 78.727 162.54L79.189 164.117C79.554 165.359 80.841 166.08 82.059 165.722L99.725 160.543C100.942 160.186 101.637 158.885 101.272 157.642L100.81 156.065C100.675 155.605 100.429 155.179 100.097 154.834L94.581 149.11Z" fill="#00883E"/>
<path fill-rule="evenodd" clip-rule="evenodd" d="M93.9745 146.891C93.2245 146.113 92.1225 145.815 91.1015 146.115L81.6065 148.898C80.5855 149.198 79.8195 150.042 79.6075 151.103L78.0565 158.9C77.9635 159.37 77.9855 159.861 78.1205 160.321L78.5825 161.898C78.9475 163.14 80.2345 163.861 81.4525 163.503L99.1185 158.324C100.336 157.967 101.031 156.666 100.666 155.423L100.204 153.846C100.069 153.386 99.8225 152.96 99.4905 152.615L93.9745 146.891Z" fill="#00AB4E"/>
<path fill-rule="evenodd" clip-rule="evenodd" d="M98.7019 141.826C94.1899 139.246 89.0099 138.614 84.1169 140.049C79.2239 141.483 75.2049 144.812 72.8009 149.42C72.3769 150.231 72.6789 151.261 73.4729 151.715L76.8349 153.637C77.6259 154.088 78.6979 153.773 79.1199 152.967C79.7199 151.817 80.4829 150.792 81.3849 149.924C81.8379 149.495 82.0149 148.821 81.8529 148.283L81.3899 145.267C83.9769 143.531 86.1449 142.896 89.2309 142.968L90.4449 145.684C90.6239 146.297 91.1159 146.759 91.7389 146.893C92.9719 147.138 94.1679 147.59 95.2939 148.232C95.6889 148.459 96.1449 148.513 96.5799 148.386C97.0139 148.259 97.3689 147.967 97.5789 147.563L99.3749 144.121C99.7979 143.309 99.4959 142.28 98.7019 141.826Z" fill="#00883E"/>
<path fill-rule="evenodd" clip-rule="evenodd" d="M98.093 140.529C93.581 137.949 88.401 137.317 83.508 138.752C78.615 140.186 74.596 143.515 72.192 148.123C71.768 148.934 72.07 149.964 72.864 150.418L76.226 152.34C77.017 152.791 78.089 152.476 78.511 151.67C79.111 150.52 79.874 149.495 80.776 148.627C81.229 148.198 81.406 147.524 81.244 146.986L80.781 143.97C83.368 142.234 85.536 141.599 88.622 141.671L89.836 144.387C90.015 145 90.507 145.462 91.13 145.596C92.363 145.841 93.559 146.293 94.685 146.935C95.08 147.162 95.536 147.216 95.971 147.089C96.405 146.962 96.76 146.67 96.97 146.266L98.766 142.824C99.189 142.012 98.887 140.983 98.093 140.529Z" fill="#00AB4E"/>
<path fill-rule="evenodd" clip-rule="evenodd" d="M87.882 152.131C88.672 151.899 89.501 152.352 89.733 153.143C89.965 153.933 89.511 154.762 88.721 154.993C87.931 155.225 87.102 154.772 86.87 153.982C86.638 153.192 87.091 152.362 87.882 152.131Z" fill="#ECFAEF"/>
<path fill-rule="evenodd" clip-rule="evenodd" d="M92.1765 150.871C92.9665 150.64 93.7955 151.093 94.0275 151.883C94.2595 152.673 93.8055 153.503 93.0155 153.734C92.2255 153.966 91.3965 153.513 91.1645 152.723C90.9325 151.933 91.3855 151.102 92.1765 150.871Z" fill="#ECFAEF"/>
<path fill-rule="evenodd" clip-rule="evenodd" d="M83.5876 153.39C84.3776 153.159 85.2076 153.612 85.4386 154.402C85.6706 155.192 85.2166 156.021 84.4266 156.252C83.6366 156.485 82.8076 156.031 82.5756 155.241C82.3436 154.451 82.7976 153.621 83.5876 153.39Z" fill="#ECFAEF"/>
<path fill-rule="evenodd" clip-rule="evenodd" d="M89.1408 156.425C89.9318 156.194 90.7608 156.647 90.9918 157.437C91.2238 158.227 90.7708 159.056 89.9798 159.288C89.1898 159.52 88.3608 159.067 88.1288 158.276C87.8978 157.486 88.3508 156.656 89.1408 156.425Z" fill="#ECFAEF"/>
<path fill-rule="evenodd" clip-rule="evenodd" d="M93.4353 155.166C94.2253 154.934 95.0553 155.388 95.2863 156.178C95.5183 156.968 95.0643 157.797 94.2743 158.028C93.4843 158.26 92.6553 157.807 92.4233 157.017C92.1923 156.227 92.6453 155.397 93.4353 155.166Z" fill="#ECFAEF"/>
<path fill-rule="evenodd" clip-rule="evenodd" d="M84.8464 157.684C85.6374 157.453 86.4664 157.906 86.6984 158.696C86.9294 159.486 86.4764 160.316 85.6864 160.547C84.8954 160.779 84.0664 160.326 83.8344 159.536C83.6034 158.746 84.0564 157.915 84.8464 157.684Z" fill="#ECFAEF"/>
<circle cx="310" cy="192" r="48" fill="#BBF0D3"/>
</g>
<path opacity="0.3" fill-rule="evenodd" clip-rule="evenodd" d="M284.944 151.051C280.521 167.607 272.647 182.753 262.138 195.672C262.047 194.46 262 193.235 262 192C262 174.673 271.181 159.49 284.944 151.051Z" fill="#00AB4E"/>
<mask id="mask2_257_99738" style="mask-type:luminance" maskUnits="userSpaceOnUse" x="262" y="151" width="23" height="45">
<path fill-rule="evenodd" clip-rule="evenodd" d="M284.944 151.051C280.521 167.607 272.647 182.753 262.138 195.672C262.047 194.46 262 193.235 262 192C262 174.673 271.181 159.49 284.944 151.051Z" fill="white"/>
</mask>
<g mask="url(#mask2_257_99738)">
</g>
</svg>
