<svg width="48" height="48" viewBox="0 0 48 48" fill="none" xmlns="http://www.w3.org/2000/svg">
<circle cx="24" cy="24" r="24" fill="#F1F8EC"/>
<path fill-rule="evenodd" clip-rule="evenodd" d="M16.129 14.3387C16.129 12.7709 17.4 11.5 18.9677 11.5H28.1935C29.7613 11.5 31.0323 12.7709 31.0323 14.3387V34.2097C31.0323 35.7775 29.7613 37.0484 28.1935 37.0484H18.9677C17.4 37.0484 16.129 35.7775 16.129 34.2097V14.3387Z" fill="#1868AB"/>
<path fill-rule="evenodd" clip-rule="evenodd" d="M14 14.3387C14 12.7709 15.2709 11.5 16.8387 11.5H26.0645C27.6323 11.5 28.9032 12.7709 28.9032 14.3387V34.2097C28.9032 35.7775 27.6323 37.0484 26.0645 37.0484H16.8387C15.2709 37.0484 14 35.7775 14 34.2097V14.3387Z" fill="#5297D1"/>
<path fill-rule="evenodd" clip-rule="evenodd" d="M15.4194 15.3145C15.4194 13.9917 16.4917 12.9194 17.8145 12.9194L17.9032 12.9194C18.2952 12.9194 18.6129 13.2371 18.6129 13.629C18.6129 14.021 18.9306 14.3387 19.3226 14.3387H23.5806C23.9726 14.3387 24.2903 14.021 24.2903 13.629C24.2903 13.2371 24.6081 12.9194 25 12.9194H25.0887C26.4115 12.9194 27.4839 13.9917 27.4839 15.3145V32.686C27.4839 34.2537 26.2129 35.5247 24.6452 35.5247H18.2581C16.6903 35.5247 15.4194 34.2537 15.4194 32.686V15.3145Z" fill="white"/>
<path d="M35.5269 32.0806C35.5269 34.9552 33.1971 37.2849 30.3226 37.2849C27.448 37.2849 25.1183 34.9552 25.1183 32.0806C25.1183 29.2061 27.448 26.8763 30.3226 26.8763C33.1971 26.8763 35.5269 29.2061 35.5269 32.0806Z" fill="#00AB4E" stroke="white" stroke-width="0.946237"/>
<path fill-rule="evenodd" clip-rule="evenodd" d="M29.061 34.9194C28.8869 34.9194 28.7456 34.7763 28.7456 34.6V32.3645H27.7995C27.6784 32.3645 27.568 32.2943 27.515 32.1838C27.4626 32.0727 27.4771 31.9417 27.5528 31.8459L30.076 28.6517C30.1365 28.5764 30.2267 28.5323 30.3226 28.5323C30.4185 28.5323 30.5087 28.5764 30.5692 28.6517L33.0924 31.8459C33.1681 31.9417 33.1826 32.0727 33.1302 32.1838C33.0772 32.2943 32.9668 32.3645 32.8457 32.3645H31.8996V34.6C31.8996 34.7763 31.7583 34.9194 31.5842 34.9194H29.061Z" fill="white"/>
</svg>
