<svg width="19" height="18" viewBox="0 0 19 18" fill="none" xmlns="http://www.w3.org/2000/svg">
<path fill-rule="evenodd" clip-rule="evenodd" d="M3.88392 3.75C2.57588 3.75 1.5155 4.81038 1.5155 6.11842V11.8816C1.5155 13.1896 2.57588 14.25 3.88393 14.25H14.3017C15.6098 14.25 16.6701 13.1896 16.6701 11.8816V6.11842C16.6701 4.81038 15.6098 3.75 14.3017 3.75H3.88392ZM9.0928 12.2308C10.8548 12.2308 12.2833 10.7843 12.2833 9.00001C12.2833 7.21571 10.8548 5.76924 9.0928 5.76924C7.33077 5.76924 5.90235 7.21571 5.90235 9.00001C5.90235 10.7843 7.33077 12.2308 9.0928 12.2308Z" fill="#444444"/>
<mask id="mask0_1633_183036" style="mask-type:luminance" maskUnits="userSpaceOnUse" x="1" y="3" width="16" height="12">
<path fill-rule="evenodd" clip-rule="evenodd" d="M3.88392 3.75C2.57588 3.75 1.5155 4.81038 1.5155 6.11842V11.8816C1.5155 13.1896 2.57588 14.25 3.88393 14.25H14.3017C15.6098 14.25 16.6701 13.1896 16.6701 11.8816V6.11842C16.6701 4.81038 15.6098 3.75 14.3017 3.75H3.88392ZM9.0928 12.2308C10.8548 12.2308 12.2833 10.7843 12.2833 9.00001C12.2833 7.21571 10.8548 5.76924 9.0928 5.76924C7.33077 5.76924 5.90235 7.21571 5.90235 9.00001C5.90235 10.7843 7.33077 12.2308 9.0928 12.2308Z" fill="white"/>
</mask>
<g mask="url(#mask0_1633_183036)">
<rect width="18.1856" height="18" fill="#00AB4E"/>
</g>
</svg>
