<svg width="32" height="32" viewBox="0 0 32 32" fill="none" xmlns="http://www.w3.org/2000/svg">
<path fill-rule="evenodd" clip-rule="evenodd" d="M26.2718 18.6579C24.645 18.8474 4.95504 18.8474 3.32947 18.6579C2.47316 18.5586 1.87797 17.8559 2.02133 17.1016C2.21205 16.1062 2.5922 14.4145 3.35891 11.6398C4.26001 8.3751 4.89488 6.82527 5.26352 6.10322C5.46575 5.70738 5.86127 5.42243 6.34254 5.33733C7.36908 5.15424 22.2309 5.15424 23.2575 5.33733C23.7387 5.42243 24.1342 5.70738 24.3365 6.10322C24.7051 6.82527 25.34 8.3751 26.2411 11.6398C27.0078 14.4145 27.3892 16.1062 27.5787 17.1016C27.722 17.8559 27.1268 18.5586 26.2718 18.6579Z" fill="#CC9D3F"/>
<mask id="mask0_1633_182128" style="mask-type:luminance" maskUnits="userSpaceOnUse" x="2" y="5" width="26" height="14">
<path fill-rule="evenodd" clip-rule="evenodd" d="M26.2718 18.6579C24.645 18.8474 4.95504 18.8474 3.32947 18.6579C2.47316 18.5586 1.87797 17.8559 2.02133 17.1016C2.21205 16.1062 2.5922 14.4145 3.35891 11.6398C4.26001 8.3751 4.89488 6.82527 5.26352 6.10322C5.46575 5.70738 5.86127 5.42243 6.34254 5.33733C7.36908 5.15424 22.2309 5.15424 23.2575 5.33733C23.7387 5.42243 24.1342 5.70738 24.3365 6.10322C24.7051 6.82527 25.34 8.3751 26.2411 11.6398C27.0078 14.4145 27.3892 16.1062 27.5787 17.1016C27.722 17.8559 27.1268 18.5586 26.2718 18.6579Z" fill="white"/>
</mask>
<g mask="url(#mask0_1633_182128)">
<path fill-rule="evenodd" clip-rule="evenodd" d="M23.8718 17.8578C22.2449 18.0473 2.55502 18.0473 0.929443 17.8578C0.0731367 17.7585 -0.522054 17.0558 -0.378696 16.3015C-0.187979 15.3061 0.192175 13.6145 0.958882 10.8397C1.85999 7.57505 2.49486 6.02522 2.86349 5.30317C3.06573 4.90733 3.46124 4.62238 3.94251 4.53728C4.96906 4.35419 19.8309 4.35419 20.8574 4.53728C21.3387 4.62238 21.7342 4.90733 21.9365 5.30317C22.3051 6.02522 22.94 7.57505 23.8411 10.8397C24.6078 13.6145 24.9892 15.3061 25.1786 16.3015C25.322 17.0558 24.7268 17.7585 23.8718 17.8578Z" fill="#FFC54F"/>
</g>
<path d="M29.5 20.4C29.5 23.6588 26.8587 26.3 23.6 26.3C20.3412 26.3 17.7 23.6588 17.7 20.4C17.7 17.1412 20.3412 14.5 23.6 14.5C26.8587 14.5 29.5 17.1412 29.5 20.4Z" fill="#00AB4E" stroke="white"/>
<path fill-rule="evenodd" clip-rule="evenodd" d="M19.2 21.0315C19.1999 21.004 19.204 20.9763 19.2124 20.9492L19.2331 20.8997L20.8046 17.9524L20.8349 17.9061L20.8717 17.8676L20.909 17.8363C21.0268 17.7411 21.2261 17.6256 21.5189 17.5158C22.0482 17.3172 22.736 17.2 23.6 17.2C24.4639 17.2 25.1517 17.3172 25.681 17.5158C25.9738 17.6256 26.1731 17.7411 26.2909 17.8363L26.321 17.8614C26.337 17.8745 26.3517 17.8894 26.365 17.9061L26.3953 17.9524L27.9668 20.8997C27.9818 20.9279 27.9916 20.9573 27.9964 20.9869L28 21.0315C28 22.0083 27.1558 22.8 26.1142 22.8C25.118 22.8 24.3023 22.0757 24.2333 21.1579L24.2285 21.0315C24.2285 21.004 24.2325 20.9763 24.241 20.9492L24.2617 20.8997L25.7135 18.1788L25.5955 18.123C25.5512 18.1036 25.502 18.0835 25.4475 18.0631C24.9946 17.8932 24.386 17.7894 23.6 17.7894C22.8139 17.7894 22.2053 17.8932 21.7524 18.0631C21.6435 18.1039 21.5554 18.1434 21.4864 18.1788L22.9382 20.8997C22.9532 20.9279 22.963 20.9573 22.9678 20.9869L22.9714 21.0315C22.9714 22.0083 22.1272 22.8 21.0857 22.8C20.0894 22.8 19.2738 22.0757 19.2047 21.1579L19.2 21.0315ZM21.0857 18.7432L19.8656 21.031H22.3051L21.0857 18.7432ZM26.1142 18.7432L24.8942 21.031H27.3337L26.1142 18.7432Z" fill="white"/>
</svg>
