<svg width="48" height="48" viewBox="0 0 48 48" fill="none" xmlns="http://www.w3.org/2000/svg">
<circle cx="24" cy="24" r="24" fill="#F1F8EC"/>
<path fill-rule="evenodd" clip-rule="evenodd" d="M22.575 34.6584C21.7322 34.7559 11.531 34.7559 10.6888 34.6584C10.2451 34.6073 9.93678 34.2459 10.0111 33.858C10.1099 33.346 10.3068 32.476 10.704 31.0489C11.1709 29.3698 11.4998 28.5727 11.6908 28.2013C11.7956 27.9977 12.0005 27.8512 12.2498 27.8074C12.7817 27.7133 20.4815 27.7133 21.0133 27.8074C21.2627 27.8512 21.4676 27.9977 21.5724 28.2013C21.7633 28.5727 22.0923 29.3698 22.5591 31.0489C22.9563 32.476 23.154 33.346 23.2521 33.858C23.3264 34.2459 23.018 34.6073 22.575 34.6584Z" fill="#CC9D3F"/>
<mask id="mask0_1031_172778" style="mask-type:alpha" maskUnits="userSpaceOnUse" x="10" y="27" width="14" height="8">
<path fill-rule="evenodd" clip-rule="evenodd" d="M22.575 34.6584C21.7322 34.7559 11.531 34.7559 10.6888 34.6584C10.2451 34.6073 9.93678 34.2459 10.0111 33.858C10.1099 33.346 10.3068 32.476 10.704 31.0489C11.1709 29.3698 11.4998 28.5727 11.6908 28.2013C11.7956 27.9977 12.0005 27.8512 12.2498 27.8074C12.7817 27.7133 20.4815 27.7133 21.0133 27.8074C21.2627 27.8512 21.4676 27.9977 21.5724 28.2013C21.7633 28.5727 22.0923 29.3698 22.5591 31.0489C22.9563 32.476 23.154 33.346 23.2521 33.858C23.3264 34.2459 23.018 34.6073 22.575 34.6584Z" fill="white"/>
</mask>
<g mask="url(#mask0_1031_172778)">
<path fill-rule="evenodd" clip-rule="evenodd" d="M20.3645 33.9216C19.5216 34.0191 9.32046 34.0191 8.47826 33.9216C8.03462 33.8705 7.72625 33.5091 7.80052 33.1212C7.89933 32.6092 8.09629 31.7392 8.49351 30.3121C8.96037 28.633 9.28929 27.8359 9.48028 27.4645C9.58505 27.2609 9.78997 27.1144 10.0393 27.0706C10.5712 26.9764 18.271 26.9764 18.8028 27.0706C19.0521 27.1144 19.2571 27.2609 19.3618 27.4645C19.5528 27.8359 19.8817 28.633 20.3486 30.3121C20.7458 31.7392 20.9434 32.6092 21.0416 33.1212C21.1159 33.5091 20.8075 33.8705 20.3645 33.9216Z" fill="#FFC54F"/>
</g>
<path fill-rule="evenodd" clip-rule="evenodd" d="M37.3119 34.6584C36.469 34.7559 26.2678 34.7559 25.4256 34.6584C24.982 34.6073 24.6736 34.2459 24.7479 33.858C24.8467 33.346 25.0437 32.476 25.4409 31.0489C25.9077 29.3698 26.2367 28.5727 26.4276 28.2013C26.5324 27.9977 26.7373 27.8512 26.9867 27.8074C27.5185 27.7133 35.2183 27.7133 35.7502 27.8074C35.9995 27.8512 36.2044 27.9977 36.3092 28.2013C36.5002 28.5727 36.8291 29.3698 37.296 31.0489C37.6932 32.476 37.8908 33.346 37.9889 33.858C38.0632 34.2459 37.7549 34.6073 37.3119 34.6584Z" fill="#CC9D3F"/>
<mask id="mask1_1031_172778" style="mask-type:alpha" maskUnits="userSpaceOnUse" x="24" y="27" width="14" height="8">
<path fill-rule="evenodd" clip-rule="evenodd" d="M37.3119 34.6584C36.469 34.7559 26.2678 34.7559 25.4256 34.6584C24.982 34.6073 24.6736 34.2459 24.7479 33.858C24.8467 33.346 25.0437 32.476 25.4409 31.0489C25.9077 29.3698 26.2367 28.5727 26.4276 28.2013C26.5324 27.9977 26.7373 27.8512 26.9867 27.8074C27.5185 27.7133 35.2183 27.7133 35.7502 27.8074C35.9995 27.8512 36.2044 27.9977 36.3092 28.2013C36.5002 28.5727 36.8291 29.3698 37.296 31.0489C37.6932 32.476 37.8908 33.346 37.9889 33.858C38.0632 34.2459 37.7549 34.6073 37.3119 34.6584Z" fill="white"/>
</mask>
<g mask="url(#mask1_1031_172778)">
<path fill-rule="evenodd" clip-rule="evenodd" d="M35.1014 33.9216C34.2585 34.0191 24.0573 34.0191 23.2151 33.9216C22.7715 33.8705 22.4631 33.5091 22.5374 33.1212C22.6362 32.6092 22.8332 31.7392 23.2304 30.3121C23.6972 28.633 24.0262 27.8359 24.2171 27.4645C24.3219 27.2609 24.5268 27.1144 24.7762 27.0706C25.308 26.9764 33.0078 26.9764 33.5397 27.0706C33.789 27.1144 33.9939 27.2609 34.0987 27.4645C34.2897 27.8359 34.6186 28.633 35.0855 30.3121C35.4827 31.7392 35.6803 32.6092 35.7784 33.1212C35.8527 33.5091 35.5444 33.8705 35.1014 33.9216Z" fill="#FFC54F"/>
</g>
<path fill-rule="evenodd" clip-rule="evenodd" d="M29.9435 25.8163C29.1006 25.9138 18.8994 25.9138 18.0572 25.8163C17.6136 25.7652 17.3052 25.4038 17.3795 25.0159C17.4783 24.5039 17.6752 23.6339 18.0725 22.2068C18.5393 20.5277 18.8682 19.7306 19.0592 19.3592C19.164 19.1556 19.3689 19.0091 19.6183 18.9653C20.1501 18.8711 27.8499 18.8711 28.3817 18.9653C28.6311 19.0091 28.836 19.1556 28.9408 19.3592C29.1318 19.7306 29.4607 20.5277 29.9275 22.2068C30.3248 23.6339 30.5224 24.5039 30.6205 25.0159C30.6948 25.4038 30.3864 25.7652 29.9435 25.8163Z" fill="#CC9D3F"/>
<mask id="mask2_1031_172778" style="mask-type:alpha" maskUnits="userSpaceOnUse" x="17" y="18" width="14" height="8">
<path fill-rule="evenodd" clip-rule="evenodd" d="M29.9435 25.8163C29.1006 25.9138 18.8994 25.9138 18.0572 25.8163C17.6136 25.7652 17.3052 25.4038 17.3795 25.0159C17.4783 24.5039 17.6752 23.6339 18.0725 22.2068C18.5393 20.5277 18.8682 19.7306 19.0592 19.3592C19.164 19.1556 19.3689 19.0091 19.6183 18.9653C20.1501 18.8711 27.8499 18.8711 28.3817 18.9653C28.6311 19.0091 28.836 19.1556 28.9408 19.3592C29.1318 19.7306 29.4607 20.5277 29.9275 22.2068C30.3248 23.6339 30.5224 24.5039 30.6205 25.0159C30.6948 25.4038 30.3864 25.7652 29.9435 25.8163Z" fill="white"/>
</mask>
<g mask="url(#mask2_1031_172778)">
<path fill-rule="evenodd" clip-rule="evenodd" d="M27.7329 25.0794C26.8901 25.1769 16.6889 25.1769 15.8467 25.0794C15.403 25.0283 15.0947 24.6669 15.169 24.279C15.2678 23.767 15.4647 22.897 15.8619 21.4699C16.3288 19.7908 16.6577 18.9937 16.8487 18.6223C16.9535 18.4188 17.1584 18.2722 17.4077 18.2284C17.9396 18.1343 25.6394 18.1343 26.1712 18.2284C26.4206 18.2722 26.6255 18.4188 26.7303 18.6223C26.9212 18.9937 27.2502 19.7908 27.717 21.4699C28.1142 22.897 28.3119 23.767 28.41 24.279C28.4843 24.6669 28.1759 25.0283 27.7329 25.0794Z" fill="#FFC54F"/>
</g>
<path d="M29.3744 23.5476L29.374 23.5474C28.1808 22.8467 27.2837 21.6996 26.9063 20.3376L26.9058 20.336C26.7778 19.8798 26.7105 19.3948 26.7105 18.8947C26.7105 15.9144 29.1242 13.5 32.1053 13.5C35.0863 13.5 37.5 15.9144 37.5 18.8947C37.5 21.8751 35.0863 24.2895 32.1053 24.2895C31.1065 24.2895 30.1772 24.0199 29.3744 23.5476Z" fill="#E07E26" stroke="white"/>
<path fill-rule="evenodd" clip-rule="evenodd" d="M32.1052 16.6842V21.1053V16.6842Z" fill="#E07E26"/>
<path d="M32.1052 16.6842V21.1053" stroke="white" stroke-width="2" stroke-linecap="round"/>
<path fill-rule="evenodd" clip-rule="evenodd" d="M34.3157 18.8947H29.8947H34.3157Z" fill="#E07E26"/>
<path d="M34.3157 18.8947H29.8947" stroke="white" stroke-width="2" stroke-linecap="round"/>
</svg>
