<svg width="32" height="32" viewBox="0 0 32 32" fill="none" xmlns="http://www.w3.org/2000/svg">
<path fill-rule="evenodd" clip-rule="evenodd" d="M14.575 26.6584C13.7322 26.7559 3.53098 26.7559 2.68879 26.6584C2.24514 26.6074 1.93678 26.2459 2.01105 25.858C2.10986 25.346 2.30681 24.476 2.70404 23.0489C3.17089 21.3698 3.49982 20.5727 3.6908 20.2014C3.79558 19.9978 4.00049 19.8512 4.24983 19.8074C4.78168 19.7133 12.4815 19.7133 13.0133 19.8074C13.2627 19.8512 13.4676 19.9978 13.5724 20.2014C13.7633 20.5727 14.0923 21.3698 14.5591 23.0489C14.9563 24.476 15.154 25.346 15.2521 25.858C15.3264 26.2459 15.018 26.6074 14.575 26.6584Z" fill="#CC9D3F"/>
<mask id="mask0_1633_182142" style="mask-type:luminance" maskUnits="userSpaceOnUse" x="2" y="19" width="14" height="8">
<path fill-rule="evenodd" clip-rule="evenodd" d="M14.575 26.6584C13.7322 26.7559 3.53098 26.7559 2.68879 26.6584C2.24514 26.6074 1.93678 26.2459 2.01105 25.858C2.10986 25.346 2.30681 24.476 2.70404 23.0489C3.17089 21.3698 3.49982 20.5727 3.6908 20.2014C3.79558 19.9978 4.00049 19.8512 4.24983 19.8074C4.78168 19.7133 12.4815 19.7133 13.0133 19.8074C13.2627 19.8512 13.4676 19.9978 13.5724 20.2014C13.7633 20.5727 14.0923 21.3698 14.5591 23.0489C14.9563 24.476 15.154 25.346 15.2521 25.858C15.3264 26.2459 15.018 26.6074 14.575 26.6584Z" fill="white"/>
</mask>
<g mask="url(#mask0_1633_182142)">
<path fill-rule="evenodd" clip-rule="evenodd" d="M12.3645 25.9217C11.5217 26.0192 1.32047 26.0192 0.478276 25.9217C0.0346308 25.8707 -0.273733 25.5092 -0.19946 25.1213C-0.100651 24.6094 0.0963034 23.7393 0.493528 22.3122C0.960384 20.6331 1.28931 19.836 1.48029 19.4647C1.58507 19.2611 1.78998 19.1145 2.03932 19.0707C2.57117 18.9766 10.271 18.9766 10.8028 19.0707C11.0522 19.1145 11.2571 19.2611 11.3618 19.4647C11.5528 19.836 11.8818 20.6331 12.3486 22.3122C12.7458 23.7393 12.9435 24.6094 13.0416 25.1213C13.1159 25.5092 12.8075 25.8707 12.3645 25.9217Z" fill="#FFC54F"/>
</g>
<path fill-rule="evenodd" clip-rule="evenodd" d="M29.3119 26.6584C28.469 26.7559 18.2678 26.7559 17.4256 26.6584C16.982 26.6074 16.6736 26.2459 16.7479 25.858C16.8467 25.346 17.0436 24.476 17.4409 23.0489C17.9077 21.3698 18.2366 20.5727 18.4276 20.2014C18.5324 19.9978 18.7373 19.8512 18.9867 19.8074C19.5185 19.7133 27.2183 19.7133 27.7501 19.8074C27.9995 19.8512 28.2044 19.9978 28.3092 20.2014C28.5002 20.5727 28.8291 21.3698 29.2959 23.0489C29.6932 24.476 29.8908 25.346 29.9889 25.858C30.0632 26.2459 29.7548 26.6074 29.3119 26.6584Z" fill="#CC9D3F"/>
<mask id="mask1_1633_182142" style="mask-type:luminance" maskUnits="userSpaceOnUse" x="16" y="19" width="14" height="8">
<path fill-rule="evenodd" clip-rule="evenodd" d="M29.3119 26.6584C28.469 26.7559 18.2678 26.7559 17.4256 26.6584C16.982 26.6074 16.6736 26.2459 16.7479 25.858C16.8467 25.346 17.0436 24.476 17.4409 23.0489C17.9077 21.3698 18.2366 20.5727 18.4276 20.2014C18.5324 19.9978 18.7373 19.8512 18.9867 19.8074C19.5185 19.7133 27.2183 19.7133 27.7501 19.8074C27.9995 19.8512 28.2044 19.9978 28.3092 20.2014C28.5002 20.5727 28.8291 21.3698 29.2959 23.0489C29.6932 24.476 29.8908 25.346 29.9889 25.858C30.0632 26.2459 29.7548 26.6074 29.3119 26.6584Z" fill="white"/>
</mask>
<g mask="url(#mask1_1633_182142)">
<path fill-rule="evenodd" clip-rule="evenodd" d="M27.1013 25.9217C26.2585 26.0192 16.0573 26.0192 15.2151 25.9217C14.7714 25.8707 14.4631 25.5092 14.5374 25.1213C14.6362 24.6094 14.8331 23.7393 15.2303 22.3122C15.6972 20.6331 16.0261 19.836 16.2171 19.4647C16.3219 19.2611 16.5268 19.1145 16.7761 19.0707C17.308 18.9766 25.0078 18.9766 25.5396 19.0707C25.789 19.1145 25.9939 19.2611 26.0987 19.4647C26.2896 19.836 26.6186 20.6331 27.0854 22.3122C27.4826 23.7393 27.6803 24.6094 27.7784 25.1213C27.8527 25.5092 27.5443 25.8707 27.1013 25.9217Z" fill="#FFC54F"/>
</g>
<path fill-rule="evenodd" clip-rule="evenodd" d="M21.9434 17.8164C21.1006 17.9139 10.8994 17.9139 10.0572 17.8164C9.61355 17.7653 9.30519 17.4039 9.37946 17.016C9.47827 16.504 9.67522 15.634 10.0724 14.2069C10.5393 12.5278 10.8682 11.7307 11.0592 11.3593C11.164 11.1557 11.3689 11.0092 11.6182 10.9654C12.1501 10.8712 19.8499 10.8712 20.3817 10.9654C20.6311 11.0092 20.836 11.1557 20.9408 11.3593C21.1318 11.7307 21.4607 12.5278 21.9275 14.2069C22.3248 15.634 22.5224 16.504 22.6205 17.016C22.6948 17.4039 22.3864 17.7653 21.9434 17.8164Z" fill="#CC9D3F"/>
<mask id="mask2_1633_182142" style="mask-type:luminance" maskUnits="userSpaceOnUse" x="9" y="10" width="14" height="8">
<path fill-rule="evenodd" clip-rule="evenodd" d="M21.9434 17.8164C21.1006 17.9139 10.8994 17.9139 10.0572 17.8164C9.61355 17.7653 9.30519 17.4039 9.37946 17.016C9.47827 16.504 9.67522 15.634 10.0724 14.2069C10.5393 12.5278 10.8682 11.7307 11.0592 11.3593C11.164 11.1557 11.3689 11.0092 11.6182 10.9654C12.1501 10.8712 19.8499 10.8712 20.3817 10.9654C20.6311 11.0092 20.836 11.1557 20.9408 11.3593C21.1318 11.7307 21.4607 12.5278 21.9275 14.2069C22.3248 15.634 22.5224 16.504 22.6205 17.016C22.6948 17.4039 22.3864 17.7653 21.9434 17.8164Z" fill="white"/>
</mask>
<g mask="url(#mask2_1633_182142)">
<path fill-rule="evenodd" clip-rule="evenodd" d="M19.7329 17.0797C18.8901 17.1772 8.68888 17.1772 7.84668 17.0797C7.40304 17.0286 7.09468 16.6672 7.16895 16.2793C7.26776 15.7673 7.46471 14.8973 7.86194 13.4702C8.32879 11.7911 8.65771 10.994 8.8487 10.6226C8.95348 10.419 9.15839 10.2725 9.40773 10.2287C9.93958 10.1345 17.6394 10.1345 18.1712 10.2287C18.4206 10.2725 18.6255 10.419 18.7303 10.6226C18.9212 10.994 19.2502 11.7911 19.717 13.4702C20.1142 14.8973 20.3119 15.7673 20.41 16.2793C20.4843 16.6672 20.1759 17.0286 19.7329 17.0797Z" fill="#FFC54F"/>
</g>
<path d="M20.6133 16.4886L20.613 16.4884C19.308 15.7221 18.3269 14.4676 17.9141 12.978L17.9136 12.9764C17.7735 12.4773 17.7 11.9468 17.7 11.4C17.7 8.14055 20.3397 5.5 23.6 5.5C26.8603 5.5 29.5 8.14055 29.5 11.4C29.5 14.6594 26.8603 17.3 23.6 17.3C22.5077 17.3 21.4914 17.0052 20.6133 16.4886Z" fill="#00AB4E" stroke="white"/>
<path fill-rule="evenodd" clip-rule="evenodd" d="M23.6 9V13.8V9Z" fill="#00AB4E"/>
<path d="M23.6 9V13.8" stroke="white" stroke-width="1.5" stroke-linecap="round"/>
<path fill-rule="evenodd" clip-rule="evenodd" d="M26 11.3999H21.2H26Z" fill="#00AB4E"/>
<path d="M26 11.3999H21.2" stroke="white" stroke-width="1.5" stroke-linecap="round"/>
</svg>
