<svg width="32" height="32" viewBox="0 0 32 32" fill="none" xmlns="http://www.w3.org/2000/svg">
<path fill-rule="evenodd" clip-rule="evenodd" d="M26.2718 27.0579C24.645 27.2474 4.95504 27.2474 3.32947 27.0579C2.47316 26.9586 1.87797 26.2559 2.02133 25.5016C2.21205 24.5062 2.5922 22.8145 3.35891 20.0398C4.26001 16.7751 4.89488 15.2253 5.26352 14.5032C5.46575 14.1074 5.86127 13.8224 6.34254 13.7373C7.36908 13.5542 22.2309 13.5542 23.2575 13.7373C23.7387 13.8224 24.1342 14.1074 24.3365 14.5032C24.7051 15.2253 25.34 16.7751 26.2411 20.0398C27.0078 22.8145 27.3892 24.5062 27.5787 25.5016C27.722 26.2559 27.1268 26.9586 26.2718 27.0579Z" fill="#CC9D3F"/>
<mask id="mask0_1633_182164" style="mask-type:luminance" maskUnits="userSpaceOnUse" x="2" y="13" width="26" height="15">
<path fill-rule="evenodd" clip-rule="evenodd" d="M26.2718 27.0579C24.645 27.2474 4.95504 27.2474 3.32947 27.0579C2.47316 26.9586 1.87797 26.2559 2.02133 25.5016C2.21205 24.5062 2.5922 22.8145 3.35891 20.0398C4.26001 16.7751 4.89488 15.2253 5.26352 14.5032C5.46575 14.1074 5.86127 13.8224 6.34254 13.7373C7.36908 13.5542 22.2309 13.5542 23.2575 13.7373C23.7387 13.8224 24.1342 14.1074 24.3365 14.5032C24.7051 15.2253 25.34 16.7751 26.2411 20.0398C27.0078 22.8145 27.3892 24.5062 27.5787 25.5016C27.722 26.2559 27.1268 26.9586 26.2718 27.0579Z" fill="white"/>
</mask>
<g mask="url(#mask0_1633_182164)">
<path fill-rule="evenodd" clip-rule="evenodd" d="M23.8718 26.2577C22.2449 26.4473 2.55502 26.4473 0.929443 26.2577C0.0731367 26.1585 -0.522054 25.4558 -0.378696 24.7015C-0.187979 23.7061 0.192175 22.0144 0.958882 19.2397C1.85999 15.975 2.49486 14.4252 2.86349 13.7031C3.06573 13.3073 3.46124 13.0223 3.94251 12.9372C4.96906 12.7541 19.8309 12.7541 20.8574 12.9372C21.3387 13.0223 21.7342 13.3073 21.9365 13.7031C22.3051 14.4252 22.94 15.975 23.8411 19.2397C24.6078 22.0144 24.9892 23.7061 25.1786 24.7015C25.322 25.4558 24.7268 26.1585 23.8718 26.2577Z" fill="#FFC54F"/>
</g>
<path d="M20.6133 16.2886L20.613 16.2884C19.308 15.5221 18.3269 14.2676 17.9141 12.778L17.9136 12.7764C17.7735 12.2773 17.7 11.7468 17.7 11.2C17.7 7.94054 20.3397 5.29999 23.6 5.29999C26.8603 5.29999 29.5 7.94054 29.5 11.2C29.5 14.4594 26.8603 17.1 23.6 17.1C22.5077 17.1 21.4914 16.8051 20.6133 16.2886Z" fill="#E07E26" stroke="white"/>
<path d="M23.6 7.99997V14.0115" stroke="white" stroke-width="1.5" stroke-linecap="round"/>
<path d="M21.2 10.4L23.6 7.99997L26 10.4" stroke="white" stroke-width="1.5" stroke-linecap="round" stroke-linejoin="round"/>
</svg>
