<svg width="48" height="48" viewBox="0 0 48 48" fill="none" xmlns="http://www.w3.org/2000/svg">
<circle cx="24" cy="24" r="24" fill="#F1F8EC"/>
<path fill-rule="evenodd" clip-rule="evenodd" d="M15 12.3333C15 11.0447 16.0447 10 17.3333 10H31.3333C32.622 10 33.6667 11.0447 33.6667 12.3333V35.6667C33.6667 36.9553 32.622 38 31.3333 38H17.3333C16.0447 38 15 36.9553 15 35.6667V12.3333Z" fill="#CC9D3F"/>
<mask id="mask0_1031_172788" style="mask-type:luminance" maskUnits="userSpaceOnUse" x="15" y="10" width="19" height="28">
<path fill-rule="evenodd" clip-rule="evenodd" d="M15 12.3333C15 11.0447 16.0447 10 17.3333 10H31.3333C32.622 10 33.6667 11.0447 33.6667 12.3333V35.6667C33.6667 36.9553 32.622 38 31.3333 38H17.3333C16.0447 38 15 36.9553 15 35.6667V12.3333Z" fill="white"/>
</mask>
<g mask="url(#mask0_1031_172788)">
<rect x="12.6667" y="10" width="18.6667" height="28" rx="2.33333" fill="#FFC54F"/>
<path fill-rule="evenodd" clip-rule="evenodd" d="M22.5155 14.108L19.3456 16.498C18.9577 16.7902 18.7947 17.31 18.9432 17.7839L20.1536 21.6508C20.3021 22.1247 20.7277 22.4444 21.2076 22.4444H25.1257C25.6056 22.4444 26.0312 22.1247 26.1798 21.6508L27.3901 17.7839C27.5386 17.31 27.3757 16.7902 26.9878 16.498L23.8178 14.108C23.4299 13.8158 22.9034 13.8158 22.5155 14.108Z" fill="#CC9D3F"/>
<rect x="18.5" y="26.3333" width="9.33333" height="1.94444" rx="0.972222" fill="#CC9D3F"/>
<rect x="18.5" y="31" width="9.33333" height="1.94444" rx="0.972222" fill="#CC9D3F"/>
</g>
</svg>
