<svg width="24" height="24" viewBox="0 0 24 24" fill="none" xmlns="http://www.w3.org/2000/svg">
<path fill-rule="evenodd" clip-rule="evenodd" d="M22.1209 13.7714L20.9935 13.8431L21.0014 14.5583L21.0026 15.021L20.9976 15.9894C20.976 18.0317 20.8858 19.7096 20.7475 20.9897C20.6028 22.4254 19.5729 23.5856 18.2135 23.7579C17.3635 23.8621 16.3236 23.9451 15.0966 23.9981C14.0079 24.0461 13.0838 23.2148 13.0055 22.1435L13.0001 21.996V18.1719C13.0001 17.6139 12.6325 17.1364 12.1752 17.0594C11.5944 16.9615 11.0684 17.3756 11.0049 17.9365L10.9985 18.0506V21.996C10.9985 23.1374 10.0402 24.0483 8.90287 23.9982C7.67499 23.9451 6.63513 23.8621 5.78104 23.7574C4.42575 23.5856 3.39579 22.4254 3.25192 20.9969L3.19131 20.3755C3.0773 19.0773 3.00738 17.4485 2.9973 15.5116L2.99726 14.5583L3.00451 13.8431L2.13644 13.7894L1.87768 13.7714C0.157369 13.6481 -0.606391 11.583 0.550681 10.3666L0.661188 10.2584L9.93413 1.80363C11.0576 0.776895 12.7444 0.734114 13.9141 1.6746L14.0636 1.80285L23.3376 10.2586C24.6505 11.4561 23.8943 13.6444 22.1209 13.7714ZM21.993 11.7687L21.998 11.7528L21.9899 11.7363L12.7153 3.27997C12.3384 2.93551 11.7851 2.90901 11.3804 3.2011L11.2825 3.28075L2.00885 11.7362C1.99342 11.7503 2.00205 11.7752 2.02076 11.7765L2.81588 11.8285C3.19661 11.8512 3.61473 11.8735 4.07386 11.8955C4.61902 11.9216 5.04256 12.38 5.02556 12.9255C5.00985 13.4295 5.00038 13.9795 4.99722 14.5703L4.99603 15.021C4.99603 17.4379 5.0882 19.3738 5.2411 20.7893C5.29598 21.334 5.642 21.7238 6.02846 21.7728C6.82422 21.8703 7.81202 21.9491 8.99008 22.0001L8.99849 21.996V18.0506C8.99849 16.2027 10.661 14.7759 12.5074 15.0872C13.9094 15.3232 14.9169 16.5684 14.9952 17.993L15.0001 18.1719V21.996L15.0094 22C16.1866 21.9491 17.1744 21.8703 17.966 21.7733C18.3566 21.7238 18.7027 21.334 18.7583 20.7821C18.9104 19.3738 19.0026 17.4379 19.0026 15.021L18.9979 14.1349C18.9931 13.7074 18.9848 13.3035 18.9731 12.9255C18.9561 12.38 19.3796 11.9216 19.9248 11.8955L21.1827 11.8285L21.9779 11.7765L21.993 11.7687Z" fill="#58585B"/>
</svg>
