<svg width="360" height="240" viewBox="0 0 360 240" fill="none" xmlns="http://www.w3.org/2000/svg">
<mask id="mask0_257_99786" style="mask-type:luminance" maskUnits="userSpaceOnUse" x="0" y="0" width="360" height="240">
<rect width="360" height="240" fill="white"/>
</mask>
<g mask="url(#mask0_257_99786)">
<circle cx="4" cy="136" r="81" fill="#BBF0D3"/>
<circle cx="355" cy="89" r="87" fill="#E5EFAC"/>
</g>
<path d="M167.154 94.259L171.05 125.005" stroke="white" stroke-linecap="round"/>
<path d="M239.694 55.0584L248.582 20.0749" stroke="white" stroke-linecap="round"/>
<circle cx="120" cy="120" r="120" transform="matrix(-1 0 0 1 294.605 0)" fill="#EDFFF5"/>
<mask id="mask1_257_99786" style="mask-type:luminance" maskUnits="userSpaceOnUse" x="54" y="0" width="241" height="240">
<circle cx="120" cy="120" r="120" transform="matrix(-1 0 0 1 294.605 0)" fill="white"/>
</mask>
<g mask="url(#mask1_257_99786)">
<path opacity="0.5" fill-rule="evenodd" clip-rule="evenodd" d="M237.209 186.512L285.209 33.836L194.522 -16L35.7185 33.836L122.209 187.566L237.209 186.512Z" fill="#BBF0D3"/>
<path d="M170.709 46.5V99.5" stroke="#D4F7E4" stroke-linecap="round"/>
<path d="M220.209 25L214.709 55.5" stroke="white" stroke-linecap="round"/>
<path d="M97.709 95.3429L85.2128 61.4801" stroke="white" stroke-linecap="round"/>
<path fill-rule="evenodd" clip-rule="evenodd" d="M285.209 186.162C285.209 186.162 194.751 201.14 149.789 211.333C104.827 221.526 49.5688 249.84 49.5688 249.84L17.6024 211C17.6024 211 54.6047 190.341 81.2095 185.172C107.814 180.004 230.939 177.226 230.939 177.226L285.209 186.162Z" fill="#BBF0D3"/>
<path fill-rule="evenodd" clip-rule="evenodd" d="M210.987 61.9841C206.866 63.5084 203.967 67.2375 203.508 71.6081L186.265 183.795C185.674 187.643 188.553 191.153 192.442 191.324L235.171 193.209C243.72 193.586 250.996 187.048 251.532 178.508L259.53 51C259.82 46.0469 252.925 40.7695 248.273 42.4904L210.987 61.9841Z" fill="#252528"/>
<path fill-rule="evenodd" clip-rule="evenodd" d="M203.508 58.4966C199.387 60.0209 196.488 63.75 196.029 68.1207L185.672 180.502C185.314 184.389 188.418 187.723 192.321 187.642L240.631 186.642C244.597 185.187 247.322 181.52 247.568 177.302L255.049 49.7125C255.34 44.7594 250.45 41.1383 245.798 42.8592L203.508 58.4966Z" fill="#58585B"/>
<path fill-rule="evenodd" clip-rule="evenodd" d="M246.005 46.7084C248.993 45.7359 252.021 48.0745 251.837 51.2109L244.521 176.388C244.363 179.086 242.919 180.982 240.386 181.92L190.378 182.856C188.421 183.579 187.08 179.343 187.289 177.268L197.249 70.6364C197.668 66.601 200.346 63.1554 204.144 61.7476L208.708 60.0695L210.639 59.346L210.66 59.3425C211.546 59.1872 212.738 59.6316 213.307 60.3301L213.784 60.9135C214.048 61.2358 214.486 61.3579 214.871 61.221L229.018 56.0461C229.467 55.8875 229.852 55.5832 230.129 55.187L232.359 52.0176C232.792 51.4011 233.404 50.9314 234.11 50.6715L236.267 49.8763L246.005 46.7084Z" fill="white"/>
<mask id="mask2_257_99786" style="mask-type:luminance" maskUnits="userSpaceOnUse" x="187" y="46" width="65" height="137">
<path fill-rule="evenodd" clip-rule="evenodd" d="M246.005 46.7084C248.993 45.7359 252.021 48.0745 251.837 51.2109L244.521 176.388C244.363 179.086 242.919 180.982 240.386 181.92L190.378 182.856C188.421 183.579 187.08 179.343 187.289 177.268L197.249 70.6364C197.668 66.601 200.346 63.1554 204.144 61.7476L208.708 60.0695L210.639 59.346L210.66 59.3425C211.546 59.1872 212.738 59.6316 213.307 60.3301L213.784 60.9135C214.048 61.2358 214.486 61.3579 214.871 61.221L229.018 56.0461C229.467 55.8875 229.852 55.5832 230.129 55.187L232.359 52.0176C232.792 51.4011 233.404 50.9314 234.11 50.6715L236.267 49.8763L246.005 46.7084Z" fill="white"/>
</mask>
<g mask="url(#mask2_257_99786)">
<path fill-rule="evenodd" clip-rule="evenodd" d="M196.173 89L247.484 133.834L246.751 151.651L194.874 103.153L196.173 89Z" fill="#E4E5E6"/>
<path fill-rule="evenodd" clip-rule="evenodd" d="M196.173 62L249.243 107.068L247.484 125.038L194.874 76.153L196.173 62Z" fill="#E4E5E6"/>
<path opacity="0.3" fill-rule="evenodd" clip-rule="evenodd" d="M247.484 171.431L247.484 166.313L236.661 150.618L230.047 148.34L220.209 130.979L211.239 128.652C211.239 128.652 217.619 124.978 220.747 117.298C223.875 109.618 224.089 100.241 224.089 100.241L231.939 100.992L220.209 79.6538L207.688 100.578L214.15 100.241C214.15 100.241 213.417 108.371 210.627 115.099C207.837 121.826 199.365 128.652 199.365 128.652L180.705 142.47L234.531 187.512L247.484 177.226" fill="#00662E"/>
</g>
<path d="M206.097 -9.61462L202.4 43.2563" stroke="#D4F7E4" stroke-linecap="round"/>
<path d="M137.161 28.75L128.661 -15.75" stroke="white" stroke-linecap="round"/>
<path fill-rule="evenodd" clip-rule="evenodd" d="M91.3209 138.362L92.9221 141.289L95.847 142.889C96.3303 143.153 96.3303 143.847 95.847 144.111L92.9221 145.711L91.3209 148.638C91.0576 149.121 90.3628 149.121 90.0994 148.638L88.4983 145.711L85.5719 144.111C85.0887 143.847 85.0887 143.153 85.5719 142.889L88.4983 141.289L90.0994 138.362C90.3628 137.879 91.0576 137.879 91.3209 138.362Z" fill="#FFC54F"/>
<path fill-rule="evenodd" clip-rule="evenodd" d="M263.878 189.936C264.568 189.802 264.871 188.986 264.437 188.434L250.42 170.616L228.379 174.88L222.866 196.529C222.696 197.197 223.279 197.814 223.955 197.683L263.878 189.936Z" fill="#CC9D3F"/>
<path fill-rule="evenodd" clip-rule="evenodd" d="M228.956 174.357L170.229 152.465L157.599 168.027C157.207 168.51 157.384 169.233 157.954 169.48L222.79 197.578L228.956 174.357Z" fill="#FFC54F"/>
<path fill-rule="evenodd" clip-rule="evenodd" d="M250.42 170.616L193.166 149.065C193.017 149.009 192.856 148.992 192.698 149.015L170.676 152.266C169.71 152.408 169.577 153.748 170.496 154.078L228.136 174.793C228.295 174.85 228.466 174.863 228.632 174.831L250.42 170.616Z" fill="#FFD37B"/>
<path fill-rule="evenodd" clip-rule="evenodd" d="M229.32 196.786C229.947 196.676 230.285 195.986 229.987 195.422L219.652 175.88L197.611 180.144L191.927 202.024C191.755 202.686 192.325 203.304 192.999 203.185L229.32 196.786Z" fill="#CC9D3F"/>
<path fill-rule="evenodd" clip-rule="evenodd" d="M198.188 179.621L139.461 157.729L126.831 173.291C126.439 173.774 126.616 174.497 127.186 174.744L192.022 202.842L198.188 179.621Z" fill="#FFC54F"/>
<path fill-rule="evenodd" clip-rule="evenodd" d="M219.652 175.88L162.398 154.329C162.249 154.273 162.088 154.256 161.93 154.279L139.914 157.529C138.948 157.672 138.815 159.012 139.734 159.342L198.035 180.246L219.652 175.88Z" fill="#FFD37B"/>
<path fill-rule="evenodd" clip-rule="evenodd" d="M245.618 169.781C246.288 169.664 246.615 168.895 246.235 168.331L235.221 151.991L212.877 154.702L207.52 175.093C207.346 175.755 207.916 176.375 208.59 176.257L245.618 169.781Z" fill="#CC9D3F"/>
<path fill-rule="evenodd" clip-rule="evenodd" d="M213.776 152.691L159.524 136.347L148.551 151.271C148.187 151.767 148.39 152.473 148.962 152.7L207.61 175.912L213.776 152.691Z" fill="#FFC54F"/>
<path fill-rule="evenodd" clip-rule="evenodd" d="M235.221 151.991L179.082 135.973C178.999 135.95 178.913 135.938 178.827 135.937L159.897 135.898C158.823 135.896 158.587 137.406 159.61 137.732L212.682 154.64C212.811 154.681 212.946 154.694 213.08 154.677L235.221 151.991Z" fill="#FFD37B"/>
<path fill-rule="evenodd" clip-rule="evenodd" d="M199.496 201.869C200.137 201.757 200.473 201.042 200.149 200.477L189.011 181.057L166.97 185.321L161.286 207.203C161.114 207.865 161.683 208.482 162.356 208.364L199.496 201.869Z" fill="#CC9D3F"/>
<path fill-rule="evenodd" clip-rule="evenodd" d="M167.547 184.798L106.583 167.162L99.1595 183.884C98.9397 184.379 99.1834 184.957 99.6914 185.145L161.381 208.019L167.547 184.798Z" fill="#FFC54F"/>
<path fill-rule="evenodd" clip-rule="evenodd" d="M189.011 181.057L125.604 163.492C125.462 163.453 125.314 163.448 125.17 163.476L106.583 167.162L166.749 185.255C166.894 185.299 167.048 185.306 167.198 185.277L189.011 181.057Z" fill="#FFD37B"/>
<path fill-rule="evenodd" clip-rule="evenodd" d="M215.708 175.359C216.344 175.248 216.681 174.544 216.368 173.979L206.361 155.917L185.549 158.481L179.686 180.277C179.508 180.94 180.078 181.564 180.754 181.446L215.708 175.359Z" fill="#CC9D3F"/>
<path fill-rule="evenodd" clip-rule="evenodd" d="M186.083 158.278L133.18 146.578L124.842 163.978C124.591 164.502 124.871 165.127 125.431 165.286L179.727 180.805L186.083 158.278Z" fill="#FFC54F"/>
<path fill-rule="evenodd" clip-rule="evenodd" d="M206.361 155.917L152.855 143.938C152.746 143.913 152.633 143.908 152.523 143.924L133.18 146.578L185.929 158.244C186.031 158.266 186.136 158.272 186.24 158.26L206.361 155.917Z" fill="#FFD37B"/>
<path fill-rule="evenodd" clip-rule="evenodd" d="M227.786 150.965C228.454 150.872 228.809 150.126 228.46 149.549L217.817 131.947L195.944 133.28L189.499 154.95C189.304 155.605 189.852 156.242 190.528 156.148L227.786 150.965Z" fill="#CC9D3F"/>
<path fill-rule="evenodd" clip-rule="evenodd" d="M196.294 133.095L158.063 128.459L145.768 144.976C145.36 145.524 145.655 146.31 146.323 146.454L189.566 155.769L196.294 133.095Z" fill="#FFC54F"/>
<path fill-rule="evenodd" clip-rule="evenodd" d="M217.817 131.947L180.206 127.264C180.151 127.257 180.095 127.255 180.039 127.258L158.063 128.459L195.856 133.269C195.914 133.276 195.973 133.278 196.032 133.274L217.817 131.947Z" fill="#FFD37B"/>
<path fill-rule="evenodd" clip-rule="evenodd" d="M95.9877 160.461L98.0255 164.186L101.748 166.222C102.363 166.559 102.363 167.441 101.748 167.778L98.0255 169.814L95.9877 173.539C95.6525 174.154 94.7682 174.154 94.433 173.539L92.3952 169.814L88.6708 167.778C88.0557 167.441 88.0557 166.559 88.6708 166.222L92.3952 164.186L94.433 160.461C94.7682 159.846 95.6525 159.846 95.9877 160.461Z" fill="white"/>
<path fill-rule="evenodd" clip-rule="evenodd" d="M170.046 150.601C170.863 151.07 170.638 152.306 169.708 152.456L157.809 154.376L149.937 175.299L139.5 180.175L128.084 199.788L138.561 173.261C138.561 173.261 150.322 159.752 156.626 153.468C162.93 147.185 164.491 147.415 164.491 147.415L170.046 150.601Z" fill="#00662E" fill-opacity="0.7"/>
<path fill-rule="evenodd" clip-rule="evenodd" d="M181.709 131.825L170.788 151.114C170.601 151.443 170.245 151.639 169.867 151.62L169.209 151.586L179.542 131.402L181.709 131.825Z" fill="#00662E" fill-opacity="0.7"/>
<path d="M220.209 79.6539L208.215 99.6321L215.217 98.6559C215.217 98.6559 214.35 114.418 207.708 120C201.065 125.582 199.365 128.206 170.014 129.217L169.204 129.283L167.581 129.41L166.803 130.84L155.617 148.52L141.954 150.147L140.761 150.522L140.188 151.633L132.998 169.595L118.18 173.677L117.229 174.03L116.688 174.888L108.806 192.229L75.7161 201.232L90.3923 210.201L127.149 200.144L128.084 199.788L128.618 198.942L137.605 180.175L147.957 175.013L149.045 174.609L149.578 173.576L156.841 154.09L168.053 151.95L169.209 151.586L169.789 150.522L181.709 131.825C181.709 131.825 202.169 131.931 210.434 127L210.97 126.676C221.473 120.226 222.566 98.6559 222.566 98.6559L231.446 99.6321L220.209 79.6539Z" fill="#40C07A"/>
<mask id="mask3_257_99786" style="mask-type:luminance" maskUnits="userSpaceOnUse" x="75" y="79" width="157" height="132">
<path d="M220.209 79.6539L208.215 99.6321L215.217 98.6559C215.217 98.6559 214.35 114.418 207.708 120C201.065 125.582 199.365 128.206 170.014 129.217L169.204 129.283L167.581 129.41L166.803 130.84L155.617 148.52L141.954 150.147L140.761 150.522L140.188 151.633L132.998 169.595L118.18 173.677L117.229 174.03L116.688 174.888L108.806 192.229L75.7161 201.232L90.3923 210.201L127.149 200.144L128.084 199.788L128.618 198.942L137.605 180.175L147.957 175.013L149.045 174.609L149.578 173.576L156.841 154.09L168.053 151.95L169.209 151.586L169.789 150.522L181.709 131.825C181.709 131.825 202.169 131.931 210.434 127L210.97 126.676C221.473 120.226 222.566 98.6559 222.566 98.6559L231.446 99.6321L220.209 79.6539Z" fill="white"/>
</mask>
<g mask="url(#mask3_257_99786)">
<path fill-rule="evenodd" clip-rule="evenodd" d="M154.445 147.407L171.322 152.559L151.911 148.474L154.445 147.407Z" fill="#00AB4E"/>
<path fill-rule="evenodd" clip-rule="evenodd" d="M147.676 175.152L132.998 169.595L150.209 174.085L147.676 175.152Z" fill="#00AB4E"/>
<path fill-rule="evenodd" clip-rule="evenodd" d="M138.676 181.558L123.998 176L141.209 180.49L138.676 181.558Z" fill="#00AB4E"/>
<path fill-rule="evenodd" clip-rule="evenodd" d="M107.531 191L122.209 196.558L104.998 192.067L107.531 191Z" fill="#00AB4E"/>
<path fill-rule="evenodd" clip-rule="evenodd" d="M164.895 157.018L149.789 152.761L167.326 155.734L164.895 157.018Z" fill="#00AB4E"/>
<path fill-rule="evenodd" clip-rule="evenodd" d="M169.209 129.203L181.487 131.825L167.581 129.41L169.209 129.203Z" fill="#00AB4E"/>
</g>
<path fill-rule="evenodd" clip-rule="evenodd" d="M229.321 203.362L230.922 206.289L233.847 207.889C234.33 208.153 234.33 208.847 233.847 209.111L230.922 210.711L229.321 213.638C229.058 214.121 228.363 214.121 228.099 213.638L226.498 210.711L223.572 209.111C223.089 208.847 223.089 208.153 223.572 207.889L226.498 206.289L228.099 203.362C228.363 202.879 229.058 202.879 229.321 203.362Z" fill="#FFD37B"/>
<path fill-rule="evenodd" clip-rule="evenodd" d="M271.432 72.4284L273.324 75.8868L276.781 77.7774C277.352 78.0903 277.352 78.9097 276.781 79.2226L273.324 81.1132L271.432 84.5716C271.121 85.1428 270.3 85.1428 269.988 84.5716L268.096 81.1132L264.638 79.2226C264.067 78.9097 264.067 78.0903 264.638 77.7774L268.096 75.8868L269.988 72.4284C270.3 71.8572 271.121 71.8572 271.432 72.4284Z" fill="#FFC54F"/>
<path fill-rule="evenodd" clip-rule="evenodd" d="M189.432 49.4284L191.324 52.8868L194.781 54.7774C195.352 55.0903 195.352 55.9097 194.781 56.2226L191.324 58.1132L189.432 61.5716C189.121 62.1428 188.3 62.1428 187.988 61.5716L186.096 58.1132L182.638 56.2226C182.067 55.9097 182.067 55.0903 182.638 54.7774L186.096 52.8868L187.988 49.4284C188.3 48.8572 189.121 48.8572 189.432 49.4284Z" fill="#FFC54F"/>
<path d="M182.056 94.259L178.16 125.005" stroke="white" stroke-linecap="round"/>
<path d="M109.515 55.0584L100.627 20.0749" stroke="white" stroke-linecap="round"/>
</g>
<path fill-rule="evenodd" clip-rule="evenodd" d="M71.2982 181.092C79.9515 168.203 85 152.691 85 136C85 113.863 76.1195 93.7996 61.7266 79.1788C57.1175 91.9213 54.6047 105.667 54.6047 120C54.6047 142.31 60.6928 163.197 71.2982 181.092Z" fill="#A6E6C2"/>
</svg>
