<svg width="360" height="240" viewBox="0 0 360 240" fill="none" xmlns="http://www.w3.org/2000/svg">
<mask id="mask0_257_99723" style="mask-type:luminance" maskUnits="userSpaceOnUse" x="0" y="0" width="360" height="240">
<rect width="360" height="240" fill="white"/>
</mask>
<g mask="url(#mask0_257_99723)">
<circle cx="364" cy="137" r="81" fill="#BBF0D3"/>
<circle cx="55" cy="45" r="44" fill="#E5EFAC"/>
<circle cx="175" cy="121" r="120" fill="#EDFFF5"/>
<mask id="mask1_257_99723" style="mask-type:luminance" maskUnits="userSpaceOnUse" x="55" y="1" width="240" height="240">
<circle cx="175" cy="121" r="120" fill="white"/>
</mask>
<g mask="url(#mask1_257_99723)">
<g opacity="0.4">
<mask id="mask2_257_99723" style="mask-type:luminance" maskUnits="userSpaceOnUse" x="243" y="157" width="70" height="74">
<path fill-rule="evenodd" clip-rule="evenodd" d="M243.554 174.934L292.051 157.283L312.292 212.895L263.796 230.547L243.554 174.934Z" fill="white"/>
</mask>
<g mask="url(#mask2_257_99723)">
<path fill-rule="evenodd" clip-rule="evenodd" d="M264.717 229.719C264.717 229.719 253.384 213.169 259.731 198.994C266.077 184.819 275.88 188.96 276.537 180.2C277.193 171.439 278.911 162.87 283.085 160.651C292.035 155.894 303.453 166.559 288.154 189.068C280.112 200.902 293.198 202.05 288.316 215.856C285.009 225.21 264.717 229.719 264.717 229.719Z" fill="#BBF0D3"/>
<path fill-rule="evenodd" clip-rule="evenodd" d="M258.863 201.765C258.863 201.765 264.294 201.765 267.45 205.703C270.607 209.641 269.982 215.148 269.982 215.148L260.983 215.873L257.061 206.48L258.863 201.765Z" fill="#28D677"/>
</g>
<path d="M267.514 228.99C267.514 228.99 275.84 197.385 285.897 169.036" stroke="white" stroke-width="0.6"/>
<path fill-rule="evenodd" clip-rule="evenodd" d="M248.994 235.668C242.831 232.474 236.098 227.025 234.271 219.966C231.885 210.743 240.02 209.953 238.345 206.725C236.181 202.557 228.976 200.877 228.506 194.895C227.952 187.859 235.096 186.209 234.74 182.715C234.239 177.791 233.744 167.351 238.391 166.056C243.47 164.641 244.381 175.251 245.713 179.482C247.107 183.914 253.107 179.737 256.129 184.663C260.101 191.137 253.051 196.973 255.149 200.879C257.426 205.116 266.822 204.219 269.686 212.089C271.535 217.169 271.123 222.952 267.514 228.99C262.029 231.224 255.034 233.359 248.994 235.668Z" fill="#BBF0D3"/>
<path d="M256.112 233.077C256.112 233.077 245.736 207.863 239.03 177.585" stroke="white" stroke-width="0.6"/>
<path d="M253.131 225.306C253.131 225.306 246.049 223.21 240.832 218.757" stroke="white" stroke-width="0.6"/>
<path d="M243.61 195.803L250.666 187.492" stroke="white" stroke-width="0.6"/>
</g>
<g opacity="0.4">
<path fill-rule="evenodd" clip-rule="evenodd" d="M75 176.443H87.389V171H75V176.443Z" fill="#BBF0D3"/>
<path fill-rule="evenodd" clip-rule="evenodd" d="M92.645 176.443H105.034V171H92.645V176.443Z" fill="#BBF0D3"/>
<path fill-rule="evenodd" clip-rule="evenodd" d="M83.447 185.453H95.836V180.01H83.447V185.453Z" fill="#BBF0D3"/>
</g>
<g opacity="0.4">
<path fill-rule="evenodd" clip-rule="evenodd" d="M54.064 143.054H147.167V26.478H54.064V143.054Z" fill="#BBF0D3" fill-opacity="0.4"/>
<mask id="mask3_257_99723" style="mask-type:luminance" maskUnits="userSpaceOnUse" x="116" y="35" width="26" height="11">
<path fill-rule="evenodd" clip-rule="evenodd" d="M116 35.0003H141.2V45.79H116V35.0003Z" fill="white"/>
</mask>
<g mask="url(#mask3_257_99723)">
<path fill-rule="evenodd" clip-rule="evenodd" d="M132.84 35.0003C129.021 35.0003 125.8 37.5693 124.8 41.0693C124.141 40.8593 123.441 40.7503 122.71 40.7503C119.521 40.7503 116.84 42.8803 116 45.7903H124.851H129.41H140.84C141.07 45.0203 141.2 44.1993 141.2 43.3503C141.2 38.7393 137.46 35.0003 132.84 35.0003Z" fill="#EDFFF5"/>
</g>
<path fill-rule="evenodd" clip-rule="evenodd" d="M52.563 148.951H148.669V141.067H52.563V148.951Z" fill="white"/>
<path fill-rule="evenodd" clip-rule="evenodd" d="M52.5634 148.951V152.893L148.669 148.951H52.5634Z" fill="#BBF0D3"/>
<path fill-rule="evenodd" clip-rule="evenodd" d="M52.563 85.423H148.669V84.11H52.563V85.423Z" fill="#EDFFF5"/>
<path fill-rule="evenodd" clip-rule="evenodd" d="M76.7788 126.34C76.7788 126.34 72.8938 116.093 83.8478 106.031C83.8478 106.031 90.0998 116.35 76.7788 126.34Z" fill="#00AB4E" fill-opacity="0.3"/>
<path fill-rule="evenodd" clip-rule="evenodd" d="M76.2612 119.88C76.2612 119.88 77.8992 122.515 78.0872 125.307L77.3282 125.957L76.9182 125.863L75.7682 120.984L76.2612 119.88Z" fill="#BBF0D3"/>
<path fill-rule="evenodd" clip-rule="evenodd" d="M77.3647 129.061C77.3647 129.061 66.8327 126.035 65.3357 111.237C65.3357 111.237 77.3437 112.41 77.3647 129.061Z" fill="#00AB4E" fill-opacity="0.3"/>
<path fill-rule="evenodd" clip-rule="evenodd" d="M84.2856 125.863H66.0786V133.977C66.0786 137.686 69.0846 140.692 72.7926 140.692H77.5706C81.2796 140.692 84.2856 137.686 84.2856 133.977V125.863Z" fill="#28D677"/>
<path fill-rule="evenodd" clip-rule="evenodd" d="M72.0951 125.863L70.6771 124.596L77.1051 125.071L77.2231 125.863H72.0951Z" fill="#BBF0D3"/>
<path fill-rule="evenodd" clip-rule="evenodd" d="M78.644 93.6619C77.511 90.8239 74.736 88.8249 71.493 88.8249C68.193 88.8249 65.382 90.8939 64.278 93.8019C63.454 93.3539 62.509 93.1029 61.503 93.1029C58.28 93.1029 55.672 95.7109 55.672 98.9259C55.672 99.1909 55.694 99.4579 55.729 99.7159H64.474H67.27H72.996H78.503H83.432C83.474 99.4579 83.495 99.1909 83.495 98.9259C83.495 96.1579 81.363 93.8789 78.644 93.6619Z" fill="#EDFFF5"/>
<path fill-rule="evenodd" clip-rule="evenodd" d="M52.001 30.321H158.777V25.771H52.001V30.321Z" fill="#84D7CC"/>
<path fill-rule="evenodd" clip-rule="evenodd" d="M160.655 32.8104H159.677C158.548 32.8104 157.633 31.8944 157.633 30.7644V25.0454C157.633 23.9154 158.548 22.9994 159.677 22.9994H160.655C161.785 22.9994 162.7 23.9154 162.7 25.0454V30.7644C162.7 31.8944 161.785 32.8104 160.655 32.8104Z" fill="#84D7CC"/>
<path fill-rule="evenodd" clip-rule="evenodd" d="M154.582 77.8104C154.582 79.1324 153.511 80.2044 152.189 80.2044C150.867 80.2044 149.796 79.1324 149.796 77.8104C149.796 76.4894 150.867 75.4164 152.189 75.4164C153.511 75.4164 154.582 76.4894 154.582 77.8104Z" fill="#84D7CC"/>
<path d="M152.189 27.9744V77.9514" stroke="#84D7CC"/>
</g>
<path fill-rule="evenodd" clip-rule="evenodd" d="M238.141 254.252H232.992L225.247 225.472H230.397L238.141 254.252Z" fill="#00AB4E"/>
<path fill-rule="evenodd" clip-rule="evenodd" d="M71 227.275H249.661V217.703H71V227.275Z" fill="#28D677"/>
<path fill-rule="evenodd" clip-rule="evenodd" d="M120.041 171.891C120.041 171.891 115.042 177.232 114.291 205.763C113.54 234.294 157.839 217.026 157.839 217.026L120.041 171.891Z" fill="#FFC54F"/>
<path fill-rule="evenodd" clip-rule="evenodd" d="M147.583 155.348C147.583 155.348 147.165 160.55 148.454 163.717C148.454 163.717 142.165 166.946 135.501 165.148L133.625 153.768L140.652 147.759L147.583 155.348Z" fill="#E79E5C"/>
<path fill-rule="evenodd" clip-rule="evenodd" d="M141.076 151.366C141.076 151.366 142.061 157.844 145.515 159.575C146.824 160.231 147.497 159.654 147.497 159.654L147.51 156.537L143.385 151.681L141.076 151.366Z" fill="#E07E26"/>
<path fill-rule="evenodd" clip-rule="evenodd" d="M152.274 135.025C152.274 135.025 154.178 139.179 154.468 142.695C154.757 146.211 157.039 147.866 157.039 147.866C157.039 147.866 156.384 149.947 154.967 150.367C154.967 150.367 155.14 156.416 154.789 157.613C154.352 159.095 146.825 159.582 144.308 156.257C142.486 153.848 141.84 139.462 142.764 136.338C143.688 133.214 149.851 130.677 152.274 135.025Z" fill="#F2CBA8"/>
<path fill-rule="evenodd" clip-rule="evenodd" d="M153.913 139.667C153.913 139.667 159.059 133.215 154.461 129.555C150.186 126.153 135.549 123.415 129.186 130.094C122.825 136.772 123.8 144.808 124.028 146.684C124.895 153.798 132.838 156.803 132.838 156.803C132.838 156.803 132.339 159.474 134.764 160.315C137.189 161.158 142.605 158.245 142.825 155.214C143.184 150.258 142.97 147.506 142.97 147.506L142.367 140.123L151.925 135.014C151.925 135.014 152.581 135.442 153.913 139.667Z" fill="#946F25"/>
<path fill-rule="evenodd" clip-rule="evenodd" d="M142.654 143.641C142.654 143.641 139.087 143.789 139.915 147.499C140.744 151.209 143.074 151.366 143.074 151.366C143.074 151.366 144.545 150.046 142.654 143.641Z" fill="#F2CBA8"/>
<path fill-rule="evenodd" clip-rule="evenodd" d="M124.091 140.784C124.369 139.07 126.709 138.864 128.817 139.039L130.435 128.995C130.435 128.995 134.466 132.618 132.657 139.385C132.017 141.778 129.302 145.206 123.874 145.019C123.874 145.019 123.574 143.976 124.091 140.784Z" fill="#6C4A07"/>
<path fill-rule="evenodd" clip-rule="evenodd" d="M132.803 134.797C132.907 132.676 130.85 126.319 125.079 127.167C119.309 128.016 117.546 134.992 119.525 138.37C122.207 142.947 132.303 145.021 132.803 134.797Z" fill="#946F25"/>
<path fill-rule="evenodd" clip-rule="evenodd" d="M152.466 134.564C152.466 134.564 153.09 144.168 142.495 143.633C131.902 143.098 137.675 133.069 137.675 133.069C137.675 133.069 140.436 127.495 146.757 128.877C153.079 130.261 152.466 134.564 152.466 134.564Z" fill="#946F25"/>
<mask id="mask4_257_99723" style="mask-type:luminance" maskUnits="userSpaceOnUse" x="144" y="142" width="5" height="11">
<path fill-rule="evenodd" clip-rule="evenodd" d="M144 142H148.011V152.027H144V142Z" fill="white"/>
</mask>
<g mask="url(#mask4_257_99723)">
<path fill-rule="evenodd" clip-rule="evenodd" d="M144 143.51C144 143.51 145.499 144.946 146.006 147.013C146.341 148.379 146.416 150.161 145.782 152.027C145.782 152.027 149.865 148.472 146.979 143.157C145.46 140.361 144 143.51 144 143.51Z" fill="#946F25"/>
</g>
<path fill-rule="evenodd" clip-rule="evenodd" d="M127.39 238.958C127.39 238.958 129.541 224.855 128.656 217.282C126.973 202.889 117.61 189.538 119.154 174.195C119.792 167.859 134.564 164.257 134.564 164.257C134.564 164.257 135.538 166.531 140.054 166.299C144.571 166.066 148.304 163.404 148.304 163.404C148.304 163.404 158.132 163.361 161.443 164.648C164.753 165.936 165.578 213.311 166.093 218.072C166.607 222.833 170.969 234.333 170.969 234.333C170.969 234.333 169.682 236.229 166.642 236.925C162.937 237.772 158.33 239.481 148.628 239.834C142.573 240.054 127.39 238.958 127.39 238.958Z" fill="#FFD37B"/>
<path fill-rule="evenodd" clip-rule="evenodd" d="M121.236 228.696C118.048 238.431 123.662 261.189 124.654 264.042L176.422 261.111C176.422 261.111 174.387 240.661 168.644 227.275L121.236 228.696Z" fill="#FFC54F"/>
<path fill-rule="evenodd" clip-rule="evenodd" d="M187.8 169.877C187.8 169.877 187.267 165.42 188.511 164.565C189.715 163.736 190.039 165.609 190.039 165.609L187.8 169.877Z" fill="#F2CBA8"/>
<path fill-rule="evenodd" clip-rule="evenodd" d="M187.403 197.129L194.495 184.991L187.139 181.883L179.987 190.549L187.403 197.129Z" fill="#F2CBA8"/>
<path fill-rule="evenodd" clip-rule="evenodd" d="M185.313 179.009C185.313 179.009 187.406 183.372 190.042 184.172C194.133 185.415 195.96 177.637 195.96 177.637L185.313 179.009Z" fill="#F2CBA8"/>
<path fill-rule="evenodd" clip-rule="evenodd" d="M184.071 180.601L192.95 181.872C193.397 181.935 193.836 181.71 194.046 181.311L201.331 167.419C201.674 166.767 201.279 165.113 200.55 165.008L192.404 164.704C191.51 164.576 190.633 165.025 190.213 165.826L183.277 179.049C182.934 179.702 183.342 180.497 184.071 180.601Z" fill="#34383D"/>
<path fill-rule="evenodd" clip-rule="evenodd" d="M183.897 179.696L192.776 180.967C193.222 181.03 193.662 180.806 193.872 180.406L201.157 166.514C201.5 165.862 201.092 165.067 200.363 164.964L192.23 163.8C191.335 163.672 190.458 164.121 190.039 164.921L183.103 178.144C182.76 178.797 183.168 179.592 183.897 179.696Z" fill="#686C72"/>
<path fill-rule="evenodd" clip-rule="evenodd" d="M184.656 179.136L192.449 180.25C192.842 180.307 193.226 180.11 193.411 179.759L200.307 166.438C200.513 166.046 200.269 165.57 199.832 165.506L191.863 164.366C191.327 164.289 190.8 164.559 190.549 165.039L183.959 177.774C183.659 178.346 184.015 179.044 184.656 179.136Z" fill="white"/>
<path fill-rule="evenodd" clip-rule="evenodd" d="M194.495 184.991C194.495 184.991 200.381 179.167 200.602 177.617C200.824 176.067 199.824 170.708 199.071 170.073C198.319 169.438 197.178 171.458 197.206 173.466C197.235 175.473 196.41 176.637 196.41 176.637C196.41 176.637 193.68 177.828 192.068 180.142C189.917 183.231 190.417 184.216 190.417 184.216L194.495 184.991Z" fill="#F2CBA8"/>
<path fill-rule="evenodd" clip-rule="evenodd" d="M183.887 176.725C183.887 176.725 182.887 175.678 183.172 174.647C183.456 173.617 185.041 170.565 185.818 170.376C186.594 170.188 187.426 170.265 187.506 170.757C187.585 171.248 185.302 177.62 183.887 176.725Z" fill="#F2CBA8"/>
<path fill-rule="evenodd" clip-rule="evenodd" d="M151.457 174.604C149.393 164.656 162.438 160.808 165.816 168.41C169.195 176.012 174.404 196.566 174.404 196.566L181.877 188.258L187.699 196.623C187.699 196.623 177.783 217.401 173.658 218.099C162.129 220.051 154.908 191.232 151.457 174.604Z" fill="#FFD37B"/>
<path fill-rule="evenodd" clip-rule="evenodd" d="M174.404 196.566L176.14 205.388L175.638 195.221L174.404 196.566Z" fill="#FFC54F"/>
<path fill-rule="evenodd" clip-rule="evenodd" d="M181.877 188.258L183.3 186.534L187.699 196.622L181.877 188.258Z" fill="#E79E5C"/>
<path fill-rule="evenodd" clip-rule="evenodd" d="M181.877 188.258L178.738 191.747L184.454 203.026L187.699 196.622L181.877 188.258Z" fill="white"/>
<path fill-rule="evenodd" clip-rule="evenodd" d="M152.605 239.518L168.102 263.577L162.693 299.694H145.654L152.605 239.518Z" fill="#34383D"/>
<path fill-rule="evenodd" clip-rule="evenodd" d="M129.829 232.668C129.829 232.668 127.039 246.812 128.984 251.729C129.387 252.745 130.378 254.529 132.964 255.714C141.147 259.465 188.255 255.669 188.255 255.669L178.61 299.694H197.511C197.511 299.694 201.445 247.429 199.621 239.026C197.796 230.624 170.354 232.668 170.354 232.668H129.829Z" fill="#58585B"/>
<path fill-rule="evenodd" clip-rule="evenodd" d="M107.294 224.142C106.878 215.958 107.443 204.225 109.7 197.369C111.956 190.511 120.515 190.246 128.691 190.246C136.868 190.246 146.685 195.522 147.315 200.797C147.947 206.073 153.752 240.926 164.765 249.238C175.002 256.962 188.255 255.668 188.255 255.668C188.255 255.668 185.075 262.354 170.304 265.338C155.533 268.324 124.037 268.851 115.414 256.982C108.159 246.995 107.807 234.219 107.294 224.142Z" fill="white"/>
<path fill-rule="evenodd" clip-rule="evenodd" d="M132.663 165.031L134.282 163.271C134.282 163.271 136.53 164.34 140.054 164.116C145.615 163.764 148.712 161.794 148.712 161.794L150.472 163.975C150.472 163.975 145.826 167.214 139.983 167.073C134.142 166.931 132.663 165.031 132.663 165.031Z" fill="white"/>
<path fill-rule="evenodd" clip-rule="evenodd" d="M143.619 151.366C143.619 151.988 143.115 152.492 142.493 152.492C141.871 152.492 141.366 151.988 141.366 151.366C141.366 150.744 141.871 150.239 142.493 150.239C143.115 150.239 143.619 150.744 143.619 151.366Z" fill="white"/>
<path fill-rule="evenodd" clip-rule="evenodd" d="M222.609 212.98H216.438V208.306H222.609C223.9 208.306 224.946 209.353 224.946 210.643C224.946 211.934 223.9 212.98 222.609 212.98Z" stroke="#00AB4E" stroke-width="2"/>
<path fill-rule="evenodd" clip-rule="evenodd" d="M222.408 207.572C222.027 212.163 218.937 215.742 215.168 215.742C212.027 215.742 209.347 213.262 208.338 209.772C208.128 209.072 207.988 208.333 207.928 207.572C207.887 207.072 208.258 206.642 208.758 206.642H221.568C221.637 206.642 221.708 206.652 221.767 206.673C222.168 206.762 222.437 207.142 222.408 207.572Z" fill="#00AB4E"/>
<path fill-rule="evenodd" clip-rule="evenodd" d="M221.768 206.672C221.198 210.962 218.198 214.232 214.598 214.232C211.928 214.232 209.598 212.442 208.338 209.772C208.128 209.071 207.989 208.332 207.928 207.571C207.888 207.071 208.258 206.642 208.758 206.642H221.569C221.638 206.642 221.708 206.651 221.768 206.672Z" fill="#28D677"/>
<path fill-rule="evenodd" clip-rule="evenodd" d="M220.66 215.739H209.669C208.702 215.739 207.918 216.522 207.918 217.489V217.616H222.41V217.489C222.41 216.522 221.626 215.739 220.66 215.739Z" fill="#00AB4E"/>
<path d="M217.497 197.773C217.497 197.773 216.51 198.243 216.44 199.462C216.371 200.682 218.482 201.246 218.295 202.465C218.107 203.686 217.169 204.578 217.169 204.578" stroke="#BBF0D3" stroke-linecap="round"/>
<path d="M213.447 194.715C213.447 194.715 212.179 195.466 212.18 197.433C212.181 198.821 213.634 199.788 213.447 201.175C213.26 202.562 212.909 203.246 212.909 203.246" stroke="#BBF0D3" stroke-linecap="round"/>
<g opacity="0.5">
<path fill-rule="evenodd" clip-rule="evenodd" d="M128.64 120.599L126.332 118.749H116.365C115.657 118.749 115.082 118.176 115.082 117.468V107.019C115.082 106.311 115.657 105.737 116.365 105.737H129.442C130.15 105.737 130.724 106.311 130.724 107.019V119.599C130.724 120.674 129.479 121.272 128.64 120.599Z" fill="#00AB4E"/>
<path fill-rule="evenodd" clip-rule="evenodd" d="M121.981 114.865C121.761 114.865 121.542 114.79 121.363 114.64L119.416 113.007C119.009 112.665 118.956 112.057 119.297 111.651C119.639 111.245 120.247 111.193 120.652 111.533L121.932 112.607L125.101 109.512C125.482 109.142 126.09 109.149 126.46 109.529C126.832 109.909 126.824 110.517 126.444 110.888L122.652 114.592C122.466 114.772 122.223 114.865 121.981 114.865Z" fill="white"/>
</g>
</g>
<path fill-rule="evenodd" clip-rule="evenodd" d="M59.3733 88.7854C81.6207 86.5902 99 67.8247 99 45C99 39.8303 98.1084 34.8688 96.4706 30.2609C78.8898 45.4894 65.7797 65.7419 59.3733 88.7854Z" fill="#66CD95"/>
<circle cx="249.3" cy="133.2" r="25.5" fill="#D3F4E2"/>
<circle cx="249.8" cy="124.8" r="28.8" fill="#A2C2DD"/>
<mask id="mask5_257_99723" style="mask-type:luminance" maskUnits="userSpaceOnUse" x="237" y="109" width="30" height="33">
<path fill-rule="evenodd" clip-rule="evenodd" d="M237.172 109.2H266.394V141.5H237.172V109.2Z" fill="white"/>
</mask>
<g mask="url(#mask5_257_99723)">
<path fill-rule="evenodd" clip-rule="evenodd" d="M258.946 109.2H244.217C242.417 109.2 240.876 110.659 240.775 112.459L239.357 123.9L237.172 141.5H256.632C258.285 141.5 259.698 140.161 259.791 138.509L261.663 124.466L263.201 112.931L266.394 109.2H258.946Z" fill="#518DC0"/>
</g>
<mask id="mask6_257_99723" style="mask-type:luminance" maskUnits="userSpaceOnUse" x="233" y="137" width="24" height="5">
<path fill-rule="evenodd" clip-rule="evenodd" d="M233 137.088H256.44V141.499H233V137.088Z" fill="white"/>
</mask>
<g mask="url(#mask6_257_99723)">
<path fill-rule="evenodd" clip-rule="evenodd" d="M256.44 141.499H237.172C235.955 141.499 234.879 141.007 234.126 140.205C233.373 139.409 232.938 138.306 233.007 137.088H253.502L253.432 138.318C253.335 140.075 254.682 141.499 256.44 141.499Z" fill="white"/>
</g>
<path fill-rule="evenodd" clip-rule="evenodd" d="M269.172 112.931H263.201L263.243 112.186C263.335 110.537 264.746 109.2 266.395 109.2C268.044 109.2 269.305 110.537 269.214 112.186L269.172 112.931Z" fill="#1868AB"/>
<path fill-rule="evenodd" clip-rule="evenodd" d="M246.198 119.303H247.643C247.861 119.303 248.088 119.22 248.327 119.054C248.567 118.889 248.706 118.64 248.747 118.31C248.788 117.978 248.71 117.728 248.513 117.56C248.316 117.39 248.1 117.306 247.867 117.306H246.445L246.198 119.303ZM250.174 122.179C250.254 122.45 250.287 122.646 250.272 122.767C250.236 123.053 249.973 123.293 249.483 123.488C249.228 123.594 249.028 123.647 248.881 123.647C248.735 123.647 248.62 123.611 248.533 123.539C248.448 123.468 248.388 123.395 248.352 123.32C248.295 123.177 248.086 122.496 247.725 121.278L247.373 121.299H245.951L245.794 122.575C245.772 122.748 245.751 122.877 245.728 122.964C245.706 123.05 245.658 123.15 245.584 123.263C245.454 123.467 245.147 123.567 244.667 123.567C244.139 123.567 243.849 123.428 243.793 123.15C243.763 123.023 243.766 122.827 243.798 122.564L244.573 116.301C244.594 116.129 244.617 115.999 244.638 115.913C244.66 115.826 244.708 115.727 244.782 115.614C244.913 115.411 245.219 115.309 245.7 115.309H248.137C248.799 115.309 249.413 115.549 249.977 116.03C250.249 116.264 250.458 116.58 250.605 116.978C250.751 117.378 250.793 117.822 250.732 118.31C250.627 119.16 250.259 119.859 249.627 120.409C249.743 120.807 249.925 121.398 250.174 122.179Z" fill="white"/>
<path fill-rule="evenodd" clip-rule="evenodd" d="M253.484 119.878C253.285 120.081 253.171 120.303 253.142 120.544C253.111 120.785 253.172 121.004 253.324 121.204C253.477 121.403 253.69 121.503 253.964 121.503C254.24 121.503 254.485 121.404 254.701 121.209C254.917 121.013 255.04 120.792 255.07 120.544C255.101 120.296 255.039 120.071 254.883 119.872C254.727 119.673 254.505 119.573 254.215 119.573C253.925 119.573 253.682 119.675 253.484 119.878ZM250.592 125.193L251.408 118.604C251.428 118.431 251.45 118.304 251.471 118.22C251.493 118.137 251.536 118.043 251.603 117.938C251.733 117.735 251.998 117.633 252.397 117.633C252.795 117.633 253.058 117.683 253.184 117.785C253.31 117.887 253.373 118.036 253.371 118.232C253.706 117.84 254.179 117.645 254.793 117.645C255.406 117.645 255.951 117.934 256.427 118.512C256.905 119.092 257.097 119.765 257.002 120.533C256.907 121.3 256.551 121.973 255.933 122.553C255.316 123.131 254.699 123.42 254.083 123.42C253.466 123.42 253.04 123.249 252.805 122.902L252.521 125.181C252.501 125.354 252.479 125.482 252.458 125.564C252.436 125.648 252.391 125.744 252.32 125.853C252.251 125.961 252.146 126.039 252.004 126.083C251.863 126.129 251.675 126.152 251.443 126.152C251.209 126.152 251.026 126.129 250.893 126.083C250.759 126.039 250.671 125.963 250.628 125.858C250.585 125.753 250.562 125.658 250.561 125.576C250.559 125.493 250.569 125.364 250.592 125.193Z" fill="white"/>
<path fill-rule="evenodd" clip-rule="evenodd" d="M256.445 129.875H242.424C242.036 129.875 241.76 129.56 241.808 129.171C241.856 128.781 242.211 128.465 242.6 128.465H256.619C257.009 128.465 257.285 128.781 257.237 129.171C257.188 129.56 256.834 129.875 256.445 129.875Z" fill="#C4E4FF"/>
<path fill-rule="evenodd" clip-rule="evenodd" d="M254.394 133.508H243.575C243.186 133.508 242.91 133.192 242.958 132.804C243.006 132.415 243.362 132.098 243.75 132.098H254.57C254.958 132.098 255.234 132.415 255.186 132.804C255.138 133.192 254.783 133.508 254.394 133.508Z" fill="#C4E4FF"/>
<circle cx="263.8" cy="57" r="25" fill="#D3F4E2"/>
<circle cx="264" cy="46.8" r="28.8" fill="#FFE7B8"/>
<path fill-rule="evenodd" clip-rule="evenodd" d="M247.666 31.1977L246.793 32.7939L245.198 33.6665C244.934 33.8109 244.934 34.1891 245.198 34.3335L246.793 35.2061L247.666 36.8023C247.81 37.0659 248.189 37.0659 248.333 36.8023L249.206 35.2061L250.802 34.3335C251.066 34.1891 251.066 33.8109 250.802 33.6665L249.206 32.7939L248.333 31.1977C248.189 30.9341 247.81 30.9341 247.666 31.1977Z" fill="#EDFFF5"/>
<path fill-rule="evenodd" clip-rule="evenodd" d="M278.666 56.1977L277.793 57.7939L276.198 58.6665C275.934 58.8109 275.934 59.1891 276.198 59.3335L277.793 60.2061L278.666 61.8023C278.81 62.0659 279.189 62.0659 279.333 61.8023L280.206 60.2061L281.802 59.3335C282.066 59.1891 282.066 58.8109 281.802 58.6665L280.206 57.7939L279.333 56.1977C279.189 55.9341 278.81 55.9341 278.666 56.1977Z" fill="#EDFFF5"/>
<path d="M245.944 63.1062L270.72 35.3919L276 40.1016L283.56 30" stroke="white" stroke-width="2" stroke-linecap="round" stroke-linejoin="round"/>
<mask id="mask7_257_99723" style="mask-type:luminance" maskUnits="userSpaceOnUse" x="274" y="45" width="11" height="11">
<path fill-rule="evenodd" clip-rule="evenodd" d="M274.607 45.358H284.761V55.414H274.607V45.358Z" fill="white"/>
</mask>
<g mask="url(#mask7_257_99723)">
<path fill-rule="evenodd" clip-rule="evenodd" d="M274.814 55.414L274.607 49.4212L281.185 45.358L284.678 49.2316C284.837 49.462 284.764 49.7788 284.52 49.9156L274.814 55.414Z" fill="#CC9D3F"/>
</g>
<path fill-rule="evenodd" clip-rule="evenodd" d="M253.602 46.7151L256.48 42.4551L274.607 49.4211L275.117 54.8547C275.157 55.2795 274.734 55.5975 274.337 55.4427L253.871 47.4615C253.573 47.3451 253.446 46.9935 253.602 46.7151Z" fill="#946F25"/>
<path fill-rule="evenodd" clip-rule="evenodd" d="M256.674 42.1707L263.339 39.0543C263.478 38.9907 263.636 38.9823 263.78 39.0339L280.867 45.0891C281.348 45.2595 281.394 45.9231 280.94 46.1571L274.836 49.3023C274.689 49.3779 274.519 49.3887 274.365 49.3311L256.699 42.7899C256.419 42.6867 256.403 42.2955 256.674 42.1707Z" fill="#FFC54F"/>
<path fill-rule="evenodd" clip-rule="evenodd" d="M264.278 61.4233L264.07 55.4293L270.65 51.3673L274.142 55.2397C274.302 55.4701 274.227 55.7869 273.985 55.9249L264.278 61.4233Z" fill="#CC9D3F"/>
<path fill-rule="evenodd" clip-rule="evenodd" d="M243.067 52.7245L245.945 48.4633L264.071 55.4293L264.582 60.8629C264.621 61.2889 264.199 61.6057 263.802 61.4509L243.336 53.4709C243.038 53.3545 242.911 53.0029 243.067 52.7245Z" fill="#FFC54F"/>
<path fill-rule="evenodd" clip-rule="evenodd" d="M246.137 48.1788L252.803 45.0636C252.943 44.9988 253.101 44.9916 253.245 45.042L270.332 51.0984C270.813 51.2676 270.859 51.9312 270.404 52.1652L264.299 55.3104C264.154 55.386 263.984 55.3968 263.829 55.3404L246.163 48.7992C245.883 48.6948 245.867 48.3048 246.137 48.1788Z" fill="#FFD37B"/>
<path fill-rule="evenodd" clip-rule="evenodd" d="M267.368 53.9609L267.161 47.9681L273.74 43.9049L277.232 47.7785C277.392 48.0089 277.317 48.3257 277.075 48.4637L267.368 53.9609Z" fill="#CC9D3F"/>
<path fill-rule="evenodd" clip-rule="evenodd" d="M249.101 46.7843L251.979 42.5231L267.161 47.9675L267.672 53.4023C267.712 53.8259 267.289 54.1451 266.892 53.9903L249.37 47.5307C249.073 47.4143 248.946 47.0615 249.101 46.7843Z" fill="#FFC54F"/>
<path fill-rule="evenodd" clip-rule="evenodd" d="M252.173 42.2386L258.837 39.1222C258.977 39.0586 259.135 39.0514 259.28 39.1018L273.422 43.6354C273.903 43.807 273.948 44.4694 273.494 44.7046L267.39 47.8498C267.245 47.9242 267.074 47.935 266.921 47.8786L252.198 42.859C251.918 42.7546 251.901 42.3646 252.173 42.2386Z" fill="#FFC54F"/>
<path fill-rule="evenodd" clip-rule="evenodd" d="M261.483 46.0272L262.461 40.1016L265.059 41.2091V47.2556L261.483 46.0272Z" fill="#FFE7B8"/>
<path fill-rule="evenodd" clip-rule="evenodd" d="M260.159 45.5663L259.268 45.2772L260.4 39.4036L261.049 39.6351L260.159 45.5663Z" fill="#FFE7B8"/>
<path d="M277.5 30.3289L283.56 30L284.314 35.3919" stroke="white" stroke-width="2" stroke-linecap="round" stroke-linejoin="round"/>
<path opacity="0.3" fill-rule="evenodd" clip-rule="evenodd" d="M216.722 88.3504C216.722 101.923 205.719 112.926 192.147 112.926C178.574 112.926 167.571 101.923 167.571 88.3504C167.571 74.7775 178.574 63.7744 192.147 63.7744C205.719 63.7744 216.722 74.7775 216.722 88.3504Z" fill="#99DDB8"/>
<path fill-rule="evenodd" clip-rule="evenodd" d="M220.395 79.3444C220.395 95.0844 207.635 107.844 191.895 107.844C176.155 107.844 163.395 95.0844 163.395 79.3444C163.395 63.6043 176.155 50.8444 191.895 50.8444C207.635 50.8444 220.395 63.6043 220.395 79.3444Z" fill="#BBF0D3"/>
<path fill-rule="evenodd" clip-rule="evenodd" d="M200.327 79.5666C200.327 79.5666 201.881 75.825 205.961 73.1157L203.658 71.7666C203.658 71.7666 202.632 73.9301 200.327 79.5666Z" fill="#00662E"/>
<path fill-rule="evenodd" clip-rule="evenodd" d="M204.177 70.6579L201.888 66.9627L189.738 64.321L188.553 66.9028C184.989 74.6715 182.279 82.8053 180.471 91.1595L179.948 93.5799L195.334 96.9253C195.334 96.9253 197.129 88.7856 199.313 82.3803C201.498 75.9751 204.177 70.6579 204.177 70.6579Z" fill="#00883E"/>
<path fill-rule="evenodd" clip-rule="evenodd" d="M198.489 84.9287L195.648 82.3943L197.322 77.4464L200.056 80.2908L198.489 84.9287Z" fill="#40C07A"/>
<path fill-rule="evenodd" clip-rule="evenodd" d="M201.886 66.9623L200.702 69.5457C197.136 77.3153 194.43 85.4448 192.62 93.7999L192.096 96.2203L176.673 92.8664L177.197 90.4452C178.711 83.4553 180.85 76.6243 183.601 70.0298C184.133 68.7406 184.697 67.4641 185.278 66.1918L186.462 63.6076L190.225 64.4271L201.886 66.9623Z" fill="#00AB4E"/>
<path fill-rule="evenodd" clip-rule="evenodd" d="M193.1 79.3303C192.436 82.3825 189.829 84.4075 187.276 83.8525C184.723 83.2966 183.192 80.3728 183.857 77.3205C184.521 74.2674 187.128 72.2432 189.68 72.7983C192.234 73.3533 193.765 76.278 193.1 79.3303Z" fill="#37D880"/>
<path fill-rule="evenodd" clip-rule="evenodd" d="M196.674 72.225C196.195 72.0282 195.967 71.4799 196.163 71.0009L197.242 68.3778C197.439 67.8988 197.987 67.6698 198.466 67.8667C198.944 68.0644 199.173 68.6118 198.977 69.0916L197.898 71.7147C197.701 72.1929 197.153 72.4218 196.674 72.225Z" fill="#37D880"/>
<path fill-rule="evenodd" clip-rule="evenodd" d="M179.767 91.6822C179.26 91.5723 178.94 91.0722 179.049 90.567L179.652 87.7944C179.762 87.2892 180.262 86.9673 180.768 87.078C181.274 87.1878 181.595 87.6871 181.485 88.1931L180.882 90.9649C180.772 91.471 180.273 91.792 179.767 91.6822Z" fill="#37D880"/>
<path fill-rule="evenodd" clip-rule="evenodd" d="M180.268 79.0494L195.647 82.3939L197.322 77.4459L181.988 74.1115L180.268 79.0494Z" fill="white"/>
<path fill-rule="evenodd" clip-rule="evenodd" d="M190.225 64.4266C189.922 67.5828 187.268 70.0479 184.033 70.0479C183.887 70.0479 183.742 70.0429 183.601 70.0302C184.134 68.7402 184.697 67.4637 185.278 66.1914L186.463 63.608L190.225 64.4266Z" fill="#00883E"/>
<path fill-rule="evenodd" clip-rule="evenodd" d="M189.116 62.3662C189.116 65.802 186.33 68.5873 182.895 68.5873C179.459 68.5873 176.673 65.802 176.673 62.3662C176.673 58.9304 179.459 56.1451 182.895 56.1451C186.33 56.1451 189.116 58.9304 189.116 62.3662Z" fill="#FFC54F"/>
<path d="M182.895 58.8294V62.3666L185.17 61.5919" stroke="white" stroke-width="1.2672" stroke-linecap="round" stroke-linejoin="round"/>
</g>
</svg>
