<svg width="360" height="240" viewBox="0 0 360 240" fill="none" xmlns="http://www.w3.org/2000/svg">
<mask id="mask0_257_99772" style="mask-type:luminance" maskUnits="userSpaceOnUse" x="0" y="0" width="360" height="240">
<rect width="360" height="240" fill="white"/>
</mask>
<g mask="url(#mask0_257_99772)">
<circle cx="-5" cy="89" r="87" fill="#E5EFAC"/>
<circle cx="350.5" cy="94.5" r="94.5" fill="#BBF0D3"/>
<circle cx="180" cy="120" r="120" fill="#EDFFF5"/>
<mask id="mask1_257_99772" style="mask-type:luminance" maskUnits="userSpaceOnUse" x="60" y="0" width="240" height="240">
<circle cx="180" cy="120" r="120" fill="white"/>
</mask>
<g mask="url(#mask1_257_99772)">
<path fill-rule="evenodd" clip-rule="evenodd" d="M111 222.777L85.0816 230C85.0816 230 79.9087 221.43 76.3798 208.355C72.8534 195.274 73.0009 185.223 73.0009 185.223L98.9218 178C98.9218 178 97.9707 185.089 102.301 201.129C106.628 217.169 111 222.777 111 222.777Z" fill="#BBF0D3" fill-opacity="0.3"/>
<path fill-rule="evenodd" clip-rule="evenodd" d="M98 205C98 209.971 93.9691 214 89.0014 214C84.0281 214 80 209.971 80 205C80 200.029 84.0281 196 89.0014 196C93.9691 196 98 200.029 98 205Z" fill="#EDFFF5"/>
<path fill-rule="evenodd" clip-rule="evenodd" d="M240 65.1668L261.146 71C261.146 71 265.366 64.0799 268.245 53.5181C271.122 42.9512 270.999 34.8357 270.999 34.8357L249.854 29C249.854 29 250.628 34.7273 247.097 47.6824C243.569 60.64 240 65.1668 240 65.1668Z" fill="#BBF0D3" fill-opacity="0.3"/>
<path fill-rule="evenodd" clip-rule="evenodd" d="M143.097 59.9861L148.903 47.8498C148.903 47.8498 145.134 44.5587 139.001 41.6853C132.865 38.813 127.905 38.0147 127.905 38.0147L122.097 50.1507C122.097 50.1507 125.671 50.299 133.193 53.8229C140.717 57.3455 143.097 59.9861 143.097 59.9861Z" fill="#BBF0D3"/>
<path fill-rule="evenodd" clip-rule="evenodd" d="M135.066 51.462C137.24 51.8454 139.316 50.3925 139.7 48.2159C140.084 46.0408 138.629 43.967 136.455 43.5836C134.281 43.2002 132.205 44.6516 131.822 46.8267C131.438 49.0033 132.892 51.0787 135.066 51.462Z" fill="#EDFFF5"/>
<path fill-rule="evenodd" clip-rule="evenodd" d="M251 50.5C251 54.0877 253.911 57 257.503 57C261.092 57 264 54.0877 264 50.5C264 46.9123 261.092 44 257.503 44C253.911 44 251 46.9123 251 50.5Z" fill="#EDFFF5"/>
<path d="M144.428 76.9668L110.604 139.991" stroke="#939597" stroke-width="2" stroke-linecap="round"/>
<path d="M109.469 80.2191C109.469 80.2191 110.664 85.2941 110.673 86.7081C110.682 88.1211 110.297 90.6531 110.297 90.6531L115.432 92.4171C115.432 92.4171 115.401 89.0631 115.26 87.3771C115.119 85.6901 114.546 82.9161 114.546 82.9161L109.469 80.2191Z" fill="#E79E5C"/>
<path d="M101.103 77.7908L103.499 84.4778L103.245 89.0178L108.405 89.1228C108.405 89.1228 108.78 85.3248 108.543 84.0458C108.306 82.7668 107.224 79.0198 107.224 79.0198L101.103 77.7908Z" fill="#E79E5C"/>
<path d="M94.5558 78.2874L96.1018 84.5164L96.3838 88.6314L100.814 88.1154C100.814 88.1154 101.499 84.5024 101.173 83.4924C100.888 82.6084 99.9928 78.4564 99.9928 78.4564L94.5558 78.2874Z" fill="#E79E5C"/>
<path fill-rule="evenodd" clip-rule="evenodd" d="M138.851 127.245C138.543 127.807 137.253 128.807 136.342 128.307C135.43 127.807 130.474 125.089 129.562 124.59C128.651 124.09 128.116 122.902 126.834 122.2C125.552 121.496 97.9766 106.375 95.7256 105.141C93.4756 103.907 90.1146 102.064 89.3026 101.619C88.4906 101.174 86.8616 99.5494 86.3496 98.4554C85.8376 97.3624 85.8376 97.1594 86.0606 96.7524C86.2846 96.3464 87.2086 94.6594 87.4146 94.2844C87.6206 93.9094 88.8686 94.0654 89.2286 93.4094C89.5876 92.7534 90.7026 90.7224 91.2156 89.7844C91.7306 88.8474 102.711 87.0654 105.522 87.7524C108.331 88.4394 119.105 94.2664 121.828 96.1254C124.551 97.9844 128.899 104.717 131.071 110.013C135.258 112.309 139.126 115.932 140.38 118.307C141.634 120.683 141.044 123.245 140.531 124.182C140.017 125.12 138.851 127.245 138.851 127.245Z" fill="#FFC54F"/>
<path d="M108.27 110.013L115.7 94.7618" stroke="#FF9800" stroke-linecap="round"/>
<path d="M113.831 102.943L114.632 103.447" stroke="#FF9800" stroke-linecap="round"/>
<path d="M99.5 105.447L123.476 118.474" stroke="#FF9800" stroke-linecap="round"/>
<path fill-rule="evenodd" clip-rule="evenodd" d="M97.4991 97.3143C100.378 98.8933 101.308 102.733 99.5761 105.891C99.3801 106.249 99.1571 106.581 98.9131 106.889C97.2701 105.988 96.1161 105.356 95.7261 105.142C93.4761 103.907 90.1141 102.064 89.3031 101.619C89.1301 101.524 88.9201 101.375 88.6921 101.19C88.8161 100.846 88.9681 100.506 89.1501 100.174C90.8821 97.0163 94.6191 95.7353 97.4991 97.3143Z" fill="#FF8E11"/>
<path fill-rule="evenodd" clip-rule="evenodd" d="M126.834 122.2C126.536 122.037 124.82 121.096 122.336 119.734C122.465 119.363 122.625 118.996 122.821 118.638C124.553 115.48 128.291 114.2 131.17 115.779C134.049 117.357 134.98 121.197 133.247 124.355C132.916 124.96 132.511 125.495 132.052 125.955C130.922 125.336 129.923 124.788 129.562 124.59C128.65 124.09 128.115 122.903 126.834 122.2Z" fill="#FF9800"/>
<path fill-rule="evenodd" clip-rule="evenodd" d="M123.548 119.036C122.058 121.754 122.858 125.059 125.336 126.418C127.814 127.777 131.03 126.675 132.522 123.956C134.012 121.238 133.211 117.933 130.734 116.575C128.255 115.216 125.038 116.318 123.548 119.036Z" fill="#58585B"/>
<path fill-rule="evenodd" clip-rule="evenodd" d="M124.859 119.756C123.805 121.679 124.372 124.018 126.125 124.979C127.878 125.941 130.154 125.161 131.209 123.238C132.263 121.315 131.697 118.976 129.944 118.015C128.19 117.053 125.914 117.833 124.859 119.756Z" fill="#BBBDC0"/>
<path fill-rule="evenodd" clip-rule="evenodd" d="M89.876 100.573C88.386 103.291 89.187 106.596 91.664 107.954C94.143 109.313 97.359 108.212 98.85 105.493C100.34 102.775 99.54 99.4695 97.062 98.1115C94.584 96.7525 91.367 97.8545 89.876 100.573Z" fill="#58585B"/>
<path fill-rule="evenodd" clip-rule="evenodd" d="M91.1886 101.292C90.1336 103.215 90.7006 105.554 92.4536 106.515C94.2076 107.477 96.4836 106.697 97.5376 104.773C98.5916 102.851 98.0256 100.512 96.2726 99.5507C94.5196 98.5887 92.2436 99.3687 91.1886 101.292Z" fill="#BBBDC0"/>
<path fill-rule="evenodd" clip-rule="evenodd" d="M140.693 120.269C140.693 120.269 140.83 121.238 140.75 121.62C140.669 122.003 140.364 122.323 139.951 122.097C139.538 121.87 137.914 120.98 137.529 120.769C137.144 120.558 136.784 119.527 136.668 118.793C136.551 118.059 136.416 116.887 136.647 116.871C136.878 116.856 138.914 118.379 140.693 120.269Z" fill="white"/>
<path fill-rule="evenodd" clip-rule="evenodd" d="M136.603 124.854C136.915 124.622 137.4 124.559 137.683 124.714L139.648 125.792C139.229 126.558 138.851 127.246 138.851 127.246C138.766 127.4 138.605 127.588 138.399 127.77L135.621 126.246C135.337 126.09 135.361 125.776 135.674 125.544L136.603 124.854Z" fill="#58585B"/>
<path fill-rule="evenodd" clip-rule="evenodd" d="M131.07 110.013C131.07 110.013 129.845 109.342 129.532 109.17C129.218 108.998 128.74 108.654 128.435 108.06C128.132 107.467 126.947 104.5 126.061 102.872C125.175 101.243 124.645 100.373 124.554 100.247C124.393 100.022 124.465 99.6644 124.748 99.8204C124.993 99.9544 125.646 100.312 125.646 100.312C125.646 100.312 128.924 104.569 131.07 110.013Z" fill="#58585B"/>
<path fill-rule="evenodd" clip-rule="evenodd" d="M126.533 106.733C126.666 107.083 126.624 107.818 126.079 107.561C125.535 107.303 115.519 101.242 115.04 100.969C114.559 100.695 114.589 100.305 114.7 99.8991C114.812 99.4921 116.012 95.8831 116.138 95.5871C116.264 95.2901 116.41 95.0241 116.851 95.2661C117.293 95.5081 120.62 97.5161 122.16 99.2341C123.7 100.952 125.43 103.812 126.533 106.733Z" fill="#58585B"/>
<path fill-rule="evenodd" clip-rule="evenodd" d="M114.854 94.9226C114.854 94.9226 112.944 98.7116 112.84 98.8996C112.738 99.0866 112.481 99.3526 112.154 99.1726C111.826 98.9926 101.602 93.0416 101.184 92.7916C100.765 92.5416 100.651 92.2756 100.903 91.9866C101.154 91.6976 105.171 89.8776 107.38 90.3776C109.588 90.8766 114.388 93.9156 114.63 94.0476C114.873 94.1806 115.094 94.4466 114.854 94.9226Z" fill="#58585B"/>
<path fill-rule="evenodd" clip-rule="evenodd" d="M101.63 87.6843C101.874 88.0173 102.208 88.4743 102.288 88.5803C102.416 88.7523 102.216 89.0493 101.583 89.0883C100.95 89.1273 98.678 89.6903 97.746 89.9713C96.814 90.2523 96.312 90.2213 95.885 89.9873C95.63 89.8483 94.599 89.2823 93.806 88.8473C95.96 88.3513 99.068 87.8743 101.63 87.6843Z" fill="#58585B"/>
<path fill-rule="evenodd" clip-rule="evenodd" d="M89.2286 93.4094C89.5556 92.8124 90.5056 91.0794 91.0616 90.0654C91.6656 90.3964 93.2116 91.2444 93.4976 91.4014C93.8536 91.5964 93.9576 91.8464 93.4656 92.3034C92.9746 92.7604 91.2406 93.7604 90.8646 93.8384C90.4876 93.9164 90.1656 93.9634 89.8376 93.7844C89.6936 93.7044 89.4426 93.5674 89.2076 93.4384C89.2146 93.4284 89.2226 93.4194 89.2286 93.4094Z" fill="#DB046A"/>
<path d="M85.9191 90.1759C88.0361 92.1989 87.7961 91.1619 89.1421 94.1149C90.8371 97.8359 92.5282 101.33 94.5558 101.764C96.5835 102.198 99.6391 101.33 99.5841 99.6549C99.5291 97.9809 96.5171 92.7429 95.4531 89.8779C94.3891 87.0139 93.8001 85.3469 93.8001 85.3469C93.4501 83.5639 99.2701 77.8389 104.807 79.0589C110.344 80.2789 113.591 83.4629 114.864 84.4959C116.139 85.5279 120.258 95.1719 120.258 95.1719L125.647 100.313C125.647 100.313 124.282 83.4959 123.187 81.3369C122.091 79.1789 107.811 70.3309 105.089 69.2049C102.366 68.0779 81.4381 66.1069 79.4671 65.9189C77.4951 65.7319 64.8741 70.6109 74.2101 83.4569C78.3861 89.2029 83.8021 88.1539 85.9191 90.1759Z" fill="#F2CBA8"/>
<path d="M120.258 95.1721L125.361 97.0361L125.647 100.313L120.258 95.1721Z" fill="#E79E5C"/>
<mask id="mask2_257_99772" style="mask-type:luminance" maskUnits="userSpaceOnUse" x="53" y="54" width="27" height="32">
<path fill-rule="evenodd" clip-rule="evenodd" d="M53 54.0004H79.4669V85.3002H53V54.0004Z" fill="white"/>
</mask>
<g mask="url(#mask2_257_99772)">
<path d="M79.4669 65.9192L62.9479 54.0002L52.9999 73.7092L78.2209 85.3002L79.4669 65.9192Z" fill="#FFDAB8"/>
</g>
<path opacity="0.3" fill-rule="evenodd" clip-rule="evenodd" d="M62.4029 144.012C60.8272 136.254 60 128.223 60 120C60 97.7069 66.079 76.8337 76.6698 58.9475C80.1176 68.3139 82 78.4371 82 89C82 109.869 74.6523 129.021 62.4029 144.012Z" fill="#00AB4E"/>
</g>
<circle opacity="0.5" cx="284" cy="169" r="41.5" fill="#BBF0D3"/>
<circle cx="279.5" cy="160" r="45" fill="white"/>
<rect x="255.521" y="166.909" width="10" height="3" rx="1" fill="#FFC54F"/>
<rect x="256.042" y="163.954" width="10" height="3" rx="1" fill="#FFC54F"/>
<rect x="256.563" y="161" width="10" height="3" rx="1" fill="#FFC54F"/>
<rect x="289.552" y="159.679" width="27" height="9" rx="1" transform="rotate(-7 289.552 159.679)" fill="#00883E"/>
<rect x="300.967" y="158.277" width="4" height="9" transform="rotate(-7 300.967 158.277)" fill="#BBF0D3"/>
<rect x="281.444" y="149.841" width="27" height="9" rx="1" transform="rotate(5 281.444 149.841)" fill="#00AB4E"/>
<path fill-rule="evenodd" clip-rule="evenodd" d="M281.101 154.5L291.626 150.612L292.947 150.843L280.733 157.901L281.101 154.5Z" fill="#00883E"/>
<rect x="292.9" y="150.843" width="4" height="9" transform="rotate(5 292.9 150.843)" fill="#BBF0D3"/>
<rect x="264.783" y="158.713" width="27" height="9" rx="1" transform="rotate(-3 264.783 158.713)" fill="#00AB4E"/>
<rect x="281" y="163.523" width="10" height="3" rx="1" transform="rotate(-3 281 163.523)" fill="#FFC54F"/>
<rect x="281" y="160.523" width="10" height="3" rx="1" transform="rotate(-3 281 160.523)" fill="#FFC54F"/>
<rect x="281" y="157.523" width="10" height="3" rx="1" transform="rotate(-3 281 157.523)" fill="#FFC54F"/>
<rect x="276.267" y="158.111" width="4" height="9" transform="rotate(-3 276.267 158.111)" fill="#BBF0D3"/>
<rect x="268.275" y="149.889" width="27" height="9" rx="1" transform="rotate(-20 268.275 149.889)" fill="#00AB4E"/>
<rect x="279.081" y="145.955" width="4" height="9" transform="rotate(-20 279.081 145.955)" fill="#BBF0D3"/>
<rect x="239.987" y="155.724" width="27" height="9" rx="1" transform="rotate(10 239.987 155.724)" fill="#00AB4E"/>
<rect x="251.312" y="157.721" width="4" height="9" transform="rotate(10 251.312 157.721)" fill="#BBF0D3"/>
<path fill-rule="evenodd" clip-rule="evenodd" d="M265.012 160.157L263.525 164.897L265.012 164.897L265.012 160.157Z" fill="#00883E"/>
<path fill-rule="evenodd" clip-rule="evenodd" d="M291.746 157.3L294.222 164.897L291.746 164.897L291.746 157.3Z" fill="#00662E"/>
<path d="M139.291 75.9668L173.114 138.991" stroke="#939597" stroke-width="2" stroke-linecap="round"/>
<path fill-rule="evenodd" clip-rule="evenodd" d="M156.842 148.335L142.454 143.598C140.501 142.956 139.44 140.851 140.082 138.898L149.583 110.038C150.226 108.085 152.33 107.023 154.283 107.667L168.671 112.403C170.624 113.046 171.686 115.15 171.043 117.103L161.542 145.963C160.9 147.916 158.795 148.978 156.842 148.335Z" fill="#58585B"/>
<path fill-rule="evenodd" clip-rule="evenodd" d="M168.011 114.026L165.288 113.13C165.054 113.053 164.796 113.122 164.632 113.306L164.409 113.555C164.08 113.923 163.565 114.062 163.096 113.907L157.875 112.189C157.406 112.034 157.073 111.617 157.028 111.125L156.996 110.793C156.974 110.547 156.807 110.338 156.573 110.26L153.851 109.364C152.705 108.987 151.471 109.61 151.094 110.756L141.724 139.218C141.347 140.364 141.969 141.598 143.115 141.975L157.275 146.637C158.42 147.014 159.655 146.391 160.032 145.246L169.402 116.783C169.78 115.637 169.157 114.403 168.011 114.026Z" fill="white"/>
<path fill-rule="evenodd" clip-rule="evenodd" d="M140.626 136.356L164 133L163 137L140.626 136.356Z" fill="#BBBDC0" fill-opacity="0.4"/>
<path fill-rule="evenodd" clip-rule="evenodd" d="M161.382 111.999L159.018 111.221C158.863 111.17 158.779 111.003 158.83 110.849C158.881 110.694 159.048 110.61 159.202 110.661L161.567 111.439C161.721 111.49 161.806 111.657 161.754 111.812C161.703 111.966 161.537 112.05 161.382 111.999Z" fill="#252528"/>
<path fill-rule="evenodd" clip-rule="evenodd" d="M163.123 112.261C163.062 112.445 162.865 112.544 162.683 112.484C162.499 112.424 162.399 112.226 162.46 112.043C162.519 111.86 162.718 111.76 162.9 111.82C163.084 111.881 163.184 112.078 163.123 112.261Z" fill="#252528"/>
<path fill-rule="evenodd" clip-rule="evenodd" d="M138.859 75.0523L273.699 100.959L138.859 75.0523Z" fill="white"/>
<path d="M138.859 75.0523L273.699 100.959" stroke="#939597" stroke-width="5"/>
<path fill-rule="evenodd" clip-rule="evenodd" d="M174.25 140.062C173.856 142.01 173.238 143.917 172.394 145.756C172.388 145.776 172.375 145.796 172.361 145.815C167.245 156.985 154.254 164.895 139.021 164.895H138.846C136.868 164.885 134.928 164.746 133.033 164.478C120.416 162.709 110.061 155.465 105.62 145.756C105.201 144.842 104.841 143.928 104.538 142.994C104.216 142.04 103.958 141.065 103.758 140.062H174.25Z" fill="#00AB4E"/>
<path fill-rule="evenodd" clip-rule="evenodd" d="M174.25 140.062C173.856 142.01 173.238 143.917 172.394 145.756C167.29 156.956 154.279 164.895 139.021 164.895H138.846C136.868 164.885 134.928 164.746 133.033 164.478H133.065C149.395 162.391 151.103 142.467 151.103 142.467V140.062H174.25Z" fill="#00883E"/>
<path fill-rule="evenodd" clip-rule="evenodd" d="M174.25 140.062C173.856 141.325 173.238 142.562 172.394 143.754C172.388 143.767 172.375 143.78 172.361 143.793C135.695 144.289 112.838 142.691 104.538 141.963C104.216 141.344 103.958 140.713 103.758 140.062H174.25Z" fill="#00883E"/>
<mask id="mask3_257_99772" style="mask-type:luminance" maskUnits="userSpaceOnUse" x="101" y="136" width="76" height="6">
<path fill-rule="evenodd" clip-rule="evenodd" d="M101 136.356H176.718V141.621H101V136.356Z" fill="white"/>
</mask>
<g mask="url(#mask3_257_99772)">
<path fill-rule="evenodd" clip-rule="evenodd" d="M176.718 138.992C176.718 139.714 176.422 140.371 175.945 140.848C175.468 141.325 174.811 141.621 174.082 141.621H103.629C102.18 141.621 101 140.442 101 138.992C101 138.264 101.297 137.607 101.774 137.13C102.244 136.653 102.902 136.356 103.629 136.356H174.082C175.538 136.356 176.718 137.536 176.718 138.992Z" fill="#BFD730"/>
</g>
<mask id="mask4_257_99772" style="mask-type:luminance" maskUnits="userSpaceOnUse" x="133" y="70" width="11" height="11">
<path fill-rule="evenodd" clip-rule="evenodd" d="M133.807 70H143.911V80.1048H133.807V70Z" fill="white"/>
</mask>
<g mask="url(#mask4_257_99772)">
<path fill-rule="evenodd" clip-rule="evenodd" d="M143.911 75.0528C143.911 77.8428 141.649 80.1048 138.859 80.1048C136.068 80.1048 133.807 77.8428 133.807 75.0528C133.807 72.2618 136.068 69.9998 138.859 69.9998C141.649 69.9998 143.911 72.2618 143.911 75.0528Z" fill="#EEEEEF"/>
</g>
<path fill-rule="evenodd" clip-rule="evenodd" d="M140.754 70.3706C140.983 70.9756 141.115 71.6296 141.115 72.3156C141.115 75.3406 138.663 77.7926 135.638 77.7926C135.266 77.7926 134.903 77.7546 134.552 77.6846C135.441 79.1346 137.034 80.1046 138.859 80.1046C141.65 80.1046 143.911 77.8426 143.911 75.0526C143.911 72.9326 142.605 71.1206 140.754 70.3706Z" fill="#BBBDC0"/>
<path d="M273.266 101.873L239.443 164.897" stroke="#939597" stroke-width="2" stroke-linecap="round"/>
<path d="M274.131 101.873L307.954 164.897" stroke="#939597" stroke-width="2" stroke-linecap="round"/>
<path fill-rule="evenodd" clip-rule="evenodd" d="M278.751 100.959C278.751 103.75 276.489 106.011 273.699 106.011C270.908 106.011 268.647 103.75 268.647 100.959C268.647 98.168 270.908 95.906 273.699 95.906C276.489 95.906 278.751 98.168 278.751 100.959Z" fill="#EEEEEF"/>
<path fill-rule="evenodd" clip-rule="evenodd" d="M275.594 96.2769C275.823 96.8819 275.955 97.5359 275.955 98.2219C275.955 101.247 273.503 103.699 270.478 103.699C270.106 103.699 269.743 103.661 269.392 103.591C270.28 105.041 271.874 106.011 273.699 106.011C276.49 106.011 278.751 103.75 278.751 100.959C278.751 98.8389 277.445 97.0269 275.594 96.2769Z" fill="#BBBDC0"/>
<path fill-rule="evenodd" clip-rule="evenodd" d="M309.09 168.601C308.696 170.549 308.078 172.457 307.234 174.295C307.228 174.315 307.215 174.335 307.201 174.355C302.085 185.524 289.094 193.434 273.861 193.434H273.686C271.708 193.425 269.768 193.286 267.873 193.017C255.256 191.248 244.901 184.004 240.46 174.295C240.041 173.381 239.681 172.467 239.378 171.533C239.056 170.579 238.798 169.605 238.598 168.601H309.09Z" fill="#00AB4E"/>
<path fill-rule="evenodd" clip-rule="evenodd" d="M309.09 168.601C308.696 170.549 308.078 172.457 307.234 174.295C302.13 185.495 289.119 193.434 273.861 193.434H273.686C271.708 193.425 269.768 193.286 267.873 193.017H267.905C284.235 190.93 285.943 171.006 285.943 171.006V168.601H309.09Z" fill="#00883E"/>
<path fill-rule="evenodd" clip-rule="evenodd" d="M309.09 168.601C308.696 169.864 308.078 171.101 307.234 172.293C307.228 172.307 307.215 172.319 307.201 172.332C270.535 172.829 247.678 171.23 239.378 170.502C239.056 169.883 238.798 169.252 238.598 168.601H309.09Z" fill="#00883E"/>
<path fill-rule="evenodd" clip-rule="evenodd" d="M311.557 167.531C311.557 168.253 311.26 168.91 310.784 169.387C310.307 169.864 309.65 170.16 308.921 170.16H238.468C237.019 170.16 235.839 168.981 235.839 167.531C235.839 166.803 236.136 166.146 236.613 165.669C237.083 165.192 237.741 164.896 238.468 164.896H308.921C310.377 164.896 311.557 166.075 311.557 167.531Z" fill="#BFD730"/>
<path fill-rule="evenodd" clip-rule="evenodd" d="M201.63 235.437H210.929V107.525H201.63V235.437Z" fill="#BBBDC0"/>
<path fill-rule="evenodd" clip-rule="evenodd" d="M207.297 235.438H210.929V107.523H207.297V235.438Z" fill="#939597"/>
<path fill-rule="evenodd" clip-rule="evenodd" d="M210.929 107.525V113.505C207.829 113.042 204.302 112.406 201.63 111.9V107.525H210.929Z" fill="#939597"/>
<path fill-rule="evenodd" clip-rule="evenodd" d="M199.014 110.514H213.544V94.704H199.014V110.514Z" fill="#BBBDC0"/>
<path fill-rule="evenodd" clip-rule="evenodd" d="M213.544 94.7041V98.1441C211.624 99.8841 209.073 100.954 206.284 100.954C203.483 100.954 200.934 99.8841 199.014 98.1441V94.7041H213.544Z" fill="#939597"/>
<path fill-rule="evenodd" clip-rule="evenodd" d="M217.047 87.7046C217.047 93.6516 212.226 98.4726 206.279 98.4726C200.332 98.4726 195.511 93.6516 195.511 87.7046C195.511 81.7576 200.332 76.9366 206.279 76.9366C212.226 76.9366 217.047 81.7576 217.047 87.7046Z" fill="#00AB4E"/>
<path fill-rule="evenodd" clip-rule="evenodd" d="M210.324 90C210.324 92.2095 208.533 94 206.325 94C204.115 94 202.325 92.2095 202.325 90C202.325 87.7905 204.115 86 206.325 86C208.533 86 210.324 87.7905 210.324 90Z" fill="#00883E"/>
<path fill-rule="evenodd" clip-rule="evenodd" d="M210.342 87.7051C210.342 89.9491 208.523 91.7671 206.28 91.7671C204.035 91.7671 202.216 89.9491 202.216 87.7051C202.216 85.4611 204.035 83.6421 206.28 83.6421C208.523 83.6421 210.342 85.4611 210.342 87.7051Z" fill="#ECFAEF"/>
<path fill-rule="evenodd" clip-rule="evenodd" d="M207.803 83.94C207.988 84.427 208.094 84.952 208.094 85.504C208.094 87.937 206.121 89.908 203.69 89.908C203.39 89.908 203.098 89.878 202.816 89.821C203.53 90.987 204.812 91.768 206.28 91.768C208.523 91.768 210.342 89.949 210.342 87.705C210.342 86 209.291 84.543 207.803 83.94Z" fill="#B3EC91"/>
<path fill-rule="evenodd" clip-rule="evenodd" d="M212.6 202.177V229.917H199.956V202.177C199.956 201.526 200.483 201 201.134 201H211.422C212.074 201 212.6 201.526 212.6 202.177Z" fill="#BFD730"/>
<path fill-rule="evenodd" clip-rule="evenodd" d="M212.6 202.177V229.917H207.296V201H211.422C212.074 201 212.6 201.526 212.6 202.177Z" fill="#96AF00"/>
<path fill-rule="evenodd" clip-rule="evenodd" d="M199.956 225.47H212.6V220H199.956V225.47Z" fill="#96AF00"/>
<path fill-rule="evenodd" clip-rule="evenodd" d="M231.854 232.199H180.703C180.703 230.995 181.026 229.875 181.583 228.907C181.87 228.407 182.224 227.953 182.63 227.547C183.818 226.354 185.469 225.619 187.282 225.619H225.275C227.708 225.619 229.833 226.937 230.974 228.907C231.531 229.875 231.854 230.995 231.854 232.199Z" fill="#00AB4E"/>
<path fill-rule="evenodd" clip-rule="evenodd" d="M231.854 232.199H210.902C210.61 227.557 207.296 225.619 207.296 225.619H225.275C227.708 225.619 229.833 226.937 230.974 228.907C231.531 229.875 231.854 230.995 231.854 232.199Z" fill="#00883E"/>
<path fill-rule="evenodd" clip-rule="evenodd" d="M231.855 232.197H180.703C180.703 230.997 181.023 229.873 181.585 228.906H230.971C231.534 229.873 231.855 230.997 231.855 232.197Z" fill="#00883E"/>
<path fill-rule="evenodd" clip-rule="evenodd" d="M242.175 238.008V239.555H170.384V238.008C170.384 233.762 173.821 230.319 178.068 230.319H234.49C238.737 230.319 242.175 233.762 242.175 238.008Z" fill="#00AB4E"/>
<path fill-rule="evenodd" clip-rule="evenodd" d="M242.175 238.008V239.555H210.595V230.319H234.49C238.737 230.319 242.175 233.762 242.175 238.008Z" fill="#00883E"/>
<path fill-rule="evenodd" clip-rule="evenodd" d="M148.029 136.689C148.029 137.622 147.273 138.378 146.34 138.378C145.407 138.378 144.65 137.622 144.65 136.689C144.65 135.756 145.407 135 146.34 135C147.273 135 148.029 135.756 148.029 136.689ZM128.379 137.486C128.379 138.419 127.623 139.175 126.69 139.175C125.757 139.175 125 138.419 125 137.486C125 136.553 125.757 135.797 126.69 135.797C127.623 135.797 128.379 136.553 128.379 137.486ZM130.069 141.81C130.069 142.743 129.312 143.499 128.379 143.499C127.447 143.499 126.689 142.743 126.689 141.81C126.689 140.877 127.447 140.121 128.379 140.121C129.312 140.121 130.069 140.877 130.069 141.81ZM132.791 145.933C133.723 145.933 134.48 145.177 134.48 144.244C134.48 143.311 133.723 142.555 132.791 142.555C131.858 142.555 131.101 143.311 131.101 144.244C131.101 145.177 131.858 145.933 132.791 145.933ZM139.16 145.189C139.16 146.122 138.404 146.878 137.471 146.878C136.538 146.878 135.781 146.122 135.781 145.189C135.781 144.255 136.538 143.5 137.471 143.5C138.404 143.5 139.16 144.255 139.16 145.189ZM144.651 141.616C145.584 141.616 146.34 140.86 146.34 139.927C146.34 138.994 145.584 138.238 144.651 138.238C143.718 138.238 142.961 138.994 142.961 139.927C142.961 140.86 143.718 141.616 144.651 141.616ZM141.913 145.188C142.846 145.188 143.602 144.432 143.602 143.499C143.602 142.566 142.846 141.81 141.913 141.81C140.98 141.81 140.223 142.566 140.223 143.499C140.223 144.432 140.98 145.188 141.913 145.188Z" fill="#009E3D"/>
<path fill-rule="evenodd" clip-rule="evenodd" d="M147.994 135.559C147.994 136.492 147.238 137.248 146.305 137.248C145.372 137.248 144.615 136.492 144.615 135.559C144.615 134.626 145.372 133.87 146.305 133.87C147.238 133.87 147.994 134.626 147.994 135.559ZM128.344 136.357C128.344 137.29 127.588 138.046 126.655 138.046C125.722 138.046 124.965 137.29 124.965 136.357C124.965 135.424 125.722 134.668 126.655 134.668C127.588 134.668 128.344 135.424 128.344 136.357ZM130.033 140.68C130.033 141.613 129.276 142.369 128.344 142.369C127.411 142.369 126.654 141.613 126.654 140.68C126.654 139.747 127.411 138.991 128.344 138.991C129.276 138.991 130.033 139.747 130.033 140.68ZM132.755 144.803C133.687 144.803 134.444 144.047 134.444 143.114C134.444 142.181 133.687 141.425 132.755 141.425C131.822 141.425 131.065 142.181 131.065 143.114C131.065 144.047 131.822 144.803 132.755 144.803ZM139.125 144.059C139.125 144.992 138.369 145.748 137.436 145.748C136.503 145.748 135.746 144.992 135.746 144.059C135.746 143.126 136.503 142.37 137.436 142.37C138.369 142.37 139.125 143.126 139.125 144.059ZM144.616 140.486C145.549 140.486 146.305 139.73 146.305 138.797C146.305 137.864 145.549 137.108 144.616 137.108C143.683 137.108 142.926 137.864 142.926 138.797C142.926 139.73 143.683 140.486 144.616 140.486ZM141.877 144.058C142.81 144.058 143.566 143.302 143.566 142.369C143.566 141.436 142.81 140.68 141.877 140.68C140.944 140.68 140.187 141.436 140.187 142.369C140.187 143.302 140.944 144.058 141.877 144.058Z" fill="#FFC54F"/>
<path fill-rule="evenodd" clip-rule="evenodd" d="M129.601 140.4C129.601 140.952 129.153 141.4 128.601 141.4C128.048 141.4 127.6 140.952 127.6 140.4C127.6 139.848 128.048 139.4 128.601 139.4C129.153 139.4 129.601 139.848 129.601 140.4Z" fill="#FFE7B8"/>
<path fill-rule="evenodd" clip-rule="evenodd" d="M128.001 136C128.001 136.552 127.553 137 127.001 137C126.448 137 126 136.552 126 136C126 135.448 126.448 135 127.001 135C127.553 135 128.001 135.448 128.001 136Z" fill="#FFE7B8"/>
<path fill-rule="evenodd" clip-rule="evenodd" d="M147.601 135.1C147.601 135.652 147.153 136.1 146.601 136.1C146.048 136.1 145.6 135.652 145.6 135.1C145.6 134.548 146.048 134.1 146.601 134.1C147.153 134.1 147.601 134.548 147.601 135.1Z" fill="#FFE7B8"/>
<path fill-rule="evenodd" clip-rule="evenodd" d="M146.001 138.4C146.001 138.952 145.553 139.4 145.001 139.4C144.448 139.4 144 138.952 144 138.4C144 137.848 144.448 137.4 145.001 137.4C145.553 137.4 146.001 137.848 146.001 138.4Z" fill="#FFE7B8"/>
<path fill-rule="evenodd" clip-rule="evenodd" d="M143.001 142C143.001 142.552 142.553 143 142.001 143C141.448 143 141 142.552 141 142C141 141.448 141.448 141 142.001 141C142.553 141 143.001 141.448 143.001 142Z" fill="#FFE7B8"/>
<path fill-rule="evenodd" clip-rule="evenodd" d="M138.701 143.6C138.701 144.152 138.253 144.6 137.701 144.6C137.148 144.6 136.7 144.152 136.7 143.6C136.7 143.048 137.148 142.6 137.701 142.6C138.253 142.6 138.701 143.048 138.701 143.6Z" fill="#FFE7B8"/>
<path fill-rule="evenodd" clip-rule="evenodd" d="M134.001 142.7C134.001 143.252 133.553 143.7 133.001 143.7C132.448 143.7 132 143.252 132 142.7C132 142.148 132.448 141.7 133.001 141.7C133.553 141.7 134.001 142.148 134.001 142.7Z" fill="#FFE7B8"/>
<path fill-rule="evenodd" clip-rule="evenodd" d="M141.035 154.358L138.017 157.323L135 154.358L138.017 149L141.035 154.358Z" fill="#4F9E1F"/>
<path fill-rule="evenodd" clip-rule="evenodd" d="M140.626 152.519L137.608 155.484L134.591 152.519L137.608 147.161L140.626 152.519Z" fill="white"/>
<path fill-rule="evenodd" clip-rule="evenodd" d="M134.591 152.519L137.608 153.739L140.626 152.479L137.608 155.484L134.591 152.519Z" fill="#FFE7B8"/>
<path fill-rule="evenodd" clip-rule="evenodd" d="M316.889 130.362L315.287 133.289L312.362 134.889C311.879 135.153 311.879 135.847 312.362 136.111L315.287 137.711L316.889 140.638C317.152 141.121 317.847 141.121 318.11 140.638L319.711 137.711L322.638 136.111C323.121 135.847 323.121 135.153 322.638 134.889L319.711 133.289L318.11 130.362C317.847 129.879 317.152 129.879 316.889 130.362Z" fill="#FFC54F"/>
<path fill-rule="evenodd" clip-rule="evenodd" d="M235.889 172.362L234.287 175.289L231.362 176.889C230.879 177.153 230.879 177.847 231.362 178.111L234.287 179.711L235.889 182.638C236.152 183.121 236.847 183.121 237.11 182.638L238.711 179.711L241.638 178.111C242.121 177.847 242.121 177.153 241.638 176.889L238.711 175.289L237.11 172.362C236.847 171.879 236.152 171.879 235.889 172.362Z" fill="#FFC54F"/>
</g>
</svg>
