<svg width="48" height="48" viewBox="0 0 48 48" fill="none" xmlns="http://www.w3.org/2000/svg">
<circle cx="24" cy="24" r="24" fill="#F1F8EC"/>
<rect x="10" y="11.9" width="25.6" height="24" rx="4.26667" fill="#1868AB"/>
<mask id="mask0_1031_172771" style="mask-type:luminance" maskUnits="userSpaceOnUse" x="10" y="11" width="26" height="25">
<rect x="10" y="11.9" width="25.6" height="24" rx="4.26667" fill="white"/>
</mask>
<g mask="url(#mask0_1031_172771)">
<rect x="7.6" y="11.9" width="25.6" height="24" rx="4.26667" fill="#5297D1"/>
</g>
<path fill-rule="evenodd" clip-rule="evenodd" d="M10 16.1667C10 13.8102 11.9103 11.9 14.2667 11.9H31.3333C33.6897 11.9 35.6 13.8102 35.6 16.1667V20.7H10V16.1667Z" fill="#0F5895"/>
<mask id="mask1_1031_172771" style="mask-type:luminance" maskUnits="userSpaceOnUse" x="10" y="11" width="26" height="10">
<path fill-rule="evenodd" clip-rule="evenodd" d="M10 16.1667C10 13.8102 11.9103 11.9 14.2667 11.9H31.3333C33.6897 11.9 35.6 13.8102 35.6 16.1667V20.7H10V16.1667Z" fill="white"/>
</mask>
<g mask="url(#mask1_1031_172771)">
<path fill-rule="evenodd" clip-rule="evenodd" d="M7.6 16.1666C7.6 13.8102 9.51025 11.9 11.8667 11.9H28.9333C31.2897 11.9 33.2 13.8102 33.2 16.1666V20.7H7.6V16.1666Z" fill="#1868AB"/>
</g>
<rect x="14" y="9.5" width="4.8" height="7.2" rx="2.13333" fill="#CC9D3F"/>
<mask id="mask2_1031_172771" style="mask-type:luminance" maskUnits="userSpaceOnUse" x="14" y="9" width="5" height="8">
<rect x="14" y="9.5" width="4.8" height="7.2" rx="2.13333" fill="white"/>
</mask>
<g mask="url(#mask2_1031_172771)">
<rect x="13.2" y="9.5" width="4.8" height="7.2" rx="2.13333" fill="#FFC54F"/>
</g>
<rect x="25.2" y="9.5" width="4.8" height="7.2" rx="2.13333" fill="#CC9D3F"/>
<mask id="mask3_1031_172771" style="mask-type:luminance" maskUnits="userSpaceOnUse" x="25" y="9" width="5" height="8">
<rect x="25.2" y="9.5" width="4.8" height="7.2" rx="2.13333" fill="white"/>
</mask>
<g mask="url(#mask3_1031_172771)">
<rect x="24.4" y="9.5" width="4.8" height="7.2" rx="2.13333" fill="#FFC54F"/>
</g>
<circle cx="16" cy="26.7" r="2.8" fill="white"/>
<circle cx="24" cy="26.7" r="2.8" fill="white"/>
<path d="M37.4667 32.7C37.4667 35.9404 34.8404 38.5667 31.6 38.5667C28.3596 38.5667 25.7333 35.9404 25.7333 32.7C25.7333 29.4596 28.3596 26.8333 31.6 26.8333C34.8404 26.8333 37.4667 29.4596 37.4667 32.7Z" fill="#E07E26" stroke="white" stroke-width="1.06667"/>
<path fill-rule="evenodd" clip-rule="evenodd" d="M29.0764 32.6272V34.361H28.1601V29.8999H30.088C30.5799 29.8999 30.9518 30.0149 31.2037 30.2448C31.4556 30.4747 31.5816 30.8069 31.5816 31.2414C31.5816 31.5789 31.4933 31.8615 31.3168 32.0893C31.1402 32.3171 30.8913 32.4669 30.57 32.5386C30.7882 32.5977 30.9726 32.7643 31.1234 33.0385L31.8017 34.361H30.7902L30.0642 32.9372C30.0047 32.8276 29.9333 32.7485 29.85 32.6999C29.7667 32.6514 29.6616 32.6272 29.5346 32.6272H29.0764ZM29.0645 31.8805H29.9511C30.2169 31.8805 30.4093 31.8309 30.5283 31.7318C30.6473 31.6327 30.7068 31.4776 30.7068 31.2667C30.7068 31.0516 30.6473 30.8955 30.5283 30.7985C30.4093 30.7014 30.2169 30.6529 29.9511 30.6529H29.0645V31.8805ZM33.1584 35.5V33.9181C33.2457 34.0741 33.3697 34.1954 33.5303 34.2819C33.691 34.3684 33.8705 34.4116 34.0689 34.4116C34.3227 34.4116 34.5469 34.3462 34.7413 34.2155C34.9356 34.0847 35.0874 33.898 35.1965 33.6555C35.3056 33.4129 35.3601 33.1313 35.3601 32.8107C35.3601 32.4901 35.3056 32.2064 35.1965 31.9596C35.0874 31.7129 34.9346 31.5209 34.7383 31.3838C34.5419 31.2467 34.3188 31.1782 34.0689 31.1782C33.8665 31.1782 33.6841 31.2235 33.5214 31.3142C33.3588 31.4049 33.2338 31.5304 33.1465 31.6907V31.2541H32.2599V35.5H33.1584ZM33.3191 33.4529C33.4341 33.6069 33.5968 33.6839 33.807 33.6839C34.0173 33.6839 34.1799 33.609 34.295 33.4592C34.41 33.3095 34.4675 33.0933 34.4675 32.8106C34.4675 32.5238 34.41 32.3013 34.295 32.1431C34.1799 31.9849 34.0173 31.9058 33.807 31.9058C33.5968 31.9058 33.4341 31.9828 33.3191 32.1367C33.204 32.2907 33.1465 32.5111 33.1465 32.798C33.1465 33.0806 33.204 33.2989 33.3191 33.4529Z" fill="white"/>
</svg>
