<svg width="360" height="280" viewBox="0 0 360 280" fill="none" xmlns="http://www.w3.org/2000/svg">
<g clip-path="url(#clip0_257_100615)">
<rect width="360" height="280" fill="#EDFFF5" fill-opacity="0.5"/>
<g opacity="0.5">
<path d="M213.59 43.3421C213.59 37.7009 218.163 33.1278 223.805 33.1278H286.019C291.66 33.1278 296.233 37.7009 296.233 43.3421C296.233 48.9833 291.66 53.5564 286.019 53.5564H255.141H223.805C218.163 53.5564 213.59 48.9833 213.59 43.3421Z" fill="#B7EACE"/>
<path fill-rule="evenodd" clip-rule="evenodd" d="M56.5419 43.2631C56.5419 37.595 61.1368 33 66.805 33H184.831C190.499 33 195.094 37.595 195.094 43.2631C195.094 48.9313 190.499 53.5263 184.831 53.5263H126.203H109.996C105.509 53.5263 101.871 57.164 101.871 61.6514C101.871 66.1388 105.508 69.7766 109.996 69.7766H125.818C131.486 69.7766 136.081 74.3715 136.081 80.0397C136.081 85.7079 131.486 90.3028 125.818 90.3028H89.7284H53.1208C47.4526 90.3028 42.8577 85.7079 42.8577 80.0397C42.8577 74.3715 47.4526 69.7766 53.1208 69.7766H73.3499C77.7652 69.7766 81.3445 66.1973 81.3445 61.782C81.3445 57.2225 77.6483 53.5263 73.0888 53.5263H66.805C61.1368 53.5263 56.5419 48.9313 56.5419 43.2631Z" fill="#B7EACE"/>
<path fill-rule="evenodd" clip-rule="evenodd" d="M284.897 80.0399C284.897 74.3717 280.302 69.7767 274.634 69.7767H158.318C152.65 69.7767 148.055 74.3717 148.055 80.0399C148.055 85.7081 152.65 90.303 158.318 90.303H192.826C196.913 90.303 200.226 93.6162 200.226 97.7032C200.226 102.118 196.647 105.697 192.232 105.697H104.436C98.7683 105.697 94.1733 110.292 94.1733 115.96C94.1733 121.629 98.7683 126.224 104.437 126.224H126.97C132.002 126.224 136.081 130.303 136.081 135.335C136.081 139.278 132.885 142.474 128.942 142.474H118.976C113.308 142.474 108.713 147.069 108.713 152.737C108.713 158.405 113.308 163 118.976 163H176.654H233.581C239.249 163 243.844 158.405 243.844 152.737C243.844 147.069 239.249 142.474 233.581 142.474H164.733C160.245 142.474 156.608 138.836 156.608 134.349C156.608 129.861 160.245 126.224 164.733 126.224H208.555H311.41C317.078 126.224 321.673 121.629 321.673 115.96C321.673 110.292 317.078 105.697 311.41 105.697H242.133C237.882 105.697 234.436 102.251 234.436 98.0001C234.436 93.7491 237.882 90.303 242.133 90.303H274.634C280.302 90.303 284.897 85.7081 284.897 80.0399Z" fill="#B7EACE"/>
<circle cx="307.134" cy="80.0398" r="10.2631" fill="#B7EACE"/>
<circle cx="74.5024" cy="115.96" r="10.2631" fill="#B7EACE"/>
</g>
<path d="M33.9733 70.5132L32.132 73.8683L28.7682 75.7025C28.2124 76.006 28.2124 76.801 28.7682 77.1046L32.132 78.9387L33.9733 82.2938C34.2762 82.8479 35.0753 82.8479 35.3781 82.2938L37.2195 78.9387L40.5849 77.1046C41.1407 76.801 41.1407 76.006 40.5849 75.7025L37.2195 73.8683L35.3781 70.5132C35.0753 69.9591 34.2762 69.9591 33.9733 70.5132Z" fill="#FFD37B"/>
<path d="M106.363 181.728H252.37L396 189.937V309.638H-36V189.937L106.363 181.728Z" fill="#BBF0D3"/>
<path d="M325.988 68.2896L324.147 71.6447L320.783 73.4788C320.227 73.7824 320.227 74.5774 320.783 74.8809L324.147 76.7151L325.988 80.0702C326.291 80.6243 327.09 80.6243 327.393 80.0702L329.235 76.7151L332.6 74.8809C333.156 74.5774 333.156 73.7824 332.6 73.4788L329.235 71.6447L327.393 68.2896C327.09 67.7355 326.291 67.7355 325.988 68.2896Z" fill="#FFD37B"/>
<path d="M50.4381 157.959C50.4396 155.73 49.2369 153.647 47.2306 152.403C49.4218 149.878 48.9776 146.193 46.2384 144.173C45.1107 143.341 43.7091 142.889 42.2649 142.89C42.1741 142.89 42.0833 142.899 41.9925 142.902C43.0092 139.805 41.1094 136.533 37.7491 135.596C34.3887 134.659 30.8403 136.41 29.8234 139.508C29.4602 140.615 29.4602 141.796 29.8234 142.902C29.7326 142.902 29.6418 142.89 29.551 142.89C26.0432 142.887 23.1969 145.506 23.1936 148.74C23.1922 150.071 23.6832 151.363 24.5853 152.403C21.2565 154.468 20.374 158.63 22.6143 161.699C23.138 162.416 23.8073 163.033 24.5853 163.516C22.3941 166.041 22.8383 169.725 25.5774 171.746C26.7052 172.577 28.1068 173.03 29.551 173.029H42.2649C45.7727 173.032 48.619 170.413 48.6223 167.179C48.6237 165.847 48.1327 164.555 47.2306 163.516C49.2369 162.272 50.4395 160.188 50.4381 157.959Z" fill="#BFD730"/>
<path d="M42.9152 156.351C42.5656 156.019 41.9907 156.012 41.6311 156.334L36.8161 160.627V148.565C36.8161 148.103 36.4095 147.728 35.908 147.728C35.4065 147.728 34.9999 148.103 34.9999 148.565V154.497L30.8742 150.694C30.5135 150.373 29.9385 150.382 29.5901 150.714C29.2502 151.039 29.2502 151.553 29.5901 151.878L34.9999 156.865V168.311L31.1012 164.717C30.7405 164.395 30.1656 164.405 29.8171 164.737C29.4772 165.062 29.4772 165.576 29.8171 165.9L34.9999 170.678V186.238C34.9999 186.701 35.4065 187.075 35.908 187.075C36.4095 187.075 36.8161 186.701 36.8161 186.238V162.956L42.9007 157.537C43.2601 157.214 43.2677 156.684 42.9178 156.353C42.9169 156.352 42.916 156.352 42.9152 156.351Z" fill="#98AC26"/>
<path d="M344.936 157.959C344.938 155.73 343.735 153.647 341.729 152.403C343.92 149.878 343.476 146.193 340.737 144.173C339.609 143.341 338.207 142.889 336.763 142.89C336.672 142.89 336.581 142.899 336.491 142.902C337.507 139.805 335.608 136.533 332.247 135.596C328.887 134.659 325.338 136.41 324.322 139.508C323.958 140.615 323.958 141.796 324.322 142.902C324.231 142.902 324.14 142.89 324.049 142.89C320.541 142.887 317.695 145.506 317.692 148.74C317.69 150.071 318.181 151.363 319.083 152.403C315.755 154.468 314.872 158.63 317.112 161.699C317.636 162.416 318.305 163.033 319.083 163.516C316.892 166.041 317.336 169.725 320.076 171.746C321.203 172.577 322.605 173.03 324.049 173.029H336.763C340.271 173.032 343.117 170.413 343.12 167.179C343.122 165.847 342.631 164.555 341.729 163.516C343.735 162.272 344.938 160.188 344.936 157.959Z" fill="#BFD730"/>
<path d="M337.413 156.351C337.064 156.019 336.489 156.012 336.129 156.334L331.314 160.627V148.565C331.314 148.103 330.908 147.728 330.406 147.728C329.905 147.728 329.498 148.103 329.498 148.565V154.497L325.372 150.694C325.012 150.373 324.437 150.382 324.088 150.714C323.748 151.039 323.748 151.553 324.088 151.878L329.498 156.865V168.311L325.599 164.717C325.239 164.395 324.664 164.405 324.315 164.737C323.975 165.062 323.975 165.576 324.315 165.9L329.498 170.678V186.238C329.498 186.701 329.905 187.075 330.406 187.075C330.908 187.075 331.314 186.701 331.314 186.238V162.956L337.399 157.537C337.758 157.214 337.766 156.684 337.416 156.353C337.415 156.352 337.414 156.352 337.413 156.351Z" fill="#98AC26"/>
<path d="M110.341 187.691H250.084L250.268 73.1499C250.272 70.4127 248.055 68.1914 245.317 68.1914L114.546 68.1914C111.799 68.1914 109.577 70.4275 109.595 73.1742L110.341 187.691Z" fill="#00AB4E"/>
<mask id="mask0_257_100615" style="mask-type:luminance" maskUnits="userSpaceOnUse" x="109" y="68" width="142" height="120">
<path d="M110.341 187.691H250.084L250.268 73.1499C250.272 70.4127 248.055 68.1914 245.317 68.1914L114.546 68.1914C111.799 68.1914 109.577 70.4275 109.595 73.1742L110.341 187.691Z" fill="white"/>
</mask>
<g mask="url(#mask0_257_100615)">
<path d="M254.611 112.91C254.611 112.91 204.478 116.292 179.411 116.292C154.344 116.292 105.591 112.91 105.591 112.91V93.8491H254.611V112.91Z" fill="#00883E"/>
</g>
<path fill-rule="evenodd" clip-rule="evenodd" d="M155.737 129.402C155.737 127.483 154.181 125.927 152.262 125.927H122.963C121.044 125.927 119.488 127.483 119.488 129.402V186.641H155.737V129.402Z" fill="#E6F6ED"/>
<mask id="mask1_257_100615" style="mask-type:luminance" maskUnits="userSpaceOnUse" x="119" y="125" width="37" height="62">
<path fill-rule="evenodd" clip-rule="evenodd" d="M155.737 129.402C155.737 127.483 154.181 125.927 152.262 125.927H122.963C121.044 125.927 119.488 127.483 119.488 129.402V186.641H155.737V129.402Z" fill="white"/>
</mask>
<g mask="url(#mask1_257_100615)">
<rect width="6.12565" height="75.1791" transform="matrix(-0.819977 -0.572396 -0.574756 0.818325 151.162 117.932)" fill="#FEFEFE"/>
<rect width="14.0015" height="82.1725" transform="matrix(-0.819977 -0.572396 -0.574757 0.818324 167.256 125.934)" fill="#FEFEFE"/>
</g>
<path d="M193.355 111.564C197.23 111.564 200.371 108.676 200.371 105.115V99.3342H186.339V105.115C186.339 108.676 189.48 111.564 193.355 111.564Z" fill="#002E28"/>
<path d="M165.291 111.564C169.166 111.564 172.307 108.676 172.307 105.115V99.3342H158.274V105.115C158.275 108.676 161.416 111.564 165.291 111.564Z" fill="#002E28"/>
<path d="M221.419 111.564C225.294 111.564 228.436 108.676 228.436 105.115V99.3342H214.403V105.115C214.403 108.676 217.545 111.564 221.419 111.564Z" fill="#002E28"/>
<path d="M249.484 111.564C253.359 111.564 256.5 108.676 256.5 105.115C256.5 105.115 256.5 103.419 256.5 102.551C256.5 101.492 256.5 99.3342 256.5 99.3342H242.468V105.115C242.468 108.676 245.609 111.564 249.484 111.564Z" fill="#002E28"/>
<path d="M137.226 111.564C141.101 111.564 144.243 108.676 144.243 105.115V99.3342H130.21V105.115C130.21 108.676 133.351 111.564 137.226 111.564Z" fill="#002E28"/>
<path d="M207.388 111.564C211.262 111.564 214.404 108.676 214.404 105.115V99.3342H200.371V105.115C200.371 108.676 203.512 111.564 207.388 111.564Z" fill="#C7CFE2"/>
<path d="M151.259 111.564C155.133 111.564 158.275 108.676 158.275 105.115V99.3342H144.242V105.115C144.242 108.676 147.384 111.564 151.259 111.564Z" fill="#C7CFE2"/>
<path d="M109.162 111.564C113.037 111.564 116.178 108.676 116.178 105.115V99.3342H102.146V105.115C102.146 108.676 105.287 111.564 109.162 111.564Z" fill="#002E28"/>
<path d="M123.194 111.564C127.069 111.564 130.21 108.676 130.21 105.115V99.3342H116.178V105.115C116.178 108.676 119.32 111.564 123.194 111.564Z" fill="#C7CFE2"/>
<path d="M235.452 111.564C239.327 111.564 242.468 108.676 242.468 105.115V99.3342H228.436V105.115C228.436 108.676 231.577 111.564 235.452 111.564Z" fill="#C7CFE2"/>
<path d="M179.324 111.564C183.198 111.564 186.34 108.676 186.34 105.115V99.3342H172.307V105.115C172.307 108.676 175.449 111.564 179.324 111.564Z" fill="#C7CFE2"/>
<path d="M186.339 99.3324H200.372L198.92 79.7654H185.855L186.339 99.3324Z" fill="#004D43"/>
<path d="M158.275 99.3324H172.307L172.791 79.7654H159.726L158.275 99.3324Z" fill="#004D43"/>
<path d="M214.403 99.3324H228.436L225.048 79.7654H211.984L214.403 99.3324Z" fill="#004D43"/>
<path d="M242.468 99.3324H256.5L251.178 79.7654H238.113L242.468 99.3324Z" fill="#004D43"/>
<path d="M130.21 99.3324H144.242L146.662 79.7654H133.597L130.21 99.3324Z" fill="#004D43"/>
<path d="M200.372 99.3322H214.404L211.985 79.7653H198.92L200.372 99.3322Z" fill="#EFF2FA"/>
<path d="M144.242 99.3322H158.275L159.726 79.7653H146.662L144.242 99.3322Z" fill="#EFF2FA"/>
<path d="M102.146 99.3322H116.178L120.533 79.7653H107.468L102.146 99.3322Z" fill="#004D43"/>
<path d="M116.178 99.3322H130.21L133.598 79.7653H120.533L116.178 99.3322Z" fill="#EFF2FA"/>
<path d="M228.436 99.3322H242.468L238.113 79.7653H225.049L228.436 99.3322Z" fill="#EFF2FA"/>
<path d="M172.307 99.3322H186.34L185.855 79.7653H172.791L172.307 99.3322Z" fill="#EFF2FA"/>
<path d="M136.881 74.4609H221.418C222.171 74.4609 222.782 73.5714 222.782 72.474V52.6061C222.782 51.5086 222.171 50.6191 221.418 50.6191H136.881C136.128 50.6191 135.518 51.5086 135.518 52.6061V72.4744C135.518 73.5714 136.128 74.4609 136.881 74.4609Z" fill="white"/>
<rect width="72.5882" height="47.6517" rx="3.4744" transform="matrix(-1 0 0 1 239.457 126.04)" fill="#E6F6ED"/>
<mask id="mask2_257_100615" style="mask-type:luminance" maskUnits="userSpaceOnUse" x="166" y="126" width="74" height="48">
<rect width="72.5882" height="47.6517" rx="3.4744" transform="matrix(-1 0 0 1 239.457 126.04)" fill="white"/>
</mask>
<g mask="url(#mask2_257_100615)">
<rect width="6.12565" height="75.1791" transform="matrix(-0.819977 -0.572397 -0.574756 0.818325 206.542 116.703)" fill="#FEFEFE"/>
<rect width="14.0015" height="75.1791" transform="matrix(-0.819977 -0.572397 -0.574756 0.818325 222.636 124.705)" fill="#FEFEFE"/>
</g>
<path fill-rule="evenodd" clip-rule="evenodd" d="M172.204 69.0641C171.052 70.0704 169.701 70.6763 168.208 70.943C163.638 71.761 159.31 69.0611 158.048 64.6299C157.923 64.1898 157.833 63.743 157.785 63.2879C157.716 63.1524 157.812 62.9933 157.724 62.8601C157.724 62.4611 157.724 62.0621 157.724 61.6631C157.798 61.5492 157.743 61.4228 157.76 61.3028C157.79 59.6768 158.443 58.2731 159.368 56.9878C160.665 55.1884 162.442 54.0869 164.586 53.5565C164.93 53.4714 165.283 53.4602 165.636 53.4605C165.776 53.4423 165.923 53.5007 166.058 53.4244C166.435 53.4244 166.812 53.4244 167.189 53.4244C167.304 53.4981 167.432 53.4438 167.553 53.4608C169.279 53.5095 170.745 54.2219 172.097 55.2256C172.173 55.2819 172.233 55.3556 172.245 55.4562C172.216 55.6901 172.027 55.8127 171.877 55.9527C170.38 57.344 169.508 59.0636 169.238 61.0713C168.962 63.1242 169.352 65.0577 170.449 66.8322C170.834 67.4539 171.289 68.0184 171.826 68.5183C171.97 68.6533 172.128 68.7809 172.224 68.9614C172.237 68.9995 172.23 69.0338 172.204 69.0641Z" fill="#BCD430"/>
<path fill-rule="evenodd" clip-rule="evenodd" d="M172.204 69.0641C172.199 69.0423 172.197 69.0206 172.195 68.9986C172.68 68.5556 173.136 68.0859 173.536 67.5639C174.561 66.2248 175.137 64.7185 175.299 63.0371C175.452 61.4392 175.159 59.93 174.483 58.4929C173.999 57.4654 173.337 56.5562 172.475 55.8021C172.369 55.7097 172.248 55.6293 172.242 55.468C172.274 55.2849 172.431 55.2036 172.558 55.1094C173.57 54.3604 174.687 53.8311 175.919 53.5553C176.251 53.4808 176.592 53.4667 176.933 53.4608C177.074 53.4423 177.223 53.5007 177.359 53.4244C177.713 53.4244 178.066 53.4244 178.419 53.4244C178.555 53.5116 178.716 53.4174 178.854 53.484C180.668 53.6712 182.271 54.3472 183.65 55.5413C183.675 55.7253 183.533 55.8136 183.424 55.9122C182.442 56.8023 181.678 57.8495 181.209 59.0873C180.025 62.2135 180.462 65.1152 182.474 67.7845C182.722 68.114 183.014 68.403 183.304 68.6953C183.406 68.7985 183.554 68.8851 183.521 69.0705C182.472 70.0035 181.236 70.5809 179.877 70.8726C177.164 71.455 174.688 70.8978 172.47 69.2257C172.387 69.1623 172.316 69.079 172.204 69.0641Z" fill="#74BD45"/>
<path fill-rule="evenodd" clip-rule="evenodd" d="M165.625 53.4843C165.631 53.4647 165.633 53.4447 165.635 53.4245C165.776 53.4245 165.917 53.4245 166.059 53.4245C165.927 53.5398 165.773 53.4899 165.625 53.4843Z" fill="#D9E68B"/>
<path fill-rule="evenodd" clip-rule="evenodd" d="M176.929 53.485C176.934 53.465 176.936 53.4448 176.936 53.4242C177.077 53.4242 177.218 53.4242 177.36 53.4242C177.228 53.531 177.076 53.4911 176.929 53.485Z" fill="#BDDFA8"/>
<path fill-rule="evenodd" clip-rule="evenodd" d="M178.854 53.4839C178.705 53.4909 178.551 53.5426 178.419 53.4243C178.56 53.4243 178.701 53.4243 178.843 53.4243C178.844 53.4446 178.849 53.4642 178.854 53.4839Z" fill="#A7D58A"/>
<path fill-rule="evenodd" clip-rule="evenodd" d="M157.724 62.8601C157.829 62.9907 157.789 63.1418 157.785 63.2879C157.764 63.2879 157.744 63.2861 157.724 63.2826C157.724 63.1418 157.724 63.0009 157.724 62.8601Z" fill="#E5EEB1"/>
<path fill-rule="evenodd" clip-rule="evenodd" d="M167.542 53.4244C167.544 53.4437 167.546 53.4631 167.55 53.4825C167.425 53.4913 167.295 53.5294 167.189 53.4244C167.306 53.4244 167.424 53.4244 167.542 53.4244Z" fill="#E0EBA0"/>
<path fill-rule="evenodd" clip-rule="evenodd" d="M157.724 61.3109C157.742 61.3015 157.761 61.2983 157.781 61.3015C157.791 61.4265 157.829 61.5562 157.724 61.663C157.724 61.5456 157.724 61.4283 157.724 61.3109Z" fill="#DFEBA0"/>
<path fill-rule="evenodd" clip-rule="evenodd" d="M183.522 69.0698C182.949 68.4517 182.343 67.8628 181.891 67.1405C181.133 65.9287 180.663 64.6281 180.527 63.1981C180.298 60.7778 180.981 58.641 182.485 56.7559C182.834 56.3193 183.26 55.9441 183.65 55.5406C184.432 54.9794 185.235 54.4592 186.143 54.1089C191.431 52.068 197.3 55.474 198.114 61.063C198.812 65.8645 195.482 70.3849 190.699 71.0814C188.127 71.4558 185.802 70.8314 183.759 69.2121C183.686 69.1549 183.624 69.0784 183.522 69.0698Z" fill="#0AA94E"/>
<path fill-rule="evenodd" clip-rule="evenodd" d="M172.215 55.4703C172.235 55.4673 172.255 55.4691 172.275 55.475C172.976 56.102 173.603 56.7917 174.097 57.5951C174.838 58.7992 175.271 60.0972 175.393 61.5122C175.578 63.6766 175.024 65.6286 173.777 67.3911C173.386 67.9441 172.957 68.4728 172.411 68.8918C172.344 68.9425 172.283 68.9945 172.196 68.9989C170.293 67.3341 169.207 65.2624 169.084 62.7248C168.95 59.9731 169.919 57.6602 171.918 55.7678C172.02 55.671 172.116 55.5694 172.215 55.4703Z" fill="#0AA94E"/>
<path fill-rule="evenodd" clip-rule="evenodd" d="M185.406 59.4488C185.2 59.5712 185.054 59.6422 184.926 59.7375C184.743 59.8736 184.608 59.8443 184.485 59.6615C184.349 59.4594 184.482 59.3631 184.631 59.271C186.238 58.2752 187.984 57.8178 189.873 57.9583C191.351 58.0684 192.719 58.5422 193.998 59.2789C194.15 59.3664 194.334 59.4336 194.198 59.6741C194.07 59.9024 193.908 59.8648 193.725 59.7569C193.607 59.6873 193.485 59.6251 193.35 59.5518C193.335 59.6997 193.412 59.7938 193.457 59.8959C194.203 61.6141 194.952 63.3314 195.7 65.0492C195.925 65.565 195.838 65.8737 195.365 66.1896C194.927 66.483 194.429 66.6192 193.912 66.6902C193.017 66.8128 192.13 66.7952 191.258 66.5294C190.964 66.4396 190.684 66.319 190.439 66.1316C190.046 65.8308 189.97 65.5412 190.168 65.0853C190.967 63.2492 191.758 61.4096 192.577 59.5826C192.713 59.2786 192.639 59.1977 192.366 59.0929C190.338 58.3142 188.313 58.274 186.274 59.0486C186 59.1525 185.956 59.2493 186.076 59.5195C186.893 61.3603 187.692 63.2093 188.496 65.0554C188.715 65.5571 188.635 65.8619 188.183 66.1738C187.738 66.4813 187.228 66.6201 186.7 66.6919C185.805 66.8137 184.917 66.7949 184.045 66.5282C183.808 66.4558 183.582 66.3601 183.372 66.2284C182.84 65.8945 182.746 65.5923 182.997 65.0169C183.745 63.2991 184.493 61.5815 185.24 59.8637C185.289 59.7504 185.332 59.6348 185.406 59.4488Z" fill="#FEFEFE"/>
<path fill-rule="evenodd" clip-rule="evenodd" d="M183.586 64.9509C183.629 64.8353 183.649 64.7696 183.677 64.7068C184.354 63.15 185.031 61.5932 185.709 60.0359C185.795 60.0761 185.811 60.1447 185.839 60.2072C186.483 61.6895 187.125 63.1732 187.778 64.6513C187.883 64.8884 187.876 64.9597 187.586 64.9571C186.268 64.9433 184.95 64.9509 183.586 64.9509Z" fill="#0AA94E"/>
<path fill-rule="evenodd" clip-rule="evenodd" d="M195.102 64.9344C193.644 64.9344 192.239 64.9344 190.786 64.9344C191.502 63.2857 192.204 61.6685 192.941 59.9703C193.674 61.6527 194.378 63.2711 195.102 64.9344Z" fill="#0AA94E"/>
<path d="M252.013 189.436C252.013 187.517 250.458 185.961 248.539 185.961H109.563C107.644 185.961 106.088 187.517 106.088 189.436V192.889H252.013V189.436Z" fill="#004D43"/>
<path d="M108.185 148.326C106.789 139.548 97.846 128.926 98.8998 125.928C114.063 127.058 115.519 133.988 117.418 143.02L117.445 143.152C119.358 152.248 121.46 174.604 121.226 179.797C120.993 184.989 115.556 187.735 112.154 188.869H105.066L108.185 169.023C108.185 169.023 109.583 157.104 108.185 148.326Z" fill="#00AB4E"/>
<path d="M108.752 203.046C83.1213 209.397 60.8366 206.448 52.898 204.18L51.3579 221.887C50.455 232.269 50.6084 242.716 51.8158 253.066L55.0208 280.541H81H105.5L108.752 203.046Z" fill="#252528"/>
<path d="M82.1824 281V237.06L80.7568 239.198L77.5 281H82.1824Z" fill="#171718"/>
<path d="M87.172 233.496L83.6496 235.845C81.8239 237.062 80.6605 239.052 80.4956 241.24L77.5 281" stroke="#58585B" stroke-width="0.7128" stroke-linecap="round"/>
<path d="M112.12 151.525C112.12 140.69 105.23 129.665 100.715 126.577L105.705 172.196L109.982 173.621C110.457 169.82 112.12 162.359 112.12 151.525Z" fill="#00883E"/>
<path d="M66.1678 127.449L78.3521 126.174L93.282 126.225L100.47 126.007C119.189 144.188 106.956 177.536 107.501 185.322C108.2 191.943 110.694 211.399 110.694 211.399C106.775 213.686 99.8616 216.571 90.778 217.585C88.5976 215.676 87.2894 214.239 85.7464 214.25C84.1828 214.262 82.1824 217.102 80.044 217.585C72.1039 216.722 54.3832 214.963 49.3936 214.963C50.8633 204.591 58.1632 187.963 60.4801 179.899C61.7049 175.357 60.1484 166.694 59.254 156.934C59.254 156.934 68.2028 140.961 66.1678 127.449Z" fill="#00AB4E"/>
<path d="M86.0037 208.039C90.1678 186.802 89.6241 151.882 85.368 134.417L87.2903 171.28L86.0037 208.039Z" fill="#00883E"/>
<path fill-rule="evenodd" clip-rule="evenodd" d="M54.2529 196.523C55.1616 193.565 56.252 190.959 57.3277 188.388C58.4748 185.647 59.6052 182.945 60.4802 179.9C60.9968 177.984 61.0186 175.335 60.8039 172.179L62.2241 167.919L80.0441 162.929L92.8745 144.396C93.2646 144.461 93.74 144.427 94.26 144.389C95.6404 144.288 97.3343 144.165 98.5769 145.822C99.9111 147.601 98.7306 155.276 97.8083 161.274C97.5479 162.966 97.3082 164.525 97.1513 165.78L109.562 170.745C109.243 172.811 108.906 174.751 108.598 176.521C107.915 180.458 107.377 183.552 107.501 185.322C107.723 187.426 107.928 189.996 108.104 192.523L91.6959 183.294C88.8603 181.699 85.4252 181.586 82.4913 182.992L54.2529 196.523Z" fill="#252528" fill-opacity="0.2"/>
<path d="M60.7985 172.908C67.6414 160.363 70.0649 142.02 67.9265 132.991L55.0961 172.908H60.7985Z" fill="#00883E"/>
<path fill-rule="evenodd" clip-rule="evenodd" d="M96.317 75.9205C104.099 79.3978 107.863 91.1043 105.569 101.337C102.497 115.037 110.592 116.768 104.565 120.315C98.5377 123.863 76.7961 131.485 63.1389 118.546C59.4368 115.039 63.85 101.351 63.781 93.2852C63.6746 80.8268 72.5116 71.8 84.2337 74.9061C84.2337 74.9061 88.5348 72.4432 96.317 75.9205Z" fill="#252528"/>
<path fill-rule="evenodd" clip-rule="evenodd" d="M93.4221 114.641C93.4221 114.641 93.4844 120.109 93.9042 124.35C94.0692 126.016 93.9381 127.77 92.8343 129.037C90.7529 131.424 86.1691 134.227 77.8847 128.331C76.9883 127.693 76.5019 126.626 76.5168 125.519C76.5597 122.335 76.5507 115.711 75.8056 113.255L93.4221 114.641Z" fill="#F2CBA8"/>
<path fill-rule="evenodd" clip-rule="evenodd" d="M76.2681 115.824C79.6894 119.284 85.4899 122.427 92.6166 119.613L93.517 119.353C93.4815 118.762 93.4511 118.179 93.425 117.62L92.8695 115.627C91.7841 115.41 90.4574 115.138 89.0117 114.841C84.5769 113.932 79.0215 112.793 75.8734 112.292C76.0579 113.229 76.1836 114.473 76.2681 115.824Z" fill="#E79E5C"/>
<path fill-rule="evenodd" clip-rule="evenodd" d="M75.8035 95.3994C90.0212 92.5874 96.0247 86.6824 97.1435 84.4683C99.816 91.576 102.927 100.272 101.007 109.148C101.007 109.148 99.2914 122.722 83.7823 118.437C83.7823 118.437 77.1543 116.786 73.6042 111.792C70.1557 105.742 70.0897 103.677 69.5296 98.5052C70.9142 97.9092 71.642 100.437 72.3032 102.048C72.7623 103.166 77.1396 106.905 75.8035 95.3994Z" fill="#F2CBA8"/>
<path fill-rule="evenodd" clip-rule="evenodd" d="M94.5106 111.337C94.3741 111.179 94.1379 111.164 93.983 111.304C93.0424 112.149 90.5449 113.405 88.0417 111.773C87.868 111.66 87.6367 111.712 87.5252 111.889C87.4136 112.066 87.4641 112.301 87.6378 112.414C90.5397 114.306 93.4096 112.833 94.4772 111.874C94.6321 111.735 94.6471 111.494 94.5106 111.337Z" fill="#E79E5C"/>
<path fill-rule="evenodd" clip-rule="evenodd" d="M93.9737 98.7385C94.1304 98.6194 94.352 98.6516 94.4687 98.8105C94.7862 99.2429 95.5702 100.421 95.9492 101.796C96.3298 103.177 96.3181 104.838 94.9093 106.091C94.7621 106.222 94.5387 106.207 94.4103 106.057C94.282 105.908 94.2973 105.681 94.4445 105.55C95.5621 104.556 95.6115 103.238 95.2681 101.992C94.9232 100.741 94.1979 99.6457 93.9014 99.2419C93.7847 99.083 93.8171 98.8577 93.9737 98.7385Z" fill="#E79E5C"/>
<path fill-rule="evenodd" clip-rule="evenodd" d="M70.5822 99.0878C70.4632 98.6254 70.0586 98.307 69.5893 98.3088C67.8527 98.3155 65.3059 99.0916 65.3636 103.461C65.8589 108.617 70.5236 108.986 72.9781 109.197C73.6941 109.259 74.2556 108.582 74.0725 107.873L70.5822 99.0878Z" fill="#F2CBA8"/>
<path d="M89.4721 138.402L88.9051 140.671L84.9358 171.858L94.859 180.08L101.096 169.023L95.1425 167.322C95.7096 166.188 96.8437 162.785 96.5601 158.249C97.1272 154.941 98.1479 147.985 97.6942 146.625C97.2406 145.264 95.8041 145.869 95.1425 146.341C95.4261 145.491 95.7663 143.676 95.9931 143.222C96.2766 142.655 96.5601 141.238 95.7096 140.671C95.0291 140.217 94.3865 140.576 94.0085 140.954C94.3865 140.104 94.6322 139.423 94.859 138.97C95.1425 138.402 94.859 137.268 93.7249 136.985C92.8177 136.758 92.3073 137.835 92.0238 138.402C91.3434 137.042 89.9447 137.835 89.4721 138.402Z" fill="#F9BB89"/>
<path d="M81.2502 151.756C82.6678 148.07 82.6678 147.219 83.5183 147.219C84.7602 147.219 84.6965 150.048 84.2804 152.846C84.9834 148.851 86.545 142.099 88.3382 139.281C88.7162 139.092 90.096 138.884 90.3228 139.564C90.5118 138.903 91.1167 137.636 92.0239 137.863C93.158 138.147 93.4415 138.714 93.158 139.564C92.9312 140.245 92.4965 141.738 92.3075 142.4C92.4965 142.211 92.8745 141.549 94.0086 141.833C94.8888 142.053 94.9536 143.156 94.8591 143.817L94.0086 148.07C94.3866 147.503 95.3128 146.482 95.9932 146.936C96.8438 147.503 96.5603 149.204 96.2767 150.055C96.0499 150.735 95.4262 154.307 95.1427 156.009C95.1427 158.277 94.5756 169.307 88.3382 172.709L60.8367 187.736V171.008L79.549 164.487C79.549 161.527 78.982 157.993 80.6831 154.024C80.8448 153.117 81.0269 152.336 81.2502 151.756Z" fill="#FCC99E"/>
<path d="M94.0086 148.07L92.8745 153.74" stroke="#F5AF75" stroke-width="0.567041" stroke-linecap="round"/>
<path d="M92.024 142.967L90.3229 152.323" stroke="#F5AF75" stroke-width="0.567041" stroke-linecap="round"/>
<path d="M90.3229 140.131C89.4723 143.344 87.7145 150.224 87.4877 152.039" stroke="#F5AF75" stroke-width="0.567041" stroke-linecap="round"/>
<path d="M67.3825 146.409C68.7782 137.631 67.7729 130.422 66.719 127.424C51.5563 128.554 50.0996 135.484 48.201 144.517L48.1734 144.648C46.2609 153.745 43.0368 177.998 43.2703 183.191C43.5038 188.384 43.9937 190.859 46.5059 192.211C49.0193 193.564 53.1815 191.704 61.9707 188.302C68.5512 185.467 83.1893 177.167 87.4421 174.048L84.285 171.389C82.5911 169.963 81.1078 168.304 79.8794 166.461L78.7256 164.73L62.5377 169.023C62.5377 169.023 65.9841 155.186 67.3825 146.409Z" fill="#00AB4E"/>
<path fill-rule="evenodd" clip-rule="evenodd" d="M121.146 175.619C121.236 177.434 121.268 178.882 121.226 179.797C121.169 181.082 120.792 182.218 120.206 183.216L109.886 171.291L117.038 172.543C118.857 172.861 120.362 174.031 121.146 175.619Z" fill="#00883E"/>
<path d="M96.4592 167.435C94.6558 173.446 91.3851 174.21 88.6444 175.25L108.185 191.137C113.263 190.527 123.117 184.869 121.046 176.973C120.538 175.039 118.741 173.82 116.819 173.269L96.4592 167.435Z" fill="#00AB4E"/>
<path d="M61.1201 169.307C58.852 169.779 53.5785 171.632 50.6299 175.261C51.575 173.087 54.9961 168.853 61.1201 169.307Z" fill="#00883E"/>
<path d="M249.921 287.249L248.718 199.181L306.868 198.53V286.205L249.921 287.249Z" fill="#252528"/>
<path fill-rule="evenodd" clip-rule="evenodd" d="M292.607 64.4698C292.607 64.4698 319.355 75.2667 296.108 98.5198L292.82 101.941L292.607 64.4698Z" fill="#252528"/>
<path d="M295.067 115.465C293.53 113.622 291.547 112.205 289.274 111.432C284.555 109.826 279.449 109.75 275.385 110.112C271.685 110.442 268.175 112.119 265.833 115.002C264.391 116.776 261.376 116.978 257.706 117.502C249.402 118.689 246.172 123.794 245.123 125.891C244.074 127.988 234.781 160.708 234.781 160.708C233.513 167.75 235.475 178.296 246.614 174.534C246.614 182.922 248.718 202.487 248.718 202.487C253.279 204.92 256.671 205.93 262.545 206.996C263.635 207.194 264.137 201.135 265.25 201.285C266.363 201.435 269.953 208.513 270.961 208.609C284.111 209.864 298.119 207.865 307.33 202.487C307.931 197.678 306.428 191.522 306.428 188.961C315.956 182.304 322.058 178.141 322.058 178.141C322.058 178.141 324.463 135.159 310.136 125.891C305.144 122.074 297.942 118.911 295.067 115.465Z" fill="#00AB4E"/>
<path d="M245.567 140.794C246.137 128.819 249.131 125.825 250.556 125.825L249.131 162.178L245.567 163.603C245.329 160.99 244.996 152.769 245.567 140.794Z" fill="#00883E"/>
<path fill-rule="evenodd" clip-rule="evenodd" d="M306.782 191.819C307.278 195.859 307.586 199.23 307.538 201.557C307.484 201.878 307.415 202.189 307.33 202.487C298.119 207.866 284.111 209.865 270.961 208.609C270.466 208.562 269.348 206.831 268.207 205.064C267.024 203.232 265.816 201.362 265.25 201.285C264.692 201.21 264.288 202.693 263.886 204.168C263.486 205.636 263.089 207.095 262.545 206.996C256.671 205.93 253.279 204.92 248.718 202.487C248.718 202.487 246.614 182.923 246.614 174.534C246.554 174.554 246.495 174.574 246.435 174.594C246.428 172.187 246.481 169.835 246.614 167.62C246.976 161.585 246.951 155.307 246.927 149.41C246.891 140.622 246.858 132.68 248.117 127.644C249.218 125.772 249.997 124.384 250.645 123.229C251.654 121.43 252.346 120.195 253.448 118.576C254.692 118.106 256.105 117.731 257.706 117.503C258.13 117.442 258.546 117.386 258.951 117.331C262.052 116.911 264.558 116.571 265.833 115.002C268.175 112.119 271.685 110.442 275.385 110.112C279.449 109.75 284.555 109.827 289.274 111.432C291.547 112.206 293.53 113.622 295.067 115.465C296.772 117.508 299.997 119.452 303.381 121.491C305.705 122.891 308.103 124.337 310.136 125.891C310.755 126.291 311.342 126.754 311.9 127.274C297.119 123.18 301.841 156.508 305.286 180.823C305.697 183.725 306.09 186.499 306.43 189.066C306.444 189.751 306.591 190.707 306.782 191.819Z" fill="#00AB4E"/>
<path fill-rule="evenodd" clip-rule="evenodd" d="M303.022 163.733C303.686 169.534 304.518 175.402 305.286 180.822V180.823C305.697 183.725 306.09 186.499 306.43 189.066C306.438 189.492 306.499 190.022 306.589 190.63L267.663 172.156L247.334 187.742C246.94 182.857 246.614 177.832 246.614 174.534C246.554 174.554 246.495 174.574 246.435 174.593C246.428 172.186 246.481 169.834 246.614 167.62C246.796 164.596 246.88 161.511 246.915 158.443L259.823 154.336H275.504L303.022 163.733Z" fill="#252528" fill-opacity="0.2"/>
<path fill-rule="evenodd" clip-rule="evenodd" d="M309.64 126.93C299.634 126.829 301.02 148.362 303.644 168.841C302.578 167.057 300.749 160.512 299.739 144.357C298.722 128.075 305.195 126.283 309.64 126.93Z" fill="#00883E"/>
<path d="M266.044 200.663C264.446 179.081 269.157 144.477 275.469 127.644L269.157 164.014L266.044 200.663Z" fill="#00883E"/>
<path fill-rule="evenodd" clip-rule="evenodd" d="M266.095 105.641C266.095 105.641 270.29 110.884 268.192 116.127C268.192 116.127 271.338 130.807 290.212 116.127C290.212 116.127 289.164 107.738 290.212 103.544L266.095 105.641Z" fill="#F9BB89"/>
<path fill-rule="evenodd" clip-rule="evenodd" d="M296.964 71.9841C288.817 57.6214 268.092 62.0504 262.843 77.7065C260.752 83.9431 259.646 91.4195 261.729 99.0627C261.729 99.0627 264.335 113.661 281.264 108.078C281.264 108.078 290.555 106.118 294.221 100.492C297.886 94.8671 299.56 89.8982 299.909 84.2621C300.259 78.6265 299.602 76.6349 296.964 71.9841Z" fill="#FCC99E"/>
<path d="M276.362 119.529C275.209 118.279 269.998 115.286 267.654 114.119L266.151 117.425C267.673 119.492 271.562 122.535 276.362 124.464C280.825 126.257 287.992 119.517 290.804 116.922L290.804 113.217C288.049 114.41 280.968 118.246 279.978 118.928C278.988 119.61 278.419 121.153 277.874 122.234C276.972 121.332 277.515 120.779 276.362 119.529Z" fill="#00AB4E"/>
<path fill-rule="evenodd" clip-rule="evenodd" d="M267.807 94.7321C267.703 94.7664 267.587 94.7683 267.476 94.7306C266.388 94.3646 265.67 93.6762 265.344 92.6868C264.265 89.4162 268.077 83.8915 268.241 83.6579C268.407 83.4213 268.734 83.3618 268.97 83.5274C269.207 83.6933 269.267 84.0198 269.101 84.2574C268.075 85.7298 265.58 90.0566 266.34 92.3588C266.561 93.0272 267.042 93.478 267.81 93.7371C268.085 93.8295 268.233 94.1268 268.14 94.401C268.085 94.5642 267.958 94.6821 267.807 94.7321Z" fill="#F5AF75"/>
<path fill-rule="evenodd" clip-rule="evenodd" d="M298.233 68.1356C298.233 68.1356 288.678 49.2043 264.417 66.0381C264.417 66.0381 261.233 68.41 258.718 69.3267C257.927 69.6146 257.756 70.6536 258.421 71.1696C262.007 73.953 271.712 79.0903 289.928 73.083C289.928 73.083 297.894 70.4555 298.233 68.1356Z" fill="#252528"/>
<path fill-rule="evenodd" clip-rule="evenodd" d="M288.012 71.624C288.012 71.624 287.737 84.9009 288.035 90.3714C288.07 91.0185 288.943 91.1949 289.235 90.6158L292.039 84.6196L294.221 100.493L302.886 86.5932L298.299 69.3358L288.012 71.624Z" fill="#252528"/>
<path fill-rule="evenodd" clip-rule="evenodd" d="M291.791 85.29C291.807 84.8796 292.095 84.5347 292.496 84.4454C293.981 84.1152 297.431 83.872 297.985 88.54C298.509 92.9541 294.641 94.778 292.583 95.4296C291.983 95.6196 291.379 95.161 291.405 94.532L291.791 85.29Z" fill="#FCC99E"/>
<path fill-rule="evenodd" clip-rule="evenodd" d="M274.499 100.812C273.113 101.269 271.366 101.556 269.24 101.393C268.951 101.372 268.735 101.12 268.757 100.831C268.78 100.542 269.032 100.326 269.32 100.348C275.067 100.786 277.73 97.7091 277.84 97.5786C278.027 97.3569 278.357 97.3291 278.579 97.5138C278.8 97.6987 278.83 98.0279 278.645 98.25C278.564 98.3487 277.23 99.9116 274.499 100.812Z" fill="#F5AF75"/>
<path fill-rule="evenodd" clip-rule="evenodd" d="M234.658 164.629C234.571 166.406 234.541 167.824 234.581 168.726C234.641 170.042 235.034 171.202 235.644 172.217L246.314 160.407L238.879 161.546C237.014 161.832 235.462 163.011 234.658 164.629Z" fill="#00883E"/>
<path d="M269.94 126.376L270.192 128.987L269.41 164.255L257.032 171.728L252.325 159.806L258.839 157.524C258.398 156.171 257.705 152.207 258.774 147.22C258.695 143.455 258.719 135.567 259.449 134.133C260.179 132.698 261.672 133.608 262.328 134.242C262.155 133.251 262.079 131.181 261.903 130.64C261.682 129.964 261.603 128.343 262.642 127.856C263.472 127.466 264.126 127.971 264.482 128.453C264.204 127.447 264.045 126.651 263.868 126.11C263.648 125.433 264.151 124.222 265.457 124.096C266.501 123.995 266.888 125.275 267.109 125.952C268.09 124.555 269.51 125.668 269.94 126.376Z" fill="#F9BB89"/>
<path d="M276.844 142.559C275.883 138.234 276.025 137.29 275.081 137.148C273.703 136.942 273.303 140.091 273.3 143.266C273.184 138.715 272.574 130.963 271.053 127.538C270.665 127.265 269.168 126.805 268.803 127.522C268.704 126.757 268.243 125.251 267.199 125.352C265.893 125.478 265.484 126.06 265.657 127.051C265.796 127.844 266.03 129.573 266.13 130.338C265.951 130.097 265.642 129.3 264.336 129.426C263.323 129.524 263.067 130.737 263.062 131.487L263.299 136.348C262.974 135.656 262.116 134.369 261.285 134.759C260.247 135.247 260.279 137.182 260.452 138.173C260.59 138.966 260.689 143.033 260.72 144.968C260.343 147.485 259.138 159.82 265.494 164.632L296.398 182.349L297.3 166.418L276.614 156.97C277.106 153.685 278.323 149.858 277.096 145.171C277.067 144.137 276.995 143.241 276.844 142.559Z" fill="#FCC99E"/>
<path d="M263.299 136.348L263.614 142.829" stroke="#F5AF75" stroke-width="0.567048" stroke-linecap="round"/>
<path d="M266.35 131.015L266.682 141.68" stroke="#F5AF75" stroke-width="0.567048" stroke-linecap="round"/>
<path d="M268.709 128.152C269.119 131.859 269.925 139.786 269.875 141.837" stroke="#F5AF75" stroke-width="0.567048" stroke-linecap="round"/>
<path d="M256.533 158.003C256.533 163.22 259.503 168.685 262.244 169.725L247.398 179.982C246.312 180.733 244.973 181.103 243.728 180.665C238.785 178.927 232.673 173.089 234.67 166.053C235.244 164.03 237.146 162.773 239.189 162.27L256.533 158.003Z" fill="#00AB4E"/>
<path d="M278.965 157.101C275.839 163.594 270.449 166.62 268.144 167.321L303.825 187.921C306.67 189.563 310.099 190.337 313.078 188.954C316.562 187.336 318.964 184.841 320.53 181.996C323.939 175.803 318.465 169.245 311.708 167.168L278.965 157.101Z" fill="#00AB4E"/>
<path d="M305.827 165.517C309.735 167.02 318.031 170.747 319.954 173.633C319.153 171.629 315.205 167.201 305.827 165.517Z" fill="#00883E"/>
<path d="M281.5 282H276L272.868 233.019L274.056 234.009L281.5 282Z" fill="#171718"/>
<path d="M273.653 233.744L281.5 280.5" stroke="#58585B" stroke-width="0.7128" stroke-linecap="round"/>
<path d="M269.376 228.042C270.327 229.943 273.225 234.172 277.217 235.883" stroke="#58585B" stroke-width="0.7128" stroke-linecap="round"/>
</g>
<defs>
<clipPath id="clip0_257_100615">
<rect width="360" height="280" fill="white"/>
</clipPath>
</defs>
</svg>
