<svg width="48" height="48" viewBox="0 0 48 48" fill="none" xmlns="http://www.w3.org/2000/svg">
<circle cx="24" cy="24" r="24" fill="#F1F8EC"/>
<rect x="11" y="11" width="11.375" height="11.375" rx="3.25" fill="#00883E"/>
<mask id="mask0_1031_172791" style="mask-type:luminance" maskUnits="userSpaceOnUse" x="11" y="11" width="12" height="12">
<rect x="11" y="11" width="11.375" height="11.375" rx="3.25" fill="white"/>
</mask>
<g mask="url(#mask0_1031_172791)">
<rect x="9.375" y="10.1875" width="11.375" height="11.375" rx="3.25" fill="#40BD63"/>
</g>
<rect x="25.625" y="11" width="11.375" height="11.375" rx="3.25" fill="#00883E"/>
<mask id="mask1_1031_172791" style="mask-type:luminance" maskUnits="userSpaceOnUse" x="25" y="11" width="12" height="12">
<rect x="25.625" y="11" width="11.375" height="11.375" rx="3.25" fill="white"/>
</mask>
<g mask="url(#mask1_1031_172791)">
<rect x="24" y="10.1875" width="11.375" height="11.375" rx="3.25" fill="#40BD63"/>
</g>
<rect x="25.625" y="25.625" width="11.375" height="11.375" rx="3.25" fill="#00883E"/>
<mask id="mask2_1031_172791" style="mask-type:luminance" maskUnits="userSpaceOnUse" x="25" y="25" width="12" height="12">
<rect x="25.625" y="25.625" width="11.375" height="11.375" rx="3.25" fill="white"/>
</mask>
<g mask="url(#mask2_1031_172791)">
<rect x="24" y="24.8125" width="11.375" height="11.375" rx="3.25" fill="#40BD63"/>
</g>
<rect x="11" y="25.625" width="11.375" height="11.375" rx="3.25" fill="#00883E"/>
<mask id="mask3_1031_172791" style="mask-type:luminance" maskUnits="userSpaceOnUse" x="11" y="25" width="12" height="12">
<rect x="11" y="25.625" width="11.375" height="11.375" rx="3.25" fill="white"/>
</mask>
<g mask="url(#mask3_1031_172791)">
<rect x="9.375" y="24.8125" width="11.375" height="11.375" rx="3.25" fill="#40BD63"/>
</g>
</svg>
