<svg width="48" height="48" viewBox="0 0 48 48" fill="none" xmlns="http://www.w3.org/2000/svg">
<circle cx="24" cy="24" r="24" fill="#F1F8EC"/>
<path fill-rule="evenodd" clip-rule="evenodd" d="M15.3749 15.75L10.4999 29.25V30.375H20.2499V29.25L15.3749 15.75Z" stroke="#00662E" stroke-width="1.5" stroke-linecap="round" stroke-linejoin="round"/>
<path d="M20.9999 30.7227V29.25H9.74989V30.7227C9.74989 30.7227 9.74989 35.25 15.3749 35.25C20.9999 35.25 20.9999 30.7227 20.9999 30.7227Z" fill="#00883E"/>
<path d="M18.7499 30.7227V29.25H9.7499C9.7499 29.25 9.74983 28.8203 9.7499 30.7227C9.74997 32.6251 11.2499 35.2501 14.6249 35.25C18.5656 35.2502 18.7499 31.5001 18.7499 30.7227Z" fill="#00AB4E"/>
<path fill-rule="evenodd" clip-rule="evenodd" d="M32.6249 15.75L27.7499 29.25V30.375H37.4999V29.25L32.6249 15.75Z" stroke="#00662E" stroke-width="1.5" stroke-linecap="round" stroke-linejoin="round"/>
<path d="M38.2499 30.7227V29.25H26.9999V30.7227C26.9999 30.7227 26.9999 35.25 32.6249 35.25C38.2499 35.25 38.2499 30.7227 38.2499 30.7227Z" fill="#00883E"/>
<path d="M35.9999 30.7227V29.25H26.9999C26.9999 29.25 26.9998 28.8203 26.9999 30.7227C27 32.6251 28.4999 35.2501 31.8749 35.25C35.8156 35.2502 35.9999 31.5001 35.9999 30.7227Z" fill="#00AB4E"/>
<path d="M11.9999 17.1331C11.9999 16.7465 12.219 16.3967 12.5726 16.2403C14.3603 15.4496 19.9597 13.125 23.9999 13.125C28.0401 13.125 33.6395 15.4496 35.4272 16.2403C35.7808 16.3967 35.9999 16.7465 35.9999 17.1331V18.05C35.9999 18.6023 35.5522 19.05 34.9999 19.05H34.0527C33.8553 19.05 33.6637 18.9904 33.495 18.8877C31.1749 17.4748 26.9071 16.5 23.9999 16.5C20.4819 16.5 15.7233 18.0912 13.3971 18.9559C12.7276 19.2048 11.9999 18.7118 11.9999 17.9975V17.1331Z" fill="#00883E"/>
<path d="M11.9999 17.1331C11.9999 16.7465 12.219 16.3967 12.5726 16.2403C14.3603 15.4496 19.9597 13.125 23.9999 13.125C28.0099 13.125 32.5382 15.415 34.01 16.2224C34.3181 16.3914 34.4999 16.7151 34.4999 17.0665V17.8395C34.4999 18.593 33.6905 19.0927 33.0013 18.7882C30.9938 17.901 27.3009 16.5 23.9999 16.5C20.4819 16.5 15.7233 18.0912 13.3971 18.9559C12.7276 19.2048 11.9999 18.7118 11.9999 17.9975V17.1331Z" fill="#00AB4E"/>
<path fill-rule="evenodd" clip-rule="evenodd" d="M25.4999 14.6246C25.4999 15.6608 24.6601 16.5 23.6249 16.5C22.5897 16.5 21.7499 15.6608 21.7499 14.6246C21.7499 13.5892 22.5897 12.75 23.6249 12.75C24.6601 12.75 25.4999 13.5892 25.4999 14.6246Z" fill="#9BB20E"/>
<path fill-rule="evenodd" clip-rule="evenodd" d="M24.7499 14.6246C24.7499 15.6608 23.9101 16.5 22.8749 16.5C21.8397 16.5 20.9999 15.6608 20.9999 14.6246C20.9999 13.5892 21.8397 12.75 22.8749 12.75C23.9101 12.75 24.7499 13.5892 24.7499 14.6246Z" fill="#BFD730"/>
<path d="M38.55 33.525C38.55 36.3005 36.3005 38.55 33.525 38.55C30.7495 38.55 28.5 36.3005 28.5 33.525C28.5 30.7495 30.7495 28.5 33.525 28.5C36.3005 28.5 38.55 30.7495 38.55 33.525Z" fill="#E07E26" stroke="white"/>
<path fill-rule="evenodd" clip-rule="evenodd" d="M31.3464 33.4622V34.9589H30.5553V31.1078H32.2196C32.6443 31.1078 32.9653 31.207 33.1828 31.4055C33.4003 31.604 33.509 31.8908 33.509 32.2659C33.509 32.5572 33.4328 32.8012 33.2804 32.9978C33.128 33.1945 32.9131 33.3238 32.6357 33.3857C32.8241 33.4367 32.9833 33.5805 33.1135 33.8172L33.6991 34.9589H32.8258L32.1991 33.7298C32.1477 33.6351 32.0861 33.5669 32.0142 33.525C31.9422 33.4831 31.8515 33.4622 31.7419 33.4622H31.3464ZM31.336 32.8176H32.1014C32.3309 32.8176 32.497 32.7748 32.5997 32.6893C32.7024 32.6037 32.7538 32.4698 32.7538 32.2878C32.7538 32.102 32.7024 31.9673 32.5997 31.8835C32.497 31.7998 32.3309 31.7579 32.1014 31.7579H31.336V32.8176ZM34.8703 35.9423V34.5766C34.9456 34.7114 35.0526 34.8161 35.1913 34.8907C35.33 34.9654 35.485 35.0027 35.6562 35.0027C35.8754 35.0027 36.0689 34.9463 36.2367 34.8334C36.4045 34.7205 36.5355 34.5593 36.6296 34.3499C36.7238 34.1405 36.7709 33.8975 36.7709 33.6207C36.7709 33.3439 36.7238 33.099 36.6296 32.886C36.5355 32.6729 36.4036 32.5072 36.2341 32.3889C36.0646 32.2705 35.872 32.2113 35.6562 32.2113C35.4815 32.2113 35.324 32.2505 35.1836 32.3288C35.0432 32.4071 34.9353 32.5154 34.86 32.6538V32.2769H34.0946V35.9423H34.8703ZM35.0089 34.175C35.1083 34.3079 35.2487 34.3744 35.4302 34.3744C35.6117 34.3744 35.7521 34.3098 35.8514 34.1805C35.9507 34.0512 36.0004 33.8646 36.0004 33.6206C36.0004 33.3729 35.9507 33.1808 35.8514 33.0443C35.7521 32.9077 35.6117 32.8394 35.4302 32.8394C35.2487 32.8394 35.1083 32.9059 35.0089 33.0388C34.9096 33.1717 34.86 33.362 34.86 33.6096C34.86 33.8536 34.9096 34.0421 35.0089 34.175Z" fill="white"/>
</svg>
