<svg width="48" height="48" viewBox="0 0 48 48" fill="none" xmlns="http://www.w3.org/2000/svg">
<circle cx="24" cy="24" r="24" fill="#F1F8EC"/>
<path fill-rule="evenodd" clip-rule="evenodd" d="M19.911 10.82C19.9979 10.3451 20.4118 10 20.8947 10L29.2615 10C29.964 10 30.4475 10.7052 30.1943 11.3604L26.7202 20.352C26.467 21.0072 26.9505 21.7124 27.653 21.7124H31.3745C31.6196 21.7124 31.7613 21.9904 31.6172 22.1887L20.1448 37.9813C19.9609 38.2345 19.5608 38.0723 19.6051 37.7625L21.0193 27.874C21.1055 27.2715 20.638 26.7324 20.0294 26.7324H18.1995C17.5752 26.7324 17.1035 26.1666 17.2159 25.5524L19.911 10.82Z" fill="#CC9D3F"/>
<mask id="mask0_1031_172785" style="mask-type:luminance" maskUnits="userSpaceOnUse" x="17" y="10" width="15" height="29">
<path fill-rule="evenodd" clip-rule="evenodd" d="M19.911 10.82C19.9979 10.3451 20.4118 10 20.8947 10L29.2615 10C29.964 10 30.4475 10.7052 30.1943 11.3604L26.7202 20.352C26.467 21.0072 26.9505 21.7124 27.653 21.7124H31.3745C31.6196 21.7124 31.7613 21.9904 31.6172 22.1887L20.1448 37.9813C19.9609 38.2345 19.5608 38.0723 19.6051 37.7625L21.0193 27.874C21.1055 27.2715 20.638 26.7324 20.0294 26.7324H18.1995C17.5752 26.7324 17.1035 26.1666 17.2159 25.5524L19.911 10.82Z" fill="white"/>
</mask>
<g mask="url(#mask0_1031_172785)">
<path fill-rule="evenodd" clip-rule="evenodd" d="M22.2656 11.6571C22.3524 11.182 22.7663 10.8369 23.2493 10.8369L31.7311 10.8369C32.4445 10.8369 32.9285 11.5624 32.6544 12.2211L29.2809 20.3283C29.0068 20.9869 29.4908 21.7125 30.2042 21.7125H33.8849C34.13 21.7125 34.2717 21.9905 34.1276 22.1888L22.6552 37.9814C22.4713 38.2346 22.0712 38.0724 22.1155 37.7626L23.5297 27.8741C23.6159 27.2716 23.1484 26.7325 22.5398 26.7325H20.7097C20.0855 26.7325 19.6138 26.1668 19.726 25.5527L22.2656 11.6571Z" fill="#FFC54F"/>
</g>
</svg>
