<svg width="18" height="18" viewBox="0 0 18 18" fill="none" xmlns="http://www.w3.org/2000/svg">
<path fill-rule="evenodd" clip-rule="evenodd" d="M9 16.5C13.1421 16.5 16.5 13.1421 16.5 9C16.5 4.85786 13.1421 1.5 9 1.5C4.85786 1.5 1.5 4.85786 1.5 9C1.5 13.1421 4.85786 16.5 9 16.5ZM8.64183 5.16C8.73068 4.97757 8.95631 4.89903 9.14579 4.98457C9.22595 5.02076 9.29042 5.08283 9.32801 5.16L10.3348 7.22714L12.7392 7.51639C12.9336 7.53977 13.0715 7.71043 13.0472 7.89756C13.0379 7.96953 13.005 8.03657 12.9537 8.08914L12.9377 8.10447L11.1691 9.69915L11.6166 11.9412C11.6561 12.1391 11.5215 12.3303 11.316 12.3684C11.229 12.3844 11.139 12.3707 11.0614 12.3295L8.98492 11.2269L6.90839 12.3295C6.72513 12.4269 6.49464 12.3627 6.39357 12.1863C6.35081 12.1116 6.33655 12.0249 6.35325 11.9412L6.80077 9.69915L5.06989 8.13851C4.91714 8.00078 4.90927 7.76991 5.05233 7.62284C5.11285 7.56063 5.19408 7.52078 5.28193 7.51021L7.63504 7.22714L8.64183 5.16Z" fill="#444444"/>
<mask id="mask0_1031_172908" style="mask-type:luminance" maskUnits="userSpaceOnUse" x="1" y="1" width="16" height="16">
<path fill-rule="evenodd" clip-rule="evenodd" d="M9 16.5C13.1421 16.5 16.5 13.1421 16.5 9C16.5 4.85786 13.1421 1.5 9 1.5C4.85786 1.5 1.5 4.85786 1.5 9C1.5 13.1421 4.85786 16.5 9 16.5ZM8.64183 5.16C8.73068 4.97757 8.95631 4.89903 9.14579 4.98457C9.22595 5.02076 9.29042 5.08283 9.32801 5.16L10.3348 7.22714L12.7392 7.51639C12.9336 7.53977 13.0715 7.71043 13.0472 7.89756C13.0379 7.96953 13.005 8.03657 12.9537 8.08914L12.9377 8.10447L11.1691 9.69915L11.6166 11.9412C11.6561 12.1391 11.5215 12.3303 11.316 12.3684C11.229 12.3844 11.139 12.3707 11.0614 12.3295L8.98492 11.2269L6.90839 12.3295C6.72513 12.4269 6.49464 12.3627 6.39357 12.1863C6.35081 12.1116 6.33655 12.0249 6.35325 11.9412L6.80077 9.69915L5.06989 8.13851C4.91714 8.00078 4.90927 7.76991 5.05233 7.62284C5.11285 7.56063 5.19408 7.52078 5.28193 7.51021L7.63504 7.22714L8.64183 5.16Z" fill="white"/>
</mask>
<g mask="url(#mask0_1031_172908)">
<rect width="18" height="18" fill="#E07E26"/>
</g>
</svg>
