<svg width="24" height="24" viewBox="0 0 24 24" fill="none" xmlns="http://www.w3.org/2000/svg">
<path fill-rule="evenodd" clip-rule="evenodd" d="M11.8237 1C8.96555 1 6.7067 3.58214 6.7067 6.706C6.7067 9.82986 8.96555 12.412 11.8237 12.412C14.682 12.412 16.9417 9.82971 16.9417 6.706C16.9417 3.58229 14.682 1 11.8237 1ZM11.8237 3C13.5136 3 14.9417 4.63191 14.9417 6.706C14.9417 8.78009 13.5136 10.412 11.8237 10.412C10.134 10.412 8.7067 8.78037 8.7067 6.706C8.7067 4.63163 10.134 3 11.8237 3ZM11.824 13.9409C8.73041 13.9409 6.26349 14.4492 4.36733 15.2958C2.9223 15.9418 2 17.3817 2 18.9699C2 21.1959 3.80442 22.9999 6.03 22.9999H17.618C19.8436 22.9999 21.648 21.1959 21.648 18.9699C21.648 17.3817 20.7257 15.9418 19.2812 15.296C17.3845 14.4492 14.9176 13.9409 11.824 13.9409ZM11.824 15.9409C14.6411 15.9409 16.8301 16.392 18.4653 17.122C19.1854 17.444 19.648 18.1662 19.648 18.9699C19.648 20.0912 18.7391 20.9999 17.618 20.9999H6.03C4.90889 20.9999 4 20.0912 4 18.9699C4 18.1662 4.46264 17.444 5.18316 17.1218C6.81795 16.392 9.00693 15.9409 11.824 15.9409Z" fill="#58585B"/>
</svg>
